{
.appVersion = "1075";
DisplayStrings = (
"/koKai-thai"
);
copyright = "Copyright © 2018 by Cadson Demak Co.,Ltd.. All rights reserved.";
customParameters = (
{
name = vendorID;
value = CDK;
},
{
name = description;
value = "Copyright (c) 2018, Cadson Demak (info@cadsondemak.com)";
},
{
name = license;

glyphs = (
{
glyphname = A;
lastChange = "2017-12-19 09:07:32 +0000";
layers = (
{
layerId = "0B1DFD06-3317-40CA-B510-4969A0718C16";
paths = (
{
closed = 1;
nodes = (
"706 700 OFFCURVE",
"684 701 OFFCURVE",
"663 701 CURVE SMOOTH",
"593 701 OFFCURVE",
"528 689 OFFCURVE",
"467 660 CURVE SMOOTH",
"404 633 OFFCURVE",
"346 595 OFFCURVE",
"290 547 CURVE SMOOTH",
"233 500 OFFCURVE",
"188 458 OFFCURVE",
"155 421 CURVE SMOOTH",
"121 384 OFFCURVE",
"94 344 OFFCURVE",
"74 303 CURVE SMOOTH",
"54 261 OFFCURVE",
"44 216 OFFCURVE",
"44 168 CURVE SMOOTH",
"44 155 OFFCURVE",
"45 136 OFFCURVE",
"49 110 CURVE SMOOTH",
"52 84 OFFCURVE",
"62 60 OFFCURVE",
"77 39 CURVE",
"94 17 OFFCURVE",
"112 4 OFFCURVE",
"132 -1 CURVE",
"152 -5 OFFCURVE",
"167 -7 OFFCURVE",
"181 -7 CURVE SMOOTH",
"223 -7 OFFCURVE",
"268 6 OFFCURVE",
"317 35 CURVE SMOOTH",
"363 61 OFFCURVE",
"406 94 OFFCURVE",
"443 130 CURVE",
"482 163 OFFCURVE",
"512 196 OFFCURVE",
"540 230 CURVE",
"529 201 OFFCURVE",
"519 178 OFFCURVE",
"509 163 CURVE SMOOTH",
"480 119 LINE SMOOTH",
"470 104 OFFCURVE",
"456 84 OFFCURVE",
"436 57 CURVE SMOOTH",
"416 30 OFFCURVE",
"404 12 OFFCURVE",
"402 4 CURVE",
"407 4 OFFCURVE",
"418 5 OFFCURVE",
"437 1 CURVE",
"456 0 OFFCURVE",
"468 -1 OFFCURVE",
"477 -1 CURVE SMOOTH",
"493 -1 OFFCURVE",
"505 0 OFFCURVE",
"514 4 CURVE",
"533 70 OFFCURVE",
"554 136 OFFCURVE",
"580 202 CURVE SMOOTH",
"607 267 OFFCURVE",
"631 324 OFFCURVE",
"655 373 CURVE SMOOTH",
"679 422 OFFCURVE",
"714 498 OFFCURVE",
"768 603 CURVE",
"768 619 LINE",
"764 619 LINE",
"735 575 OFFCURVE",
"709 540 OFFCURVE",
"683 507 CURVE SMOOTH",
"656 473 OFFCURVE",
"626 447 OFFCURVE",
"593 426 CURVE SMOOTH",
"558 403 OFFCURVE",
"520 392 OFFCURVE",
"480 392 CURVE SMOOTH",
"472 392 LINE SMOOTH",
"468 392 OFFCURVE",
"464 393 OFFCURVE",
"456 393 CURVE",
"447 394 OFFCURVE",
"438 398 OFFCURVE",
"431 403 CURVE",
"422 407 OFFCURVE",
"417 413 OFFCURVE",
"414 421 CURVE SMOOTH",
"413 424 OFFCURVE",
"413 428 OFFCURVE",
"413 434 CURVE SMOOTH",
"413 443 OFFCURVE",
"416 449 OFFCURVE",
"419 453 CURVE SMOOTH",
"423 457 OFFCURVE",
"428 461 OFFCURVE",
"436 466 CURVE",
"442 470 OFFCURVE",
"448 472 OFFCURVE",
"454 475 CURVE",
"463 477 OFFCURVE",
"470 478 OFFCURVE",
"477 478 CURVE SMOOTH",
"483 478 OFFCURVE",
"490 477 OFFCURVE",
"500 475 CURVE",
"510 472 OFFCURVE",
"524 473 OFFCURVE",
"540 469 CURVE",
"517 480 LINE",
"508 484 OFFCURVE",
"499 485 OFFCURVE",
"489 489 CURVE",
"478 492 OFFCURVE",
"466 493 OFFCURVE",
"452 493 CURVE SMOOTH",
"431 493 OFFCURVE",
"413 489 OFFCURVE",
"399 480 CURVE",
"386 473 OFFCURVE",
"376 464 OFFCURVE",
"371 453 CURVE SMOOTH",
"366 442 OFFCURVE",
"363 433 OFFCURVE",
"363 429 CURVE SMOOTH",
"363 422 OFFCURVE",
"367 413 OFFCURVE",
"373 404 CURVE",
"379 397 OFFCURVE",
"391 389 OFFCURVE",
"406 381 CURVE SMOOTH",
"422 372 OFFCURVE",
"441 368 OFFCURVE",
"464 368 CURVE SMOOTH",
"493 368 OFFCURVE",
"527 378 OFFCURVE",
"563 397 CURVE SMOOTH",
"599 416 OFFCURVE",
"641 448 OFFCURVE",
"690 497 CURVE",
"696 493 LINE",
"655 398 OFFCURVE",
"604 318 OFFCURVE",
"540 247 CURVE SMOOTH",
"478 177 OFFCURVE",
"418 125 OFFCURVE",
"362 91 CURVE SMOOTH",
"306 57 OFFCURVE",
"265 40 OFFCURVE",
"237 40 CURVE SMOOTH",
"207 40 OFFCURVE",
"183 47 OFFCURVE",
"166 62 CURVE SMOOTH",
"147 79 OFFCURVE",
"137 90 OFFCURVE",
"134 104 CURVE SMOOTH",
"130 116 OFFCURVE",
"127 130 OFFCURVE",
"127 146 CURVE SMOOTH",
"127 156 LINE",
"129 161 OFFCURVE",
"130 191 OFFCURVE",
"139 250 CURVE SMOOTH",
"146 307 OFFCURVE",
"183 379 OFFCURVE",
"252 468 CURVE SMOOTH",
"322 558 OFFCURVE",
"389 613 OFFCURVE",
"456 639 CURVE SMOOTH",
"524 664 OFFCURVE",
"569 680 OFFCURVE",
"593 685 CURVE SMOOTH",
"617 690 OFFCURVE",
"640 694 OFFCURVE",
"664 694 CURVE SMOOTH",
"689 694 OFFCURVE",
"714 689 OFFCURVE",
"739 680 CURVE SMOOTH",
"761 671 OFFCURVE",
"782 656 OFFCURVE",
"802 635 CURVE SMOOTH",
"821 614 OFFCURVE",
"831 585 OFFCURVE",
"831 550 CURVE SMOOTH",
"831 527 OFFCURVE",
"826 504 OFFCURVE",
"816 483 CURVE SMOOTH",
"806 461 OFFCURVE",
"791 442 OFFCURVE",
"773 428 CURVE SMOOTH",
"754 414 OFFCURVE",
"734 403 OFFCURVE",
"713 397 CURVE",
"744 397 OFFCURVE",
"773 406 OFFCURVE",
"799 422 CURVE",
"825 441 OFFCURVE",
"841 459 OFFCURVE",
"850 479 CURVE SMOOTH",
"859 499 OFFCURVE",
"864 515 OFFCURVE",
"865 525 CURVE",
"867 535 OFFCURVE",
"869 545 OFFCURVE",
"869 555 CURVE SMOOTH",
"869 585 OFFCURVE",
"860 612 OFFCURVE",
"844 633 CURVE SMOOTH",
"827 654 OFFCURVE",
"811 668 OFFCURVE",
"796 676 CURVE",
"782 685 OFFCURVE",
"760 691 OFFCURVE",
"729 698 CURVE"
);
}
);
width = 736;
}
);
note = A;
unicode = 0041;
},
{
glyphname = B;
lastChange = "2017-12-19 09:07:32 +0000";
layers = (
{
layerId = "0B1DFD06-3317-40CA-B510-4969A0718C16";
paths = (
{
closed = 1;
nodes = (
"343 670 OFFCURVE",
"297 643 OFFCURVE",
"257 599 CURVE SMOOTH",
"217 555 OFFCURVE",
"185 504 OFFCURVE",
"160 448 CURVE",
"154 447 OFFCURVE",
"150 446 OFFCURVE",
"146 446 CURVE",
"144 444 OFFCURVE",
"140 444 OFFCURVE",
"134 444 CURVE SMOOTH",
"121 444 OFFCURVE",
"109 447 OFFCURVE",
"96 452 CURVE",
"85 456 OFFCURVE",
"75 462 OFFCURVE",
"69 469 CURVE",
"61 477 OFFCURVE",
"57 484 OFFCURVE",
"57 493 CURVE SMOOTH",
"57 512 OFFCURVE",
"65 524 OFFCURVE",
"79 532 CURVE",
"92 540 OFFCURVE",
"109 545 OFFCURVE",
"125 545 CURVE SMOOTH",
"134 545 OFFCURVE",
"141 544 OFFCURVE",
"150 543 CURVE SMOOTH",
"181 538 LINE",
"181 543 LINE",
"160 554 OFFCURVE",
"137 560 OFFCURVE",
"112 560 CURVE SMOOTH",
"81 560 OFFCURVE",
"56 554 OFFCURVE",
"39 540 CURVE",
"22 527 OFFCURVE",
"15 510 OFFCURVE",
"15 494 CURVE SMOOTH",
"15 488 OFFCURVE",
"16 482 OFFCURVE",
"19 473 CURVE",
"20 466 OFFCURVE",
"25 459 OFFCURVE",
"31 453 CURVE",
"40 447 OFFCURVE",
"52 443 OFFCURVE",
"70 439 CURVE",
"89 434 OFFCURVE",
"102 433 OFFCURVE",
"112 433 CURVE SMOOTH",
"121 433 OFFCURVE",
"127 433 OFFCURVE",
"136 434 CURVE SMOOTH",
"158 438 LINE",
"155 417 OFFCURVE",
"152 403 OFFCURVE",
"152 397 CURVE SMOOTH",
"152 387 OFFCURVE",
"151 369 OFFCURVE",
"151 344 CURVE SMOOTH",
"151 336 OFFCURVE",
"152 331 OFFCURVE",
"154 322 CURVE SMOOTH",
"155 313 OFFCURVE",
"157 308 OFFCURVE",
"160 306 CURVE",
"160 321 OFFCURVE",
"160 341 OFFCURVE",
"161 367 CURVE",
"161 393 OFFCURVE",
"165 416 OFFCURVE",
"168 439 CURVE",
"192 444 OFFCURVE",
"216 453 OFFCURVE",
"237 466 CURVE",
"258 477 OFFCURVE",
"276 489 OFFCURVE",
"291 502 CURVE SMOOTH",
"363 564 LINE",
"367 560 LINE",
"343 515 OFFCURVE",
"316 459 OFFCURVE",
"280 393 CURVE SMOOTH",
"175 198 LINE",
"69 5 LINE",
"77 1 OFFCURVE",
"86 0 OFFCURVE",
"95 0 CURVE",
"104 -1 OFFCURVE",
"109 -1 OFFCURVE",
"115 -1 CURVE SMOOTH",
"116 -1 OFFCURVE",
"124 0 OFFCURVE",
"139 0 CURVE SMOOTH",
"155 0 OFFCURVE",
"167 1 OFFCURVE",
"176 1 CURVE",
"182 34 LINE",
"186 49 OFFCURVE",
"192 77 OFFCURVE",
"206 119 CURVE SMOOTH",
"220 162 OFFCURVE",
"237 212 OFFCURVE",
"261 273 CURVE SMOOTH",
"285 337 OFFCURVE",
"308 397 OFFCURVE",
"337 458 CURVE SMOOTH",
"416 638 LINE",
"387 599 OFFCURVE",
"362 570 OFFCURVE",
"338 547 CURVE SMOOTH",
"317 525 OFFCURVE",
"293 507 OFFCURVE",
"268 490 CURVE",
"243 475 OFFCURVE",
"227 466 OFFCURVE",
"213 461 CURVE",
"202 456 OFFCURVE",
"188 452 OFFCURVE",
"172 451 CURVE",
"180 473 OFFCURVE",
"192 497 OFFCURVE",
"208 523 CURVE",
"222 548 OFFCURVE",
"241 573 OFFCURVE",
"263 598 CURVE SMOOTH",
"283 622 OFFCURVE",
"311 641 OFFCURVE",
"347 656 CURVE SMOOTH",
"382 671 OFFCURVE",
"419 679 OFFCURVE",
"459 679 CURVE SMOOTH",
"485 679 OFFCURVE",
"510 676 OFFCURVE",
"537 670 CURVE SMOOTH",
"563 664 OFFCURVE",
"587 651 OFFCURVE",
"608 631 CURVE SMOOTH",
"626 613 OFFCURVE",
"638 594 OFFCURVE",
"641 574 CURVE SMOOTH",
"645 554 OFFCURVE",
"648 543 OFFCURVE",
"648 539 CURVE SMOOTH",
"648 535 OFFCURVE",
"649 530 OFFCURVE",
"649 524 CURVE SMOOTH",
"649 493 OFFCURVE",
"640 463 OFFCURVE",
"624 437 CURVE",
"610 411 OFFCURVE",
"588 388 OFFCURVE",
"559 369 CURVE",
"515 383 OFFCURVE",
"489 389 OFFCURVE",
"478 393 CURVE",
"466 396 OFFCURVE",
"452 397 OFFCURVE",
"436 397 CURVE SMOOTH",
"423 397 OFFCURVE",
"409 394 OFFCURVE",
"394 391 CURVE",
"382 387 OFFCURVE",
"371 382 OFFCURVE",
"362 376 CURVE",
"354 369 OFFCURVE",
"351 362 OFFCURVE",
"351 356 CURVE SMOOTH",
"351 348 OFFCURVE",
"354 342 OFFCURVE",
"363 336 CURVE SMOOTH",
"372 329 OFFCURVE",
"382 324 OFFCURVE",
"396 321 CURVE SMOOTH",
"409 317 OFFCURVE",
"424 314 OFFCURVE",
"439 314 CURVE SMOOTH",
"458 314 OFFCURVE",
"479 318 OFFCURVE",
"500 323 CURVE SMOOTH",
"524 329 OFFCURVE",
"544 336 OFFCURVE",
"564 344 CURVE",
"579 337 OFFCURVE",
"590 327 OFFCURVE",
"598 313 CURVE SMOOTH",
"605 300 OFFCURVE",
"609 283 OFFCURVE",
"609 266 CURVE SMOOTH",
"609 111 OFFCURVE",
"480 1 OFFCURVE",
"324 1 CURVE SMOOTH",
"280 1 OFFCURVE",
"240 14 OFFCURVE",
"206 37 CURVE",
"206 29 LINE",
"227 12 OFFCURVE",
"250 0 OFFCURVE",
"272 -7 CURVE SMOOTH",
"296 -15 OFFCURVE",
"321 -19 OFFCURVE",
"349 -19 CURVE SMOOTH",
"436 -19 OFFCURVE",
"554 11 OFFCURVE",
"612 89 CURVE SMOOTH",
"640 125 OFFCURVE",
"659 172 OFFCURVE",
"659 221 CURVE SMOOTH",
"659 241 OFFCURVE",
"654 261 OFFCURVE",
"644 281 CURVE SMOOTH",
"634 302 OFFCURVE",
"614 326 OFFCURVE",
"584 354 CURVE",
"588 358 OFFCURVE",
"602 368 OFFCURVE",
"624 384 CURVE SMOOTH",
"645 399 OFFCURVE",
"661 416 OFFCURVE",
"673 433 CURVE",
"704 489 OFFCURVE",
"715 537 OFFCURVE",
"691 600 CURVE SMOOTH",
"681 629 OFFCURVE",
"659 651 OFFCURVE",
"623 669 CURVE SMOOTH",
"588 686 OFFCURVE",
"547 695 OFFCURVE",
"498 695 CURVE SMOOTH",
"480 695 OFFCURVE",
"463 694 OFFCURVE",
"446 691 CURVE",
"427 688 OFFCURVE",
"411 686 OFFCURVE",
"394 681 CURVE"
);
},
{
closed = 1;
nodes = (
"396 373 OFFCURVE",
"404 377 OFFCURVE",
"414 378 CURVE",
"423 381 OFFCURVE",
"432 382 OFFCURVE",
"443 382 CURVE SMOOTH",
"477 382 OFFCURVE",
"508 373 OFFCURVE",
"537 357 CURVE",
"523 348 OFFCURVE",
"508 341 OFFCURVE",
"492 337 CURVE",
"475 331 OFFCURVE",
"458 328 OFFCURVE",
"439 328 CURVE SMOOTH",
"418 328 OFFCURVE",
"404 331 OFFCURVE",
"396 337 CURVE",
"386 341 OFFCURVE",
"381 346 OFFCURVE",
"381 354 CURVE SMOOTH",
"381 362 OFFCURVE",
"383 367 OFFCURVE",
"389 369 CURVE"
);
}
);
width = 695;
}
);
note = B;
unicode = 0042;
},
{
glyphname = C;
lastChange = "2017-12-19 09:07:32 +0000";
layers = (
{
layerId = "0B1DFD06-3317-40CA-B510-4969A0718C16";
paths = (
{
closed = 1;
nodes = (
"461 698 OFFCURVE",
"414 684 OFFCURVE",
"373 661 CURVE SMOOTH",
"331 638 OFFCURVE",
"293 610 OFFCURVE",
"261 578 CURVE SMOOTH",
"227 544 OFFCURVE",
"196 505 OFFCURVE",
"162 461 CURVE",
"158 461 OFFCURVE",
"156 461 OFFCURVE",
"154 459 CURVE SMOOTH",
"151 458 OFFCURVE",
"145 458 OFFCURVE",
"136 458 CURVE SMOOTH",
"122 458 OFFCURVE",
"110 461 OFFCURVE",
"100 466 CURVE",
"90 469 OFFCURVE",
"84 475 OFFCURVE",
"82 482 CURVE",
"81 490 OFFCURVE",
"80 494 OFFCURVE",
"80 498 CURVE SMOOTH",
"80 504 OFFCURVE",
"82 512 OFFCURVE",
"86 518 CURVE SMOOTH",
"90 524 OFFCURVE",
"94 530 OFFCURVE",
"99 537 CURVE",
"105 543 OFFCURVE",
"111 547 OFFCURVE",
"116 548 CURVE",
"121 550 OFFCURVE",
"127 552 OFFCURVE",
"135 552 CURVE SMOOTH",
"141 552 OFFCURVE",
"151 550 OFFCURVE",
"165 548 CURVE",
"180 547 OFFCURVE",
"188 545 OFFCURVE",
"197 547 CURVE",
"183 555 OFFCURVE",
"170 562 OFFCURVE",
"158 565 CURVE",
"147 570 OFFCURVE",
"134 572 OFFCURVE",
"120 572 CURVE SMOOTH",
"99 572 OFFCURVE",
"81 565 OFFCURVE",
"69 554 CURVE",
"55 543 OFFCURVE",
"45 533 OFFCURVE",
"39 524 CURVE SMOOTH",
"32 515 OFFCURVE",
"31 505 OFFCURVE",
"32 494 CURVE",
"35 480 OFFCURVE",
"41 470 OFFCURVE",
"50 464 CURVE",
"61 458 OFFCURVE",
"71 453 OFFCURVE",
"82 449 CURVE SMOOTH",
"95 446 OFFCURVE",
"102 443 OFFCURVE",
"105 443 CURVE SMOOTH",
"110 443 OFFCURVE",
"115 442 OFFCURVE",
"120 442 CURVE SMOOTH",
"124 442 OFFCURVE",
"127 443 OFFCURVE",
"131 443 CURVE",
"151 446 LINE",
"135 412 OFFCURVE",
"121 381 OFFCURVE",
"111 347 CURVE SMOOTH",
"101 313 OFFCURVE",
"96 278 OFFCURVE",
"96 242 CURVE SMOOTH",
"96 222 OFFCURVE",
"97 207 OFFCURVE",
"101 196 CURVE",
"105 182 OFFCURVE",
"111 165 OFFCURVE",
"125 141 CURVE",
"136 117 OFFCURVE",
"149 96 OFFCURVE",
"162 77 CURVE SMOOTH",
"176 59 OFFCURVE",
"193 45 OFFCURVE",
"213 34 CURVE SMOOTH",
"233 22 OFFCURVE",
"255 14 OFFCURVE",
"278 10 CURVE",
"302 4 OFFCURVE",
"327 1 OFFCURVE",
"353 1 CURVE SMOOTH",
"397 1 OFFCURVE",
"443 10 OFFCURVE",
"490 26 CURVE SMOOTH",
"537 42 OFFCURVE",
"568 57 OFFCURVE",
"587 74 CURVE SMOOTH",
"604 89 OFFCURVE",
"613 97 OFFCURVE",
"613 101 CURVE SMOOTH",
"613 112 OFFCURVE",
"609 116 OFFCURVE",
"602 114 CURVE",
"570 86 OFFCURVE",
"545 67 OFFCURVE",
"529 59 CURVE SMOOTH",
"509 49 OFFCURVE",
"488 40 OFFCURVE",
"463 35 CURVE",
"438 29 OFFCURVE",
"414 25 OFFCURVE",
"392 25 CURVE SMOOTH",
"342 25 OFFCURVE",
"298 40 OFFCURVE",
"262 69 CURVE SMOOTH",
"227 96 OFFCURVE",
"201 130 OFFCURVE",
"185 168 CURVE SMOOTH",
"168 206 OFFCURVE",
"161 247 OFFCURVE",
"161 291 CURVE SMOOTH",
"161 319 OFFCURVE",
"163 346 OFFCURVE",
"168 368 CURVE",
"172 389 OFFCURVE",
"176 404 OFFCURVE",
"182 416 CURVE SMOOTH",
"202 452 LINE",
"256 464 OFFCURVE",
"291 473 OFFCURVE",
"307 478 CURVE SMOOTH",
"323 483 OFFCURVE",
"342 492 OFFCURVE",
"363 503 CURVE SMOOTH",
"383 514 OFFCURVE",
"403 529 OFFCURVE",
"427 545 CURVE",
"449 563 OFFCURVE",
"464 573 OFFCURVE",
"470 577 CURVE",
"432 500 OFFCURVE",
"393 426 OFFCURVE",
"353 354 CURVE SMOOTH",
"314 283 OFFCURVE",
"277 217 OFFCURVE",
"238 154 CURVE",
"238 139 LINE",
"252 137 OFFCURVE",
"266 136 OFFCURVE",
"285 136 CURVE SMOOTH",
"290 136 LINE SMOOTH",
"296 136 OFFCURVE",
"301 136 OFFCURVE",
"305 137 CURVE",
"319 137 OFFCURVE",
"328 137 OFFCURVE",
"331 139 CURVE",
"342 187 OFFCURVE",
"356 237 OFFCURVE",
"374 286 CURVE",
"392 337 OFFCURVE",
"416 397 OFFCURVE",
"447 468 CURVE SMOOTH",
"478 543 OFFCURVE",
"499 595 OFFCURVE",
"513 634 CURVE",
"504 634 LINE",
"468 590 OFFCURVE",
"426 557 OFFCURVE",
"377 530 CURVE SMOOTH",
"328 505 OFFCURVE",
"272 484 OFFCURVE",
"208 466 CURVE",
"235 510 OFFCURVE",
"256 542 OFFCURVE",
"270 558 CURVE",
"283 573 OFFCURVE",
"303 590 OFFCURVE",
"329 612 CURVE SMOOTH",
"353 630 OFFCURVE",
"374 643 OFFCURVE",
"392 648 CURVE SMOOTH",
"411 653 OFFCURVE",
"429 655 OFFCURVE",
"451 655 CURVE SMOOTH",
"467 655 OFFCURVE",
"494 653 OFFCURVE",
"530 649 CURVE SMOOTH",
"567 644 OFFCURVE",
"594 641 OFFCURVE",
"613 641 CURVE SMOOTH",
"630 641 OFFCURVE",
"646 643 OFFCURVE",
"660 646 CURVE",
"676 649 OFFCURVE",
"690 653 OFFCURVE",
"701 659 CURVE",
"748 678 LINE",
"763 685 OFFCURVE",
"771 694 OFFCURVE",
"775 704 CURVE",
"748 696 OFFCURVE",
"720 693 OFFCURVE",
"694 693 CURVE SMOOTH",
"679 693 OFFCURVE",
"655 695 OFFCURVE",
"620 699 CURVE SMOOTH",
"587 703 OFFCURVE",
"562 705 OFFCURVE",
"548 705 CURVE SMOOTH",
"537 705 OFFCURVE",
"525 704 OFFCURVE",
"512 703 CURVE SMOOTH"
);
}
);
width = 649;
}
);
note = C;
unicode = 0043;
},
{
glyphname = D;
lastChange = "2017-12-19 09:07:32 +0000";
layers = (
{
layerId = "0B1DFD06-3317-40CA-B510-4969A0718C16";
paths = (
{
closed = 1;
nodes = (
"466 710 OFFCURVE",
"406 701 OFFCURVE",
"351 680 CURVE SMOOTH",
"251 640 OFFCURVE",
"182 535 OFFCURVE",
"172 457 CURVE",
"160 457 OFFCURVE",
"149 458 OFFCURVE",
"139 461 CURVE",
"112 464 OFFCURVE",
"74 488 OFFCURVE",
"77 520 CURVE SMOOTH",
"79 532 OFFCURVE",
"85 542 OFFCURVE",
"95 548 CURVE SMOOTH",
"105 554 OFFCURVE",
"124 558 OFFCURVE",
"187 558 CURVE",
"126 573 OFFCURVE",
"99 575 OFFCURVE",
"72 564 CURVE SMOOTH",
"54 555 OFFCURVE",
"29 539 OFFCURVE",
"29 515 CURVE SMOOTH",
"29 489 OFFCURVE",
"57 466 OFFCURVE",
"84 457 CURVE",
"109 451 OFFCURVE",
"137 447 OFFCURVE",
"170 447 CURVE",
"156 417 OFFCURVE",
"170 362 OFFCURVE",
"197 341 CURVE",
"183 374 OFFCURVE",
"175 407 OFFCURVE",
"183 447 CURVE",
"250 462 OFFCURVE",
"295 478 OFFCURVE",
"318 494 CURVE",
"344 510 OFFCURVE",
"376 533 OFFCURVE",
"409 559 CURVE",
"319 418 OFFCURVE",
"243 265 OFFCURVE",
"145 94 CURVE",
"144 90 OFFCURVE",
"139 86 OFFCURVE",
"142 82 CURVE",
"233 80 LINE",
"293 268 OFFCURVE",
"383 446 OFFCURVE",
"463 635 CURVE",
"456 635 LINE",
"424 597 OFFCURVE",
"401 570 OFFCURVE",
"382 552 CURVE SMOOTH",
"363 533 OFFCURVE",
"339 517 OFFCURVE",
"308 500 CURVE SMOOTH",
"278 484 OFFCURVE",
"237 469 OFFCURVE",
"185 458 CURVE",
"208 538 OFFCURVE",
"260 605 OFFCURVE",
"338 646 CURVE SMOOTH",
"387 673 OFFCURVE",
"437 673 OFFCURVE",
"490 659 CURVE SMOOTH",
"555 644 OFFCURVE",
"610 589 OFFCURVE",
"624 519 CURVE SMOOTH",
"648 396 OFFCURVE",
"630 277 OFFCURVE",
"540 172 CURVE SMOOTH",
"503 129 OFFCURVE",
"458 92 OFFCURVE",
"407 62 CURVE",
"286 9 OFFCURVE",
"171 10 OFFCURVE",
"64 69 CURVE",
"64 62 LINE",
"90 41 OFFCURVE",
"122 25 OFFCURVE",
"158 14 CURVE SMOOTH",
"235 -11 OFFCURVE",
"305 -12 OFFCURVE",
"398 14 CURVE SMOOTH",
"453 30 OFFCURVE",
"514 64 OFFCURVE",
"579 127 CURVE SMOOTH",
"684 232 OFFCURVE",
"736 391 OFFCURVE",
"693 540 CURVE SMOOTH",
"668 625 OFFCURVE",
"603 670 OFFCURVE",
"519 694 CURVE SMOOTH"
);
}
);
width = 673;
}
);
note = D;
unicode = 0044;
},
{
glyphname = E;
lastChange = "2017-12-19 09:07:32 +0000";
layers = (
{
layerId = "0B1DFD06-3317-40CA-B510-4969A0718C16";
paths = (
{
closed = 1;
nodes = (
"475 708 OFFCURVE",
"428 696 OFFCURVE",
"384 673 CURVE SMOOTH",
"339 650 OFFCURVE",
"300 622 OFFCURVE",
"263 585 CURVE SMOOTH",
"226 550 OFFCURVE",
"190 509 OFFCURVE",
"155 462 CURVE",
"129 462 LINE SMOOTH",
"119 462 OFFCURVE",
"110 464 OFFCURVE",
"101 469 CURVE",
"94 473 OFFCURVE",
"86 479 OFFCURVE",
"77 488 CURVE",
"71 497 OFFCURVE",
"67 504 OFFCURVE",
"67 512 CURVE SMOOTH",
"67 518 OFFCURVE",
"69 524 OFFCURVE",
"72 532 CURVE",
"76 540 OFFCURVE",
"85 547 OFFCURVE",
"96 550 CURVE",
"107 555 OFFCURVE",
"121 558 OFFCURVE",
"140 558 CURVE SMOOTH",
"145 558 OFFCURVE",
"154 558 OFFCURVE",
"163 557 CURVE",
"173 557 OFFCURVE",
"178 555 OFFCURVE",
"182 555 CURVE",
"168 562 LINE",
"163 565 OFFCURVE",
"155 567 OFFCURVE",
"144 570 CURVE",
"131 573 OFFCURVE",
"117 574 OFFCURVE",
"104 574 CURVE SMOOTH",
"85 574 OFFCURVE",
"69 572 OFFCURVE",
"57 565 CURVE",
"45 559 OFFCURVE",
"37 552 OFFCURVE",
"34 542 CURVE SMOOTH",
"30 532 OFFCURVE",
"27 524 OFFCURVE",
"27 520 CURVE SMOOTH",
"27 514 OFFCURVE",
"30 507 OFFCURVE",
"34 498 CURVE",
"39 492 OFFCURVE",
"45 484 OFFCURVE",
"54 475 CURVE",
"64 467 OFFCURVE",
"74 463 OFFCURVE",
"85 459 CURVE SMOOTH",
"96 456 OFFCURVE",
"110 454 OFFCURVE",
"126 454 CURVE SMOOTH",
"152 454 LINE",
"132 421 OFFCURVE",
"116 384 OFFCURVE",
"104 348 CURVE",
"92 310 OFFCURVE",
"86 272 OFFCURVE",
"86 238 CURVE SMOOTH",
"86 212 OFFCURVE",
"90 186 OFFCURVE",
"99 157 CURVE",
"106 129 OFFCURVE",
"122 101 OFFCURVE",
"149 76 CURVE SMOOTH",
"172 52 OFFCURVE",
"203 32 OFFCURVE",
"242 19 CURVE SMOOTH",
"281 5 OFFCURVE",
"313 -1 OFFCURVE",
"347 -1 CURVE SMOOTH",
"389 -1 OFFCURVE",
"432 9 OFFCURVE",
"475 27 CURVE SMOOTH",
"518 46 OFFCURVE",
"559 72 OFFCURVE",
"599 106 CURVE",
"599 116 LINE",
"510 61 OFFCURVE",
"442 34 OFFCURVE",
"393 34 CURVE SMOOTH",
"374 34 OFFCURVE",
"353 35 OFFCURVE",
"324 40 CURVE",
"296 44 OFFCURVE",
"267 59 OFFCURVE",
"238 82 CURVE SMOOTH",
"207 107 OFFCURVE",
"186 134 OFFCURVE",
"177 162 CURVE",
"167 191 OFFCURVE",
"161 216 OFFCURVE",
"157 235 CURVE SMOOTH",
"154 255 OFFCURVE",
"152 275 OFFCURVE",
"152 296 CURVE SMOOTH",
"152 322 OFFCURVE",
"156 348 OFFCURVE",
"162 377 CURVE SMOOTH",
"168 403 OFFCURVE",
"177 431 OFFCURVE",
"188 457 CURVE",
"227 462 OFFCURVE",
"261 469 OFFCURVE",
"291 480 CURVE SMOOTH",
"321 492 OFFCURVE",
"346 502 OFFCURVE",
"364 515 CURVE SMOOTH",
"384 529 OFFCURVE",
"404 540 OFFCURVE",
"426 554 CURVE SMOOTH",
"446 567 OFFCURVE",
"459 577 OFFCURVE",
"468 585 CURVE",
"373 409 LINE SMOOTH",
"352 371 OFFCURVE",
"329 331 OFFCURVE",
"303 286 CURVE SMOOTH",
"225 151 LINE",
"221 141 LINE",
"316 141 LINE",
"316 176 OFFCURVE",
"321 207 OFFCURVE",
"332 233 CURVE",
"342 262 OFFCURVE",
"361 287 OFFCURVE",
"384 312 CURVE SMOOTH",
"409 337 OFFCURVE",
"432 353 OFFCURVE",
"452 367 CURVE",
"472 379 OFFCURVE",
"493 386 OFFCURVE",
"517 386 CURVE SMOOTH",
"530 386 OFFCURVE",
"542 384 OFFCURVE",
"550 381 CURVE",
"560 377 OFFCURVE",
"568 371 OFFCURVE",
"572 363 CURVE",
"580 342 LINE",
"592 346 OFFCURVE",
"598 352 OFFCURVE",
"602 361 CURVE",
"607 369 OFFCURVE",
"609 379 OFFCURVE",
"609 393 CURVE SMOOTH",
"609 413 OFFCURVE",
"600 426 OFFCURVE",
"584 431 CURVE SMOOTH",
"568 436 OFFCURVE",
"553 438 OFFCURVE",
"540 438 CURVE SMOOTH",
"519 438 OFFCURVE",
"499 433 OFFCURVE",
"480 423 CURVE SMOOTH",
"463 413 OFFCURVE",
"446 399 OFFCURVE",
"429 383 CURVE",
"411 367 OFFCURVE",
"394 347 OFFCURVE",
"376 326 CURVE",
"386 357 OFFCURVE",
"397 388 OFFCURVE",
"409 419 CURVE SMOOTH",
"423 451 OFFCURVE",
"434 480 OFFCURVE",
"448 509 CURVE SMOOTH",
"482 583 LINE SMOOTH",
"492 604 OFFCURVE",
"499 624 OFFCURVE",
"504 643 CURVE",
"468 593 OFFCURVE",
"422 552 OFFCURVE",
"366 520 CURVE SMOOTH",
"311 492 OFFCURVE",
"252 472 OFFCURVE",
"190 463 CURVE",
"203 494 OFFCURVE",
"225 525 OFFCURVE",
"252 557 CURVE SMOOTH",
"280 587 OFFCURVE",
"307 610 OFFCURVE",
"333 629 CURVE",
"362 648 OFFCURVE",
"383 659 OFFCURVE",
"403 664 CURVE SMOOTH",
"422 669 OFFCURVE",
"443 671 OFFCURVE",
"468 671 CURVE SMOOTH",
"484 671 OFFCURVE",
"513 669 OFFCURVE",
"554 664 CURVE SMOOTH",
"595 659 OFFCURVE",
"622 656 OFFCURVE",
"634 656 CURVE SMOOTH",
"663 656 OFFCURVE",
"688 660 OFFCURVE",
"710 668 CURVE SMOOTH",
"734 676 OFFCURVE",
"755 689 OFFCURVE",
"773 708 CURVE",
"759 701 OFFCURVE",
"746 698 OFFCURVE",
"735 696 CURVE",
"724 693 OFFCURVE",
"710 694 OFFCURVE",
"694 694 CURVE SMOOTH",
"679 694 OFFCURVE",
"653 696 OFFCURVE",
"613 700 CURVE SMOOTH",
"573 705 OFFCURVE",
"544 708 OFFCURVE",
"527 708 CURVE SMOOTH"
);
}
);
width = 619;
}
);
note = E;
unicode = 0045;
},
{
glyphname = F;
lastChange = "2017-12-19 09:07:32 +0000";
layers = (
{
layerId = "0B1DFD06-3317-40CA-B510-4969A0718C16";
paths = (
{
closed = 1;
nodes = (
"276 644 OFFCURVE",
"243 614 OFFCURVE",
"218 577 CURVE SMOOTH",
"195 540 OFFCURVE",
"177 498 OFFCURVE",
"168 451 CURVE",
"152 451 LINE SMOOTH",
"132 451 OFFCURVE",
"115 453 OFFCURVE",
"100 457 CURVE",
"86 462 OFFCURVE",
"76 469 OFFCURVE",
"72 479 CURVE",
"67 489 OFFCURVE",
"65 497 OFFCURVE",
"65 502 CURVE SMOOTH",
"65 513 OFFCURVE",
"69 523 OFFCURVE",
"77 530 CURVE",
"86 539 OFFCURVE",
"95 544 OFFCURVE",
"104 547 CURVE",
"110 550 OFFCURVE",
"120 552 OFFCURVE",
"132 552 CURVE SMOOTH",
"141 552 OFFCURVE",
"145 550 OFFCURVE",
"154 549 CURVE",
"160 545 OFFCURVE",
"167 547 OFFCURVE",
"172 543 CURVE",
"172 550 LINE",
"151 562 OFFCURVE",
"130 567 OFFCURVE",
"109 567 CURVE SMOOTH",
"95 567 OFFCURVE",
"82 564 OFFCURVE",
"69 559 CURVE",
"56 555 OFFCURVE",
"46 549 OFFCURVE",
"40 542 CURVE",
"31 533 OFFCURVE",
"27 528 OFFCURVE",
"24 522 CURVE SMOOTH",
"20 515 OFFCURVE",
"19 509 OFFCURVE",
"19 503 CURVE SMOOTH",
"19 494 OFFCURVE",
"22 487 OFFCURVE",
"27 475 CURVE",
"36 464 OFFCURVE",
"49 454 OFFCURVE",
"66 447 CURVE SMOOTH",
"85 439 OFFCURVE",
"106 436 OFFCURVE",
"130 436 CURVE SMOOTH",
"142 436 LINE SMOOTH",
"149 436 OFFCURVE",
"157 437 OFFCURVE",
"168 439 CURVE",
"170 431 OFFCURVE",
"168 423 OFFCURVE",
"172 409 CURVE",
"173 394 OFFCURVE",
"177 383 OFFCURVE",
"181 376 CURVE",
"185 366 OFFCURVE",
"188 357 OFFCURVE",
"195 351 CURVE",
"200 344 OFFCURVE",
"206 337 OFFCURVE",
"215 328 CURVE",
"193 371 LINE",
"187 387 OFFCURVE",
"183 408 OFFCURVE",
"183 439 CURVE",
"226 446 OFFCURVE",
"267 461 OFFCURVE",
"308 484 CURVE SMOOTH",
"351 508 OFFCURVE",
"391 535 OFFCURVE",
"428 567 CURVE",
"432 564 LINE",
"398 494 OFFCURVE",
"366 434 OFFCURVE",
"336 376 CURVE SMOOTH",
"306 317 OFFCURVE",
"271 256 OFFCURVE",
"232 190 CURVE SMOOTH",
"193 121 OFFCURVE",
"155 60 OFFCURVE",
"116 0 CURVE",
"135 0 OFFCURVE",
"155 0 OFFCURVE",
"176 1 CURVE SMOOTH",
"231 5 LINE",
"242 71 OFFCURVE",
"262 130 OFFCURVE",
"288 181 CURVE SMOOTH",
"316 232 OFFCURVE",
"348 273 OFFCURVE",
"384 305 CURVE SMOOTH",
"423 336 OFFCURVE",
"463 351 OFFCURVE",
"507 351 CURVE SMOOTH",
"523 351 LINE SMOOTH",
"534 351 OFFCURVE",
"544 344 OFFCURVE",
"550 332 CURVE",
"557 321 OFFCURVE",
"562 313 OFFCURVE",
"570 310 CURVE",
"577 316 OFFCURVE",
"582 322 OFFCURVE",
"585 328 CURVE",
"589 333 OFFCURVE",
"592 343 OFFCURVE",
"592 359 CURVE SMOOTH",
"592 369 OFFCURVE",
"588 379 OFFCURVE",
"582 388 CURVE",
"575 394 OFFCURVE",
"565 401 OFFCURVE",
"552 406 CURVE",
"538 409 OFFCURVE",
"524 412 OFFCURVE",
"510 412 CURVE SMOOTH",
"477 412 OFFCURVE",
"448 402 OFFCURVE",
"427 381 CURVE",
"403 361 OFFCURVE",
"373 328 OFFCURVE",
"336 282 CURVE",
"333 286 LINE",
"337 292 OFFCURVE",
"356 342 OFFCURVE",
"396 432 CURVE SMOOTH",
"434 524 OFFCURVE",
"459 588 OFFCURVE",
"469 624 CURVE",
"432 584 OFFCURVE",
"396 552 OFFCURVE",
"361 527 CURVE SMOOTH",
"326 502 OFFCURVE",
"295 484 OFFCURVE",
"267 474 CURVE SMOOTH",
"212 454 LINE SMOOTH",
"205 452 OFFCURVE",
"195 451 OFFCURVE",
"183 451 CURVE",
"200 527 OFFCURVE",
"228 577 OFFCURVE",
"270 603 CURVE",
"313 628 OFFCURVE",
"364 641 OFFCURVE",
"434 641 CURVE SMOOTH",
"456 641 OFFCURVE",
"489 640 OFFCURVE",
"538 636 CURVE SMOOTH",
"585 634 OFFCURVE",
"620 633 OFFCURVE",
"644 633 CURVE SMOOTH",
"695 633 OFFCURVE",
"738 638 OFFCURVE",
"774 649 CURVE",
"812 659 OFFCURVE",
"845 678 OFFCURVE",
"874 706 CURVE",
"852 695 OFFCURVE",
"831 688 OFFCURVE",
"807 684 CURVE",
"786 679 OFFCURVE",
"763 676 OFFCURVE",
"736 676 CURVE SMOOTH",
"716 676 OFFCURVE",
"675 680 OFFCURVE",
"612 689 CURVE SMOOTH",
"548 698 OFFCURVE",
"503 701 OFFCURVE",
"473 701 CURVE SMOOTH",
"442 701 OFFCURVE",
"414 699 OFFCURVE",
"391 693 CURVE",
"366 688 OFFCURVE",
"341 679 OFFCURVE",
"316 666 CURVE"
);
}
);
width = 607;
}
);
note = F;
unicode = 0046;
},
{
glyphname = G;
lastChange = "2017-12-19 09:07:32 +0000";
layers = (
{
layerId = "0B1DFD06-3317-40CA-B510-4969A0718C16";
paths = (
{
closed = 1;
nodes = (
"631 700 OFFCURVE",
"589 705 OFFCURVE",
"548 705 CURVE SMOOTH",
"479 705 OFFCURVE",
"418 690 OFFCURVE",
"364 660 CURVE SMOOTH",
"310 629 OFFCURVE",
"270 599 OFFCURVE",
"243 570 CURVE SMOOTH",
"185 503 LINE SMOOTH",
"172 489 OFFCURVE",
"162 475 OFFCURVE",
"155 462 CURVE",
"131 466 OFFCURVE",
"112 467 OFFCURVE",
"99 472 CURVE SMOOTH",
"85 477 OFFCURVE",
"77 484 OFFCURVE",
"76 493 CURVE SMOOTH",
"75 502 OFFCURVE",
"74 508 OFFCURVE",
"74 513 CURVE SMOOTH",
"74 529 OFFCURVE",
"79 540 OFFCURVE",
"90 549 CURVE",
"100 558 OFFCURVE",
"114 563 OFFCURVE",
"132 563 CURVE SMOOTH",
"144 563 OFFCURVE",
"154 564 OFFCURVE",
"162 560 CURVE",
"172 557 OFFCURVE",
"183 555 OFFCURVE",
"195 550 CURVE",
"182 560 OFFCURVE",
"170 568 OFFCURVE",
"157 573 CURVE SMOOTH",
"145 578 OFFCURVE",
"132 580 OFFCURVE",
"119 580 CURVE SMOOTH",
"110 580 OFFCURVE",
"99 579 OFFCURVE",
"86 577 CURVE",
"72 573 OFFCURVE",
"62 569 OFFCURVE",
"52 564 CURVE",
"41 558 OFFCURVE",
"35 552 OFFCURVE",
"31 543 CURVE",
"27 537 OFFCURVE",
"26 529 OFFCURVE",
"26 520 CURVE SMOOTH",
"26 505 OFFCURVE",
"32 492 OFFCURVE",
"46 479 CURVE",
"62 466 OFFCURVE",
"76 457 OFFCURVE",
"87 453 CURVE SMOOTH",
"101 448 OFFCURVE",
"120 446 OFFCURVE",
"145 446 CURVE",
"124 417 OFFCURVE",
"107 387 OFFCURVE",
"95 354 CURVE",
"84 319 OFFCURVE",
"77 286 OFFCURVE",
"77 252 CURVE SMOOTH",
"77 236 OFFCURVE",
"79 215 OFFCURVE",
"84 186 CURVE SMOOTH",
"89 157 OFFCURVE",
"102 129 OFFCURVE",
"124 101 CURVE SMOOTH",
"145 72 OFFCURVE",
"172 49 OFFCURVE",
"206 31 CURVE SMOOTH",
"246 11 OFFCURVE",
"288 1 OFFCURVE",
"333 1 CURVE SMOOTH",
"369 1 OFFCURVE",
"406 7 OFFCURVE",
"441 21 CURVE SMOOTH",
"477 35 OFFCURVE",
"514 56 OFFCURVE",
"554 86 CURVE SMOOTH",
"594 117 OFFCURVE",
"628 154 OFFCURVE",
"654 195 CURVE SMOOTH",
"681 237 OFFCURVE",
"695 282 OFFCURVE",
"695 331 CURVE SMOOTH",
"695 347 OFFCURVE",
"693 367 OFFCURVE",
"688 389 CURVE SMOOTH",
"683 411 OFFCURVE",
"673 431 OFFCURVE",
"659 449 CURVE",
"643 468 OFFCURVE",
"626 478 OFFCURVE",
"610 482 CURVE",
"593 487 OFFCURVE",
"578 489 OFFCURVE",
"565 489 CURVE SMOOTH",
"533 489 OFFCURVE",
"503 479 OFFCURVE",
"477 461 CURVE SMOOTH",
"449 441 OFFCURVE",
"421 416 OFFCURVE",
"391 384 CURVE",
"388 388 LINE",
"399 424 OFFCURVE",
"418 467 OFFCURVE",
"443 520 CURVE SMOOTH",
"469 574 OFFCURVE",
"484 607 OFFCURVE",
"489 618 CURVE",
"489 633 LINE",
"461 594 OFFCURVE",
"428 563 OFFCURVE",
"393 538 CURVE",
"357 514 OFFCURVE",
"323 497 OFFCURVE",
"291 484 CURVE SMOOTH",
"256 470 OFFCURVE",
"233 466 OFFCURVE",
"223 462 CURVE",
"187 457 LINE",
"211 497 OFFCURVE",
"237 533 OFFCURVE",
"271 568 CURVE SMOOTH",
"302 600 OFFCURVE",
"333 623 OFFCURVE",
"363 636 CURVE SMOOTH",
"392 650 OFFCURVE",
"413 655 OFFCURVE",
"429 659 CURVE",
"444 661 OFFCURVE",
"462 663 OFFCURVE",
"482 663 CURVE SMOOTH",
"497 663 OFFCURVE",
"523 660 OFFCURVE",
"562 656 CURVE SMOOTH",
"600 653 OFFCURVE",
"625 650 OFFCURVE",
"644 650 CURVE SMOOTH",
"669 650 OFFCURVE",
"693 654 OFFCURVE",
"714 661 CURVE SMOOTH",
"734 669 OFFCURVE",
"753 683 OFFCURVE",
"769 701 CURVE",
"733 691 LINE SMOOTH",
"719 688 OFFCURVE",
"710 686 OFFCURVE",
"700 686 CURVE SMOOTH",
"696 686 OFFCURVE",
"691 688 OFFCURVE",
"688 688 CURVE SMOOTH",
"683 688 OFFCURVE",
"679 689 OFFCURVE",
"675 690 CURVE"
);
},
{
closed = 1;
nodes = (
"202 157 LINE",
"202 152 LINE SMOOTH",
"202 147 OFFCURVE",
"203 145 OFFCURVE",
"206 144 CURVE",
"218 140 LINE",
"302 144 LINE",
"312 187 OFFCURVE",
"324 227 OFFCURVE",
"341 266 CURVE SMOOTH",
"357 307 OFFCURVE",
"378 342 OFFCURVE",
"403 371 CURVE",
"427 401 OFFCURVE",
"458 423 OFFCURVE",
"497 437 CURVE",
"507 439 OFFCURVE",
"515 441 OFFCURVE",
"524 441 CURVE SMOOTH",
"545 441 OFFCURVE",
"565 433 OFFCURVE",
"584 417 CURVE SMOOTH",
"603 401 OFFCURVE",
"615 384 OFFCURVE",
"624 366 CURVE",
"631 347 OFFCURVE",
"635 327 OFFCURVE",
"635 307 CURVE SMOOTH",
"635 286 OFFCURVE",
"633 267 OFFCURVE",
"626 248 CURVE",
"622 231 OFFCURVE",
"609 205 OFFCURVE",
"590 170 CURVE",
"570 136 OFFCURVE",
"545 106 OFFCURVE",
"514 82 CURVE SMOOTH",
"482 56 OFFCURVE",
"443 44 OFFCURVE",
"399 44 CURVE SMOOTH",
"353 44 OFFCURVE",
"314 51 OFFCURVE",
"281 65 CURVE SMOOTH",
"247 79 OFFCURVE",
"221 100 OFFCURVE",
"200 129 CURVE SMOOTH",
"176 160 OFFCURVE",
"161 187 OFFCURVE",
"155 211 CURVE SMOOTH",
"147 236 OFFCURVE",
"144 263 OFFCURVE",
"144 292 CURVE SMOOTH",
"144 318 OFFCURVE",
"147 346 OFFCURVE",
"154 372 CURVE",
"162 398 OFFCURVE",
"168 422 OFFCURVE",
"182 446 CURVE",
"213 446 OFFCURVE",
"243 451 OFFCURVE",
"271 461 CURVE SMOOTH",
"297 470 OFFCURVE",
"324 484 OFFCURVE",
"351 500 CURVE",
"438 559 LINE"
);
}
);
width = 714;
}
);
note = G;
unicode = 0047;
},
{
glyphname = H;
lastChange = "2017-12-19 09:07:32 +0000";
layers = (
{
layerId = "0B1DFD06-3317-40CA-B510-4969A0718C16";
paths = (
{
closed = 1;
nodes = (
"353 684 OFFCURVE",
"310 668 OFFCURVE",
"271 639 CURVE SMOOTH",
"233 612 OFFCURVE",
"207 583 OFFCURVE",
"193 552 CURVE SMOOTH",
"180 522 OFFCURVE",
"173 500 OFFCURVE",
"170 487 CURVE",
"168 473 OFFCURVE",
"167 459 OFFCURVE",
"167 443 CURVE",
"140 443 LINE SMOOTH",
"125 443 OFFCURVE",
"111 444 OFFCURVE",
"99 447 CURVE",
"87 451 OFFCURVE",
"77 456 OFFCURVE",
"70 463 CURVE",
"64 472 OFFCURVE",
"60 482 OFFCURVE",
"60 490 CURVE SMOOTH",
"60 499 OFFCURVE",
"62 507 OFFCURVE",
"66 513 CURVE",
"70 520 OFFCURVE",
"76 527 OFFCURVE",
"84 530 CURVE",
"94 534 OFFCURVE",
"107 537 OFFCURVE",
"126 537 CURVE SMOOTH",
"165 537 LINE",
"146 547 OFFCURVE",
"125 552 OFFCURVE",
"104 552 CURVE SMOOTH",
"90 552 OFFCURVE",
"75 549 OFFCURVE",
"61 545 CURVE",
"35 528 LINE SMOOTH",
"24 520 OFFCURVE",
"17 510 OFFCURVE",
"17 498 CURVE SMOOTH",
"17 494 OFFCURVE",
"17 490 OFFCURVE",
"19 487 CURVE SMOOTH",
"27 461 OFFCURVE",
"44 444 OFFCURVE",
"70 437 CURVE SMOOTH",
"92 431 OFFCURVE",
"125 428 OFFCURVE",
"168 428 CURVE",
"173 393 LINE",
"175 379 OFFCURVE",
"177 369 OFFCURVE",
"181 361 CURVE",
"185 351 OFFCURVE",
"187 343 OFFCURVE",
"191 338 CURVE",
"205 318 LINE",
"205 318 OFFCURVE",
"202 323 OFFCURVE",
"198 334 CURVE SMOOTH",
"187 369 LINE",
"180 397 LINE",
"178 401 OFFCURVE",
"178 411 OFFCURVE",
"178 428 CURVE",
"216 433 OFFCURVE",
"255 447 OFFCURVE",
"295 468 CURVE SMOOTH",
"333 489 OFFCURVE",
"372 514 OFFCURVE",
"408 544 CURVE",
"412 542 LINE",
"381 482 OFFCURVE",
"347 421 OFFCURVE",
"313 357 CURVE SMOOTH",
"280 293 OFFCURVE",
"246 233 OFFCURVE",
"212 178 CURVE SMOOTH",
"180 124 OFFCURVE",
"145 70 OFFCURVE",
"106 19 CURVE",
"106 0 LINE",
"116 -2 OFFCURVE",
"126 -4 OFFCURVE",
"137 -4 CURVE SMOOTH",
"146 -4 OFFCURVE",
"157 -2 OFFCURVE",
"173 -1 CURVE SMOOTH",
"190 0 OFFCURVE",
"200 1 OFFCURVE",
"205 1 CURVE SMOOTH",
"212 1 LINE SMOOTH",
"216 1 OFFCURVE",
"217 0 OFFCURVE",
"221 0 CURVE",
"221 24 OFFCURVE",
"223 44 OFFCURVE",
"230 62 CURVE",
"235 81 OFFCURVE",
"246 107 OFFCURVE",
"261 142 CURVE",
"319 265 LINE SMOOTH",
"343 311 OFFCURVE",
"371 351 OFFCURVE",
"402 382 CURVE SMOOTH",
"432 413 OFFCURVE",
"462 432 OFFCURVE",
"493 437 CURVE SMOOTH",
"522 442 OFFCURVE",
"540 444 OFFCURVE",
"549 444 CURVE SMOOTH",
"560 444 OFFCURVE",
"573 442 OFFCURVE",
"587 438 CURVE SMOOTH",
"599 434 OFFCURVE",
"612 427 OFFCURVE",
"624 416 CURVE",
"638 404 OFFCURVE",
"646 392 OFFCURVE",
"653 378 CURVE",
"659 362 OFFCURVE",
"663 346 OFFCURVE",
"663 329 CURVE SMOOTH",
"663 321 OFFCURVE",
"660 298 OFFCURVE",
"656 260 CURVE SMOOTH",
"653 221 OFFCURVE",
"633 176 OFFCURVE",
"599 125 CURVE SMOOTH",
"564 74 OFFCURVE",
"523 40 OFFCURVE",
"477 25 CURVE SMOOTH",
"428 10 OFFCURVE",
"396 1 OFFCURVE",
"372 1 CURVE SMOOTH",
"356 1 OFFCURVE",
"341 4 OFFCURVE",
"324 10 CURVE SMOOTH",
"311 15 OFFCURVE",
"297 22 OFFCURVE",
"285 34 CURVE",
"285 22 OFFCURVE",
"290 15 OFFCURVE",
"301 10 CURVE",
"312 1 OFFCURVE",
"326 -1 OFFCURVE",
"342 -5 CURVE",
"356 -9 OFFCURVE",
"372 -10 OFFCURVE",
"391 -10 CURVE SMOOTH",
"421 -10 OFFCURVE",
"449 -6 OFFCURVE",
"478 2 CURVE SMOOTH",
"507 11 OFFCURVE",
"534 22 OFFCURVE",
"560 36 CURVE",
"614 72 OFFCURVE",
"658 115 OFFCURVE",
"691 166 CURVE SMOOTH",
"725 215 OFFCURVE",
"743 267 OFFCURVE",
"743 323 CURVE SMOOTH",
"743 344 OFFCURVE",
"740 366 OFFCURVE",
"734 388 CURVE",
"729 409 OFFCURVE",
"720 427 OFFCURVE",
"706 442 CURVE",
"693 456 OFFCURVE",
"674 468 OFFCURVE",
"653 479 CURVE SMOOTH",
"631 490 OFFCURVE",
"610 495 OFFCURVE",
"588 495 CURVE SMOOTH",
"554 495 OFFCURVE",
"522 485 OFFCURVE",
"490 467 CURVE SMOOTH",
"458 447 OFFCURVE",
"432 428 OFFCURVE",
"411 409 CURVE",
"366 366 LINE",
"356 354 OFFCURVE",
"348 347 OFFCURVE",
"342 342 CURVE",
"351 366 OFFCURVE",
"366 401 OFFCURVE",
"389 449 CURVE SMOOTH",
"413 498 OFFCURVE",
"428 530 OFFCURVE",
"434 545 CURVE",
"443 562 OFFCURVE",
"449 584 OFFCURVE",
"458 613 CURVE",
"453 613 LINE",
"417 568 OFFCURVE",
"377 532 OFFCURVE",
"331 505 CURVE SMOOTH",
"286 479 OFFCURVE",
"235 458 OFFCURVE",
"177 444 CURVE",
"177 463 OFFCURVE",
"178 479 OFFCURVE",
"181 490 CURVE SMOOTH",
"183 502 OFFCURVE",
"192 523 OFFCURVE",
"207 552 CURVE SMOOTH",
"222 582 OFFCURVE",
"247 604 OFFCURVE",
"283 620 CURVE SMOOTH",
"317 636 OFFCURVE",
"361 644 OFFCURVE",
"414 644 CURVE SMOOTH",
"439 644 OFFCURVE",
"478 641 OFFCURVE",
"530 636 CURVE SMOOTH",
"584 631 OFFCURVE",
"622 628 OFFCURVE",
"646 628 CURVE SMOOTH",
"669 628 OFFCURVE",
"690 629 OFFCURVE",
"709 631 CURVE SMOOTH",
"728 634 OFFCURVE",
"745 638 OFFCURVE",
"761 644 CURVE",
"780 649 OFFCURVE",
"795 656 OFFCURVE",
"811 665 CURVE SMOOTH",
"826 674 OFFCURVE",
"837 685 OFFCURVE",
"845 699 CURVE",
"821 688 OFFCURVE",
"800 681 OFFCURVE",
"784 678 CURVE",
"764 674 OFFCURVE",
"741 673 OFFCURVE",
"716 673 CURVE SMOOTH",
"694 673 OFFCURVE",
"653 676 OFFCURVE",
"593 684 CURVE SMOOTH",
"533 691 OFFCURVE",
"492 695 OFFCURVE",
"468 695 CURVE SMOOTH",
"444 695 OFFCURVE",
"422 694 OFFCURVE",
"402 690 CURVE"
);
}
);
width = 748;
}
);
note = H;
unicode = 0048;
},
{
glyphname = I;
lastChange = "2017-12-19 09:07:32 +0000";
layers = (
{
layerId = "0B1DFD06-3317-40CA-B510-4969A0718C16";
paths = (
{
closed = 1;
nodes = (
"514 580 LINE SMOOTH",
"478 559 OFFCURVE",
"441 548 OFFCURVE",
"404 548 CURVE SMOOTH",
"389 548 OFFCURVE",
"376 549 OFFCURVE",
"362 553 CURVE",
"346 557 OFFCURVE",
"336 562 OFFCURVE",
"329 567 CURVE",
"323 570 OFFCURVE",
"318 577 OFFCURVE",
"316 585 CURVE",
"313 593 OFFCURVE",
"312 599 OFFCURVE",
"312 603 CURVE SMOOTH",
"312 618 OFFCURVE",
"317 630 OFFCURVE",
"328 639 CURVE",
"338 648 OFFCURVE",
"347 653 OFFCURVE",
"354 654 CURVE",
"362 656 OFFCURVE",
"371 658 OFFCURVE",
"379 658 CURVE SMOOTH",
"396 658 OFFCURVE",
"411 655 OFFCURVE",
"426 649 CURVE",
"442 644 OFFCURVE",
"456 638 OFFCURVE",
"469 631 CURVE",
"461 641 LINE",
"457 646 OFFCURVE",
"452 651 OFFCURVE",
"443 660 CURVE SMOOTH",
"434 669 OFFCURVE",
"423 675 OFFCURVE",
"409 680 CURVE",
"393 685 OFFCURVE",
"378 689 OFFCURVE",
"362 689 CURVE SMOOTH",
"341 689 OFFCURVE",
"318 684 OFFCURVE",
"295 673 CURVE",
"280 666 OFFCURVE",
"268 658 OFFCURVE",
"262 649 CURVE",
"253 640 OFFCURVE",
"250 628 OFFCURVE",
"250 613 CURVE SMOOTH",
"250 594 OFFCURVE",
"257 577 OFFCURVE",
"272 562 CURVE SMOOTH",
"287 547 OFFCURVE",
"302 537 OFFCURVE",
"316 532 CURVE",
"329 525 OFFCURVE",
"347 523 OFFCURVE",
"366 523 CURVE SMOOTH",
"384 523 OFFCURVE",
"402 525 OFFCURVE",
"419 530 CURVE",
"439 534 OFFCURVE",
"458 539 OFFCURVE",
"478 548 CURVE SMOOTH",
"498 557 OFFCURVE",
"520 567 OFFCURVE",
"545 582 CURVE",
"570 595 OFFCURVE",
"588 605 OFFCURVE",
"602 609 CURVE",
"572 573 OFFCURVE",
"548 537 OFFCURVE",
"528 502 CURVE SMOOTH",
"508 467 OFFCURVE",
"489 433 OFFCURVE",
"474 399 CURVE SMOOTH",
"458 366 OFFCURVE",
"436 317 OFFCURVE",
"407 252 CURVE",
"383 262 OFFCURVE",
"358 271 OFFCURVE",
"332 276 CURVE",
"306 282 OFFCURVE",
"278 285 OFFCURVE",
"252 285 CURVE SMOOTH",
"218 285 OFFCURVE",
"185 280 OFFCURVE",
"152 270 CURVE SMOOTH",
"120 260 OFFCURVE",
"91 245 OFFCURVE",
"66 225 CURVE SMOOTH",
"42 205 OFFCURVE",
"22 185 OFFCURVE",
"9 165 CURVE SMOOTH",
"-5 144 OFFCURVE",
"-11 121 OFFCURVE",
"-11 99 CURVE SMOOTH",
"-11 92 OFFCURVE",
"-9 79 OFFCURVE",
"-5 57 CURVE SMOOTH",
"-1 39 OFFCURVE",
"10 24 OFFCURVE",
"30 10 CURVE SMOOTH",
"49 -4 OFFCURVE",
"74 -10 OFFCURVE",
"102 -10 CURVE SMOOTH",
"183 -10 OFFCURVE",
"253 7 OFFCURVE",
"312 42 CURVE SMOOTH",
"372 77 OFFCURVE",
"419 129 OFFCURVE",
"454 196 CURVE",
"468 185 OFFCURVE",
"478 173 OFFCURVE",
"487 163 CURVE",
"495 151 OFFCURVE",
"503 135 OFFCURVE",
"512 116 CURVE",
"508 135 OFFCURVE",
"503 151 OFFCURVE",
"497 162 CURVE",
"488 173 OFFCURVE",
"479 188 OFFCURVE",
"461 208 CURVE",
"475 242 OFFCURVE",
"494 297 OFFCURVE",
"519 378 CURVE SMOOTH",
"543 459 OFFCURVE",
"569 524 OFFCURVE",
"595 573 CURVE SMOOTH",
"622 622 OFFCURVE",
"663 661 OFFCURVE",
"716 691 CURVE",
"696 685 OFFCURVE",
"679 678 OFFCURVE",
"663 669 CURVE SMOOTH",
"649 661 OFFCURVE",
"630 650 OFFCURVE",
"607 635 CURVE SMOOTH"
);
},
{
closed = 1;
nodes = (
"263 268 OFFCURVE",
"276 270 OFFCURVE",
"287 270 CURVE SMOOTH",
"307 270 OFFCURVE",
"326 267 OFFCURVE",
"342 261 CURVE",
"361 255 OFFCURVE",
"379 246 OFFCURVE",
"398 236 CURVE",
"379 197 OFFCURVE",
"363 163 OFFCURVE",
"347 137 CURVE",
"331 109 OFFCURVE",
"311 86 OFFCURVE",
"285 62 CURVE",
"261 39 OFFCURVE",
"235 24 OFFCURVE",
"208 16 CURVE",
"183 7 OFFCURVE",
"168 4 OFFCURVE",
"160 2 CURVE SMOOTH",
"151 1 OFFCURVE",
"144 0 OFFCURVE",
"132 0 CURVE SMOOTH",
"111 0 OFFCURVE",
"94 5 OFFCURVE",
"80 16 CURVE SMOOTH",
"66 27 OFFCURVE",
"56 37 OFFCURVE",
"52 47 CURVE",
"49 56 OFFCURVE",
"47 67 OFFCURVE",
"47 81 CURVE SMOOTH",
"47 91 OFFCURVE",
"49 109 OFFCURVE",
"57 137 CURVE",
"64 163 OFFCURVE",
"84 190 OFFCURVE",
"119 216 CURVE",
"155 241 OFFCURVE",
"198 257 OFFCURVE",
"250 266 CURVE SMOOTH"
);
}
);
width = 522;
}
);
note = I;
unicode = 0049;
},
{
glyphname = J;
lastChange = "2017-12-19 09:07:32 +0000";
layers = (
{
layerId = "0B1DFD06-3317-40CA-B510-4969A0718C16";
paths = (
{
closed = 1;
nodes = (
"276 689 OFFCURVE",
"261 684 OFFCURVE",
"246 675 CURVE",
"232 666 OFFCURVE",
"222 658 OFFCURVE",
"217 648 CURVE",
"213 636 OFFCURVE",
"211 629 OFFCURVE",
"211 624 CURVE SMOOTH",
"211 614 OFFCURVE",
"213 605 OFFCURVE",
"220 597 CURVE",
"226 587 OFFCURVE",
"233 578 OFFCURVE",
"242 570 CURVE",
"258 559 OFFCURVE",
"276 553 OFFCURVE",
"292 548 CURVE",
"311 544 OFFCURVE",
"329 542 OFFCURVE",
"348 542 CURVE SMOOTH",
"384 542 OFFCURVE",
"421 549 OFFCURVE",
"457 564 CURVE SMOOTH",
"493 579 OFFCURVE",
"528 598 OFFCURVE",
"560 622 CURVE",
"564 619 LINE",
"519 565 OFFCURVE",
"479 512 OFFCURVE",
"446 453 CURVE SMOOTH",
"412 394 OFFCURVE",
"386 339 OFFCURVE",
"364 288 CURVE SMOOTH",
"343 237 OFFCURVE",
"313 161 OFFCURVE",
"275 57 CURVE",
"251 20 LINE",
"212 39 OFFCURVE",
"166 49 OFFCURVE",
"116 49 CURVE SMOOTH",
"91 49 OFFCURVE",
"70 47 OFFCURVE",
"46 42 CURVE SMOOTH",
"22 37 OFFCURVE",
"-1 27 OFFCURVE",
"-27 12 CURVE",
"-56 -1 OFFCURVE",
"-77 -22 OFFCURVE",
"-101 -47 CURVE",
"-122 -74 OFFCURVE",
"-134 -104 OFFCURVE",
"-134 -137 CURVE SMOOTH",
"-134 -146 OFFCURVE",
"-132 -152 OFFCURVE",
"-131 -161 CURVE",
"-122 -176 OFFCURVE",
"-112 -188 OFFCURVE",
"-101 -202 CURVE",
"-90 -212 OFFCURVE",
"-75 -220 OFFCURVE",
"-59 -226 CURVE",
"-42 -228 OFFCURVE",
"-26 -230 OFFCURVE",
"-10 -230 CURVE SMOOTH",
"50 -230 OFFCURVE",
"106 -212 OFFCURVE",
"160 -176 CURVE SMOOTH",
"213 -140 OFFCURVE",
"262 -92 OFFCURVE",
"308 -34 CURVE",
"316 -37 OFFCURVE",
"346 -72 OFFCURVE",
"346 -71 CURVE",
"344 -62 OFFCURVE",
"338 -51 OFFCURVE",
"329 -41 CURVE",
"326 -35 OFFCURVE",
"321 -30 OFFCURVE",
"316 -24 CURVE",
"321 -17 OFFCURVE",
"323 -11 OFFCURVE",
"327 -7 CURVE",
"331 -1 LINE",
"349 44 OFFCURVE",
"376 117 OFFCURVE",
"406 221 CURVE SMOOTH",
"437 324 OFFCURVE",
"466 407 OFFCURVE",
"494 470 CURVE SMOOTH",
"523 534 OFFCURVE",
"550 580 OFFCURVE",
"578 608 CURVE SMOOTH",
"605 636 OFFCURVE",
"624 655 OFFCURVE",
"635 664 CURVE SMOOTH",
"646 673 OFFCURVE",
"653 680 OFFCURVE",
"653 686 CURVE",
"649 688 OFFCURVE",
"646 689 OFFCURVE",
"645 689 CURVE SMOOTH",
"639 689 OFFCURVE",
"522 609 OFFCURVE",
"508 602 CURVE SMOOTH",
"489 592 OFFCURVE",
"468 580 OFFCURVE",
"439 572 CURVE SMOOTH",
"412 563 OFFCURVE",
"384 558 OFFCURVE",
"357 558 CURVE",
"334 562 OFFCURVE",
"316 565 OFFCURVE",
"302 572 CURVE",
"290 575 OFFCURVE",
"281 583 OFFCURVE",
"277 593 CURVE",
"273 602 OFFCURVE",
"272 609 OFFCURVE",
"272 613 CURVE SMOOTH",
"272 620 OFFCURVE",
"275 626 OFFCURVE",
"281 633 CURVE",
"293 650 LINE",
"307 660 OFFCURVE",
"323 665 OFFCURVE",
"342 665 CURVE SMOOTH",
"358 665 OFFCURVE",
"374 661 OFFCURVE",
"388 655 CURVE",
"404 649 OFFCURVE",
"419 640 OFFCURVE",
"436 630 CURVE",
"412 651 OFFCURVE",
"389 666 OFFCURVE",
"367 676 CURVE",
"346 688 OFFCURVE",
"321 693 OFFCURVE",
"292 693 CURVE"
);
},
{
closed = 1;
nodes = (
"41 11 OFFCURVE",
"60 17 OFFCURVE",
"81 24 CURVE",
"102 29 OFFCURVE",
"124 32 OFFCURVE",
"145 32 CURVE SMOOTH",
"163 32 OFFCURVE",
"181 30 OFFCURVE",
"200 26 CURVE",
"218 21 OFFCURVE",
"233 15 OFFCURVE",
"245 6 CURVE",
"221 -34 OFFCURVE",
"197 -70 OFFCURVE",
"173 -102 CURVE SMOOTH",
"149 -135 OFFCURVE",
"120 -161 OFFCURVE",
"89 -182 CURVE SMOOTH",
"57 -205 OFFCURVE",
"22 -216 OFFCURVE",
"-16 -216 CURVE SMOOTH",
"-25 -216 OFFCURVE",
"-35 -216 OFFCURVE",
"-45 -215 CURVE",
"-55 -212 OFFCURVE",
"-62 -207 OFFCURVE",
"-69 -198 CURVE",
"-75 -188 OFFCURVE",
"-80 -178 OFFCURVE",
"-84 -167 CURVE",
"-84 -131 OFFCURVE",
"-74 -99 OFFCURVE",
"-52 -70 CURVE SMOOTH",
"-31 -40 OFFCURVE",
"-5 -16 OFFCURVE",
"25 0 CURVE"
);
}
);
width = 458;
}
);
note = J;
unicode = 004A;
},
{
glyphname = K;
lastChange = "2017-12-19 09:07:32 +0000";
layers = (
{
layerId = "0B1DFD06-3317-40CA-B510-4969A0718C16";
paths = (
{
closed = 1;
nodes = (
"514 562 OFFCURVE",
"448 490 OFFCURVE",
"392 418 CURVE SMOOTH",
"336 344 OFFCURVE",
"281 263 OFFCURVE",
"227 172 CURVE",
"223 172 LINE",
"257 257 OFFCURVE",
"290 342 OFFCURVE",
"328 428 CURVE SMOOTH",
"367 517 OFFCURVE",
"404 602 OFFCURVE",
"448 691 CURVE",
"436 694 LINE",
"419 678 OFFCURVE",
"396 651 OFFCURVE",
"364 613 CURVE",
"334 583 OFFCURVE",
"308 564 OFFCURVE",
"285 557 CURVE SMOOTH",
"235 542 LINE",
"225 538 OFFCURVE",
"215 539 OFFCURVE",
"205 539 CURVE SMOOTH",
"191 539 OFFCURVE",
"180 542 OFFCURVE",
"171 547 CURVE",
"161 553 OFFCURVE",
"156 559 OFFCURVE",
"155 565 CURVE",
"152 573 OFFCURVE",
"151 579 OFFCURVE",
"151 584 CURVE SMOOTH",
"151 595 OFFCURVE",
"156 604 OFFCURVE",
"165 612 CURVE",
"175 619 OFFCURVE",
"185 624 OFFCURVE",
"195 626 CURVE SMOOTH",
"206 629 OFFCURVE",
"218 630 OFFCURVE",
"233 630 CURVE SMOOTH",
"242 630 OFFCURVE",
"250 631 OFFCURVE",
"263 628 CURVE",
"300 624 LINE",
"286 633 OFFCURVE",
"270 641 OFFCURVE",
"251 648 CURVE SMOOTH",
"235 653 OFFCURVE",
"220 656 OFFCURVE",
"201 656 CURVE SMOOTH",
"192 656 OFFCURVE",
"181 655 OFFCURVE",
"165 653 CURVE SMOOTH",
"151 650 OFFCURVE",
"136 644 OFFCURVE",
"120 635 CURVE",
"106 625 OFFCURVE",
"97 612 OFFCURVE",
"95 594 CURVE",
"95 574 OFFCURVE",
"101 559 OFFCURVE",
"114 549 CURVE",
"127 539 OFFCURVE",
"140 533 OFFCURVE",
"151 529 CURVE",
"165 525 OFFCURVE",
"178 523 OFFCURVE",
"191 523 CURVE SMOOTH",
"226 523 OFFCURVE",
"262 533 OFFCURVE",
"298 554 CURVE",
"336 574 OFFCURVE",
"367 598 OFFCURVE",
"391 624 CURVE",
"359 560 OFFCURVE",
"327 497 OFFCURVE",
"291 433 CURVE SMOOTH",
"256 369 OFFCURVE",
"215 301 OFFCURVE",
"168 222 CURVE SMOOTH",
"122 144 OFFCURVE",
"79 74 OFFCURVE",
"39 4 CURVE",
"50 0 OFFCURVE",
"60 -1 OFFCURVE",
"69 -2 CURVE",
"77 -2 OFFCURVE",
"87 -4 OFFCURVE",
"101 -4 CURVE",
"110 -2 OFFCURVE",
"119 -2 OFFCURVE",
"127 -2 CURVE SMOOTH",
"152 -2 LINE",
"183 62 OFFCURVE",
"218 127 OFFCURVE",
"258 196 CURVE SMOOTH",
"300 265 OFFCURVE",
"341 328 OFFCURVE",
"386 389 CURVE",
"397 341 OFFCURVE",
"407 293 OFFCURVE",
"421 245 CURVE",
"432 196 OFFCURVE",
"448 145 OFFCURVE",
"468 89 CURVE SMOOTH",
"489 34 OFFCURVE",
"520 -37 OFFCURVE",
"562 -124 CURVE",
"542 -29 OFFCURVE",
"524 52 OFFCURVE",
"513 119 CURVE SMOOTH",
"500 187 OFFCURVE",
"490 248 OFFCURVE",
"483 303 CURVE SMOOTH",
"474 359 OFFCURVE",
"468 416 OFFCURVE",
"459 470 CURVE",
"478 494 OFFCURVE",
"498 518 OFFCURVE",
"518 540 CURVE SMOOTH",
"538 564 OFFCURVE",
"557 582 OFFCURVE",
"577 600 CURVE SMOOTH",
"597 619 OFFCURVE",
"618 633 OFFCURVE",
"639 646 CURVE SMOOTH",
"663 661 OFFCURVE",
"680 671 OFFCURVE",
"691 675 CURVE",
"705 681 OFFCURVE",
"716 684 OFFCURVE",
"725 684 CURVE SMOOTH",
"736 684 OFFCURVE",
"746 680 OFFCURVE",
"758 675 CURVE SMOOTH",
"766 671 OFFCURVE",
"775 664 OFFCURVE",
"784 655 CURVE",
"791 646 OFFCURVE",
"795 639 OFFCURVE",
"795 635 CURVE SMOOTH",
"795 629 OFFCURVE",
"794 624 OFFCURVE",
"791 619 CURVE SMOOTH",
"789 614 OFFCURVE",
"784 607 OFFCURVE",
"776 597 CURVE",
"770 587 OFFCURVE",
"760 579 OFFCURVE",
"746 574 CURVE",
"733 570 OFFCURVE",
"716 568 OFFCURVE",
"700 568 CURVE SMOOTH",
"689 568 OFFCURVE",
"678 567 OFFCURVE",
"666 570 CURVE",
"655 572 OFFCURVE",
"644 574 OFFCURVE",
"633 578 CURVE",
"633 572 LINE",
"646 567 OFFCURVE",
"659 562 OFFCURVE",
"674 558 CURVE",
"688 553 OFFCURVE",
"701 550 OFFCURVE",
"715 550 CURVE SMOOTH",
"746 550 OFFCURVE",
"774 554 OFFCURVE",
"797 563 CURVE SMOOTH",
"820 572 OFFCURVE",
"835 583 OFFCURVE",
"844 598 CURVE",
"852 612 OFFCURVE",
"856 623 OFFCURVE",
"856 631 CURVE SMOOTH",
"856 650 OFFCURVE",
"846 668 OFFCURVE",
"827 683 CURVE",
"806 696 OFFCURVE",
"781 704 OFFCURVE",
"751 704 CURVE SMOOTH",
"724 704 OFFCURVE",
"696 698 OFFCURVE",
"669 684 CURVE SMOOTH",
"640 670 OFFCURVE",
"614 653 OFFCURVE",
"590 631 CURVE SMOOTH"
);
}
);
width = 659;
}
);
note = K;
unicode = 004B;
},
{
glyphname = L;
lastChange = "2017-12-19 09:07:32 +0000";
layers = (
{
layerId = "0B1DFD06-3317-40CA-B510-4969A0718C16";
paths = (
{
closed = 1;
nodes = (
"663 695 OFFCURVE",
"605 671 OFFCURVE",
"554 629 CURVE SMOOTH",
"503 588 OFFCURVE",
"461 537 OFFCURVE",
"427 474 CURVE",
"407 489 OFFCURVE",
"393 500 OFFCURVE",
"384 509 CURVE SMOOTH",
"376 518 OFFCURVE",
"369 530 OFFCURVE",
"361 545 CURVE",
"362 527 OFFCURVE",
"367 510 OFFCURVE",
"378 497 CURVE",
"387 483 OFFCURVE",
"401 469 OFFCURVE",
"419 457 CURVE",
"406 433 OFFCURVE",
"393 401 OFFCURVE",
"379 359 CURVE SMOOTH",
"366 321 OFFCURVE",
"353 286 OFFCURVE",
"342 257 CURVE SMOOTH",
"331 231 OFFCURVE",
"316 206 OFFCURVE",
"296 180 CURVE SMOOTH",
"277 155 OFFCURVE",
"257 134 OFFCURVE",
"236 116 CURVE",
"220 124 OFFCURVE",
"202 129 OFFCURVE",
"186 131 CURVE",
"170 135 OFFCURVE",
"152 137 OFFCURVE",
"136 137 CURVE SMOOTH",
"127 137 LINE SMOOTH",
"124 137 OFFCURVE",
"111 136 OFFCURVE",
"89 134 CURVE",
"67 130 OFFCURVE",
"45 129 OFFCURVE",
"24 120 CURVE",
"2 112 OFFCURVE",
"-11 102 OFFCURVE",
"-15 91 CURVE",
"-21 69 LINE",
"-21 57 LINE SMOOTH",
"-21 47 OFFCURVE",
"-20 39 OFFCURVE",
"-15 30 CURVE SMOOTH",
"-10 21 OFFCURVE",
"-1 14 OFFCURVE",
"12 9 CURVE SMOOTH",
"27 4 OFFCURVE",
"44 0 OFFCURVE",
"64 0 CURVE SMOOTH",
"91 0 OFFCURVE",
"119 7 OFFCURVE",
"145 21 CURVE",
"171 34 OFFCURVE",
"195 51 OFFCURVE",
"217 74 CURVE",
"222 72 OFFCURVE",
"243 60 OFFCURVE",
"287 39 CURVE SMOOTH",
"328 17 OFFCURVE",
"357 5 OFFCURVE",
"373 4 CURVE SMOOTH",
"388 2 OFFCURVE",
"399 1 OFFCURVE",
"406 1 CURVE SMOOTH",
"411 1 OFFCURVE",
"417 0 OFFCURVE",
"422 0 CURVE SMOOTH",
"463 0 OFFCURVE",
"502 7 OFFCURVE",
"535 22 CURVE SMOOTH",
"572 37 OFFCURVE",
"607 59 OFFCURVE",
"643 85 CURVE",
"641 87 OFFCURVE",
"641 91 OFFCURVE",
"641 95 CURVE",
"639 100 LINE",
"617 79 OFFCURVE",
"593 64 OFFCURVE",
"568 55 CURVE SMOOTH",
"542 46 OFFCURVE",
"515 41 OFFCURVE",
"487 41 CURVE SMOOTH",
"453 41 OFFCURVE",
"423 46 OFFCURVE",
"389 55 CURVE SMOOTH",
"356 65 OFFCURVE",
"322 76 OFFCURVE",
"283 95 CURVE",
"255 107 LINE",
"285 136 OFFCURVE",
"311 163 OFFCURVE",
"334 197 CURVE SMOOTH",
"358 231 OFFCURVE",
"379 268 OFFCURVE",
"403 310 CURVE SMOOTH",
"427 349 OFFCURVE",
"448 388 OFFCURVE",
"468 427 CURVE",
"514 412 OFFCURVE",
"562 404 OFFCURVE",
"610 404 CURVE SMOOTH",
"659 404 OFFCURVE",
"704 413 OFFCURVE",
"746 431 CURVE SMOOTH",
"787 448 OFFCURVE",
"819 470 OFFCURVE",
"839 497 CURVE SMOOTH",
"857 523 OFFCURVE",
"871 543 OFFCURVE",
"877 558 CURVE SMOOTH",
"884 573 OFFCURVE",
"887 587 OFFCURVE",
"887 599 CURVE SMOOTH",
"887 610 OFFCURVE",
"884 626 OFFCURVE",
"876 646 CURVE SMOOTH",
"869 666 OFFCURVE",
"852 680 OFFCURVE",
"826 689 CURVE SMOOTH",
"801 696 OFFCURVE",
"768 700 OFFCURVE",
"726 700 CURVE"
);
},
{
closed = 1;
nodes = (
"739 688 OFFCURVE",
"748 689 OFFCURVE",
"756 689 CURVE SMOOTH",
"776 689 OFFCURVE",
"792 684 OFFCURVE",
"805 673 CURVE",
"816 661 OFFCURVE",
"822 654 OFFCURVE",
"825 648 CURVE",
"829 641 OFFCURVE",
"830 635 OFFCURVE",
"830 626 CURVE SMOOTH",
"830 618 OFFCURVE",
"829 610 OFFCURVE",
"826 603 CURVE",
"825 594 OFFCURVE",
"820 575 OFFCURVE",
"811 547 CURVE",
"804 518 OFFCURVE",
"780 492 OFFCURVE",
"739 466 CURVE SMOOTH",
"699 441 OFFCURVE",
"651 428 OFFCURVE",
"595 428 CURVE SMOOTH",
"575 428 OFFCURVE",
"558 429 OFFCURVE",
"539 431 CURVE",
"520 434 OFFCURVE",
"504 436 OFFCURVE",
"480 442 CURVE",
"544 543 LINE SMOOTH",
"567 578 OFFCURVE",
"593 608 OFFCURVE",
"622 631 CURVE SMOOTH",
"653 658 OFFCURVE",
"689 676 OFFCURVE",
"728 685 CURVE SMOOTH"
);
},
{
closed = 1;
nodes = (
"39 97 OFFCURVE",
"46 104 OFFCURVE",
"56 107 CURVE SMOOTH",
"66 111 OFFCURVE",
"76 114 OFFCURVE",
"86 114 CURVE SMOOTH",
"100 114 OFFCURVE",
"119 110 OFFCURVE",
"141 102 CURVE SMOOTH",
"201 82 LINE",
"180 65 OFFCURVE",
"167 55 OFFCURVE",
"163 54 CURVE",
"160 50 OFFCURVE",
"152 47 OFFCURVE",
"141 45 CURVE SMOOTH",
"111 37 LINE",
"101 36 OFFCURVE",
"92 35 OFFCURVE",
"84 35 CURVE SMOOTH",
"72 35 OFFCURVE",
"62 36 OFFCURVE",
"55 40 CURVE",
"46 44 OFFCURVE",
"40 50 OFFCURVE",
"36 56 CURVE",
"30 62 OFFCURVE",
"27 69 OFFCURVE",
"27 75 CURVE SMOOTH",
"27 81 OFFCURVE",
"30 86 OFFCURVE",
"34 90 CURVE"
);
}
);
width = 693;
}
);
note = L;
unicode = 004C;
},
{
glyphname = M;
lastChange = "2017-12-19 09:07:32 +0000";
layers = (
{
layerId = "0B1DFD06-3317-40CA-B510-4969A0718C16";
paths = (
{
closed = 1;
nodes = (
"336 658 OFFCURVE",
"295 628 OFFCURVE",
"257 585 CURVE SMOOTH",
"221 544 OFFCURVE",
"203 499 OFFCURVE",
"203 453 CURVE",
"185 453 OFFCURVE",
"175 454 OFFCURVE",
"166 456 CURVE SMOOTH",
"157 457 OFFCURVE",
"147 461 OFFCURVE",
"136 464 CURVE SMOOTH",
"124 468 OFFCURVE",
"114 474 OFFCURVE",
"107 482 CURVE",
"101 490 OFFCURVE",
"97 498 OFFCURVE",
"97 505 CURVE SMOOTH",
"97 509 OFFCURVE",
"100 517 OFFCURVE",
"105 525 CURVE",
"109 535 OFFCURVE",
"119 542 OFFCURVE",
"132 544 CURVE",
"146 548 OFFCURVE",
"166 549 OFFCURVE",
"191 549 CURVE SMOOTH",
"205 549 LINE SMOOTH",
"211 549 OFFCURVE",
"216 549 OFFCURVE",
"218 550 CURVE",
"200 563 OFFCURVE",
"177 569 OFFCURVE",
"152 569 CURVE SMOOTH",
"132 569 OFFCURVE",
"115 565 OFFCURVE",
"99 559 CURVE",
"85 553 OFFCURVE",
"74 547 OFFCURVE",
"66 539 CURVE",
"60 530 OFFCURVE",
"56 522 OFFCURVE",
"56 513 CURVE SMOOTH",
"56 509 OFFCURVE",
"57 505 OFFCURVE",
"61 492 CURVE",
"65 480 OFFCURVE",
"77 468 OFFCURVE",
"100 456 CURVE",
"122 444 OFFCURVE",
"157 438 OFFCURVE",
"206 438 CURVE",
"211 412 OFFCURVE",
"221 389 OFFCURVE",
"236 371 CURVE",
"252 352 OFFCURVE",
"272 337 OFFCURVE",
"293 326 CURVE",
"241 232 LINE",
"173 124 LINE SMOOTH",
"145 80 OFFCURVE",
"122 42 OFFCURVE",
"101 7 CURVE",
"116 2 OFFCURVE",
"134 0 OFFCURVE",
"154 0 CURVE SMOOTH",
"172 0 OFFCURVE",
"191 1 OFFCURVE",
"210 4 CURVE",
"223 56 OFFCURVE",
"241 107 OFFCURVE",
"262 158 CURVE SMOOTH",
"282 210 OFFCURVE",
"308 263 OFFCURVE",
"338 322 CURVE",
"393 322 OFFCURVE",
"446 332 OFFCURVE",
"494 353 CURVE SMOOTH",
"543 374 OFFCURVE",
"589 404 OFFCURVE",
"631 443 CURVE",
"608 409 OFFCURVE",
"583 366 OFFCURVE",
"549 307 CURVE SMOOTH",
"518 248 OFFCURVE",
"487 191 OFFCURVE",
"453 132 CURVE SMOOTH",
"422 74 OFFCURVE",
"396 32 OFFCURVE",
"377 4 CURVE",
"394 1 OFFCURVE",
"407 0 OFFCURVE",
"414 0 CURVE SMOOTH",
"462 0 LINE",
"497 4 LINE",
"510 67 OFFCURVE",
"525 129 OFFCURVE",
"547 187 CURVE SMOOTH",
"568 246 OFFCURVE",
"593 308 OFFCURVE",
"626 378 CURVE SMOOTH",
"660 448 OFFCURVE",
"689 514 OFFCURVE",
"719 575 CURVE",
"664 508 LINE SMOOTH",
"645 484 OFFCURVE",
"628 466 OFFCURVE",
"609 447 CURVE",
"580 423 OFFCURVE",
"558 404 OFFCURVE",
"534 389 CURVE SMOOTH",
"512 374 OFFCURVE",
"487 362 OFFCURVE",
"459 351 CURVE SMOOTH",
"433 341 OFFCURVE",
"406 336 OFFCURVE",
"378 336 CURVE SMOOTH",
"364 336 OFFCURVE",
"353 337 OFFCURVE",
"343 338 CURVE",
"352 363 OFFCURVE",
"364 392 OFFCURVE",
"381 426 CURVE SMOOTH",
"432 524 LINE SMOOTH",
"448 557 OFFCURVE",
"461 585 OFFCURVE",
"469 610 CURVE",
"436 570 OFFCURVE",
"396 537 OFFCURVE",
"352 508 CURVE SMOOTH",
"308 480 OFFCURVE",
"263 463 OFFCURVE",
"215 457 CURVE",
"215 472 OFFCURVE",
"216 483 OFFCURVE",
"217 489 CURVE",
"218 494 OFFCURVE",
"227 514 OFFCURVE",
"246 549 CURVE",
"262 583 OFFCURVE",
"295 610 OFFCURVE",
"342 633 CURVE SMOOTH",
"388 655 OFFCURVE",
"443 666 OFFCURVE",
"507 666 CURVE SMOOTH",
"543 666 OFFCURVE",
"583 663 OFFCURVE",
"625 655 CURVE SMOOTH",
"666 646 OFFCURVE",
"715 636 OFFCURVE",
"774 623 CURVE SMOOTH",
"879 597 LINE",
"925 589 LINE",
"943 588 OFFCURVE",
"953 585 OFFCURVE",
"962 584 CURVE",
"831 428 LINE SMOOTH",
"786 373 OFFCURVE",
"750 317 OFFCURVE",
"723 260 CURVE SMOOTH",
"695 203 OFFCURVE",
"681 142 OFFCURVE",
"681 76 CURVE SMOOTH",
"681 57 OFFCURVE",
"686 40 OFFCURVE",
"695 24 CURVE SMOOTH",
"703 10 OFFCURVE",
"713 0 OFFCURVE",
"726 -6 CURVE",
"754 -15 LINE SMOOTH",
"758 -16 OFFCURVE",
"765 -16 OFFCURVE",
"775 -16 CURVE SMOOTH",
"800 -16 OFFCURVE",
"825 -9 OFFCURVE",
"849 5 CURVE",
"919 50 LINE",
"921 52 OFFCURVE",
"922 56 OFFCURVE",
"922 60 CURVE SMOOTH",
"922 64 OFFCURVE",
"920 69 OFFCURVE",
"916 72 CURVE",
"872 36 LINE SMOOTH",
"855 21 OFFCURVE",
"836 14 OFFCURVE",
"816 14 CURVE SMOOTH",
"815 14 OFFCURVE",
"809 15 OFFCURVE",
"800 16 CURVE SMOOTH",
"791 17 OFFCURVE",
"784 21 OFFCURVE",
"778 30 CURVE SMOOTH",
"771 39 OFFCURVE",
"766 54 OFFCURVE",
"764 72 CURVE SMOOTH",
"761 92 OFFCURVE",
"760 114 OFFCURVE",
"760 136 CURVE SMOOTH",
"760 195 OFFCURVE",
"770 248 OFFCURVE",
"789 300 CURVE SMOOTH",
"809 349 OFFCURVE",
"834 396 OFFCURVE",
"864 438 CURVE SMOOTH",
"895 482 OFFCURVE",
"934 530 OFFCURVE",
"980 583 CURVE",
"1015 583 LINE SMOOTH",
"1065 583 OFFCURVE",
"1107 588 OFFCURVE",
"1142 597 CURVE",
"1176 607 OFFCURVE",
"1199 620 OFFCURVE",
"1213 639 CURVE",
"1226 658 OFFCURVE",
"1232 669 OFFCURVE",
"1232 675 CURVE SMOOTH",
"1232 683 OFFCURVE",
"1231 689 OFFCURVE",
"1227 693 CURVE",
"1223 699 OFFCURVE",
"1219 701 OFFCURVE",
"1216 701 CURVE",
"1201 705 LINE",
"1183 705 LINE SMOOTH",
"1166 705 OFFCURVE",
"1148 701 OFFCURVE",
"1129 695 CURVE",
"1075 669 LINE",
"1053 660 OFFCURVE",
"1038 651 OFFCURVE",
"1025 643 CURVE SMOOTH",
"1010 633 OFFCURVE",
"992 619 OFFCURVE",
"972 600 CURVE",
"952 605 OFFCURVE",
"910 619 OFFCURVE",
"841 640 CURVE SMOOTH",
"774 663 OFFCURVE",
"718 679 OFFCURVE",
"673 689 CURVE SMOOTH",
"629 700 OFFCURVE",
"583 705 OFFCURVE",
"537 705 CURVE SMOOTH",
"510 705 OFFCURVE",
"484 703 OFFCURVE",
"457 698 CURVE SMOOTH",
"431 693 OFFCURVE",
"406 685 OFFCURVE",
"382 675 CURVE"
);
},
{
closed = 1;
nodes = (
"384 493 OFFCURVE",
"361 454 OFFCURVE",
"339 416 CURVE",
"319 376 OFFCURVE",
"307 352 OFFCURVE",
"302 344 CURVE",
"283 351 OFFCURVE",
"266 362 OFFCURVE",
"250 381 CURVE SMOOTH",
"233 399 OFFCURVE",
"223 419 OFFCURVE",
"218 438 CURVE",
"237 439 OFFCURVE",
"253 443 OFFCURVE",
"267 447 CURVE",
"282 452 OFFCURVE",
"298 457 OFFCURVE",
"317 466 CURVE",
"336 473 OFFCURVE",
"353 482 OFFCURVE",
"367 493 CURVE",
"382 503 OFFCURVE",
"397 514 OFFCURVE",
"411 528 CURVE"
);
},
{
closed = 1;
nodes = (
"1161 671 OFFCURVE",
"1166 666 OFFCURVE",
"1167 656 CURVE",
"1169 646 OFFCURVE",
"1167 638 OFFCURVE",
"1159 630 CURVE",
"1153 622 OFFCURVE",
"1139 613 OFFCURVE",
"1118 604 CURVE SMOOTH",
"1098 595 OFFCURVE",
"1068 592 OFFCURVE",
"1030 592 CURVE SMOOTH",
"1021 592 OFFCURVE",
"1013 592 OFFCURVE",
"1005 593 CURVE",
"1000 593 OFFCURVE",
"995 594 OFFCURVE",
"990 595 CURVE",
"1008 612 LINE SMOOTH",
"1033 633 OFFCURVE",
"1057 648 OFFCURVE",
"1078 656 CURVE SMOOTH",
"1101 666 OFFCURVE",
"1126 671 OFFCURVE",
"1152 671 CURVE SMOOTH"
);
}
);
width = 997;
}
);
note = M;
unicode = 004D;
},
{
glyphname = N;
lastChange = "2017-12-19 09:07:32 +0000";
layers = (
{
layerId = "0B1DFD06-3317-40CA-B510-4969A0718C16";
paths = (
{
closed = 1;
nodes = (
"861 681 OFFCURVE",
"836 668 OFFCURVE",
"809 649 CURVE SMOOTH",
"780 630 OFFCURVE",
"763 618 OFFCURVE",
"753 613 CURVE",
"609 663 LINE SMOOTH",
"558 679 OFFCURVE",
"510 688 OFFCURVE",
"469 688 CURVE SMOOTH",
"414 688 OFFCURVE",
"366 674 OFFCURVE",
"322 646 CURVE SMOOTH",
"276 619 OFFCURVE",
"238 582 OFFCURVE",
"208 534 CURVE",
"185 543 OFFCURVE",
"161 548 OFFCURVE",
"136 548 CURVE SMOOTH",
"117 548 OFFCURVE",
"101 545 OFFCURVE",
"86 540 CURVE SMOOTH",
"71 535 OFFCURVE",
"60 528 OFFCURVE",
"50 519 CURVE",
"41 510 OFFCURVE",
"37 502 OFFCURVE",
"37 492 CURVE SMOOTH",
"37 488 OFFCURVE",
"40 478 OFFCURVE",
"46 463 CURVE",
"51 447 OFFCURVE",
"66 436 OFFCURVE",
"91 429 CURVE",
"115 421 OFFCURVE",
"147 419 OFFCURVE",
"188 419 CURVE",
"203 388 LINE SMOOTH",
"208 377 OFFCURVE",
"215 368 OFFCURVE",
"221 359 CURVE",
"227 352 OFFCURVE",
"236 346 OFFCURVE",
"245 339 CURVE",
"255 334 OFFCURVE",
"263 327 OFFCURVE",
"277 321 CURVE",
"242 265 OFFCURVE",
"211 211 OFFCURVE",
"182 157 CURVE SMOOTH",
"99 -2 LINE",
"105 -2 OFFCURVE",
"120 -2 OFFCURVE",
"149 -1 CURVE SMOOTH",
"175 0 OFFCURVE",
"195 2 OFFCURVE",
"208 6 CURVE",
"215 51 OFFCURVE",
"228 100 OFFCURVE",
"250 152 CURVE SMOOTH",
"270 206 OFFCURVE",
"291 256 OFFCURVE",
"311 305 CURVE",
"346 305 OFFCURVE",
"381 317 OFFCURVE",
"414 343 CURVE",
"451 368 OFFCURVE",
"473 397 OFFCURVE",
"480 429 CURVE",
"477 429 LINE",
"461 399 OFFCURVE",
"438 373 OFFCURVE",
"409 352 CURVE",
"383 331 OFFCURVE",
"352 321 OFFCURVE",
"318 321 CURVE",
"339 362 OFFCURVE",
"363 407 OFFCURVE",
"387 458 CURVE SMOOTH",
"412 508 OFFCURVE",
"433 557 OFFCURVE",
"454 603 CURVE",
"443 603 LINE",
"412 557 OFFCURVE",
"374 518 OFFCURVE",
"332 488 CURVE SMOOTH",
"291 458 OFFCURVE",
"247 443 OFFCURVE",
"201 443 CURVE",
"201 454 OFFCURVE",
"202 466 OFFCURVE",
"206 474 CURVE",
"208 485 OFFCURVE",
"217 507 OFFCURVE",
"232 535 CURVE",
"246 565 OFFCURVE",
"276 590 OFFCURVE",
"324 609 CURVE SMOOTH",
"372 626 OFFCURVE",
"429 635 OFFCURVE",
"495 635 CURVE SMOOTH",
"540 635 OFFCURVE",
"582 631 OFFCURVE",
"620 625 CURVE SMOOTH",
"659 619 OFFCURVE",
"699 612 OFFCURVE",
"744 598 CURVE",
"733 583 OFFCURVE",
"714 560 OFFCURVE",
"685 530 CURVE SMOOTH",
"656 500 OFFCURVE",
"635 473 OFFCURVE",
"617 448 CURVE SMOOTH",
"548 353 LINE SMOOTH",
"522 316 OFFCURVE",
"499 278 OFFCURVE",
"483 240 CURVE",
"467 205 OFFCURVE",
"459 167 OFFCURVE",
"459 126 CURVE SMOOTH",
"459 107 OFFCURVE",
"462 85 OFFCURVE",
"467 57 CURVE",
"473 31 OFFCURVE",
"489 14 OFFCURVE",
"513 6 CURVE SMOOTH",
"537 -1 OFFCURVE",
"554 -5 OFFCURVE",
"565 -5 CURVE SMOOTH",
"579 -5 OFFCURVE",
"593 -2 OFFCURVE",
"604 2 CURVE",
"618 7 OFFCURVE",
"630 15 OFFCURVE",
"644 25 CURVE SMOOTH",
"658 35 OFFCURVE",
"668 42 OFFCURVE",
"673 49 CURVE",
"676 52 OFFCURVE",
"681 62 OFFCURVE",
"686 77 CURVE",
"675 67 OFFCURVE",
"661 57 OFFCURVE",
"648 46 CURVE SMOOTH",
"631 34 OFFCURVE",
"613 27 OFFCURVE",
"594 27 CURVE SMOOTH",
"584 27 LINE SMOOTH",
"572 27 OFFCURVE",
"560 34 OFFCURVE",
"552 45 CURVE",
"544 56 OFFCURVE",
"539 71 OFFCURVE",
"537 90 CURVE",
"535 109 OFFCURVE",
"534 125 OFFCURVE",
"534 141 CURVE SMOOTH",
"534 197 OFFCURVE",
"544 251 OFFCURVE",
"565 303 CURVE SMOOTH",
"585 357 OFFCURVE",
"613 406 OFFCURVE",
"644 452 CURVE",
"678 497 OFFCURVE",
"715 545 OFFCURVE",
"761 594 CURVE",
"778 588 OFFCURVE",
"794 584 OFFCURVE",
"811 584 CURVE SMOOTH",
"830 584 OFFCURVE",
"851 588 OFFCURVE",
"875 595 CURVE",
"900 602 OFFCURVE",
"921 610 OFFCURVE",
"945 620 CURVE SMOOTH",
"966 629 OFFCURVE",
"976 648 OFFCURVE",
"976 676 CURVE SMOOTH",
"976 685 OFFCURVE",
"973 690 OFFCURVE",
"967 694 CURVE SMOOTH",
"961 698 OFFCURVE",
"952 700 OFFCURVE",
"942 700 CURVE SMOOTH",
"934 700 OFFCURVE",
"925 699 OFFCURVE",
"917 696 CURVE",
"909 695 OFFCURVE",
"897 691 OFFCURVE",
"884 688 CURVE SMOOTH"
);
},
{
closed = 1;
nodes = (
"301 456 OFFCURVE",
"324 464 OFFCURVE",
"338 473 CURVE SMOOTH",
"352 482 OFFCURVE",
"366 492 OFFCURVE",
"379 504 CURVE",
"363 468 OFFCURVE",
"347 436 OFFCURVE",
"332 407 CURVE SMOOTH",
"317 378 OFFCURVE",
"301 352 OFFCURVE",
"282 331 CURVE",
"263 339 OFFCURVE",
"247 352 OFFCURVE",
"232 368 CURVE SMOOTH",
"216 387 OFFCURVE",
"207 403 OFFCURVE",
"203 419 CURVE",
"233 428 LINE SMOOTH",
"247 432 OFFCURVE",
"258 433 OFFCURVE",
"265 437 CURVE"
);
},
{
closed = 1;
nodes = (
"140 534 OFFCURVE",
"150 533 OFFCURVE",
"158 533 CURVE SMOOTH",
"168 533 OFFCURVE",
"176 533 OFFCURVE",
"180 532 CURVE",
"202 528 LINE",
"196 512 OFFCURVE",
"191 497 OFFCURVE",
"188 484 CURVE SMOOTH",
"186 470 OFFCURVE",
"185 457 OFFCURVE",
"185 443 CURVE",
"160 443 OFFCURVE",
"140 444 OFFCURVE",
"126 448 CURVE",
"110 452 OFFCURVE",
"100 459 OFFCURVE",
"95 468 CURVE",
"91 477 OFFCURVE",
"89 483 OFFCURVE",
"89 489 CURVE SMOOTH",
"89 498 OFFCURVE",
"92 508 OFFCURVE",
"100 517 CURVE",
"107 524 OFFCURVE",
"117 529 OFFCURVE",
"129 530 CURVE"
);
},
{
closed = 1;
nodes = (
"922 659 OFFCURVE",
"925 655 OFFCURVE",
"925 649 CURVE SMOOTH",
"925 640 OFFCURVE",
"921 634 OFFCURVE",
"912 628 CURVE",
"901 619 OFFCURVE",
"890 614 OFFCURVE",
"877 610 CURVE SMOOTH",
"862 605 OFFCURVE",
"849 603 OFFCURVE",
"837 603 CURVE SMOOTH",
"821 603 OFFCURVE",
"805 605 OFFCURVE",
"791 612 CURVE",
"807 628 OFFCURVE",
"824 640 OFFCURVE",
"840 654 CURVE",
"856 665 OFFCURVE",
"871 670 OFFCURVE",
"887 670 CURVE SMOOTH",
"899 670 OFFCURVE",
"907 668 OFFCURVE",
"916 661 CURVE"
);
}
);
width = 754;
}
);
note = N;
unicode = 004E;
},
{
glyphname = O;
lastChange = "2017-12-19 09:07:32 +0000";
layers = (
{
layerId = "0B1DFD06-3317-40CA-B510-4969A0718C16";
paths = (
{
closed = 1;
nodes = (
"389 666 OFFCURVE",
"357 636 OFFCURVE",
"333 600 CURVE SMOOTH",
"310 562 OFFCURVE",
"298 519 OFFCURVE",
"298 473 CURVE SMOOTH",
"298 462 OFFCURVE",
"300 443 OFFCURVE",
"303 418 CURVE SMOOTH",
"307 391 OFFCURVE",
"319 363 OFFCURVE",
"338 337 CURVE SMOOTH",
"358 310 OFFCURVE",
"386 290 OFFCURVE",
"422 276 CURVE",
"384 307 LINE SMOOTH",
"373 317 OFFCURVE",
"362 329 OFFCURVE",
"351 344 CURVE",
"339 361 OFFCURVE",
"329 379 OFFCURVE",
"322 403 CURVE SMOOTH",
"314 427 OFFCURVE",
"311 451 OFFCURVE",
"311 474 CURVE SMOOTH",
"311 515 OFFCURVE",
"319 550 OFFCURVE",
"338 579 CURVE SMOOTH",
"357 608 OFFCURVE",
"377 630 OFFCURVE",
"401 648 CURVE",
"424 663 OFFCURVE",
"449 670 OFFCURVE",
"478 670 CURVE SMOOTH",
"485 670 OFFCURVE",
"490 670 OFFCURVE",
"494 669 CURVE",
"498 669 OFFCURVE",
"512 666 OFFCURVE",
"535 663 CURVE",
"557 658 OFFCURVE",
"578 645 OFFCURVE",
"600 625 CURVE SMOOTH",
"624 604 OFFCURVE",
"640 580 OFFCURVE",
"650 553 CURVE SMOOTH",
"660 527 OFFCURVE",
"666 505 OFFCURVE",
"669 487 CURVE SMOOTH",
"671 470 OFFCURVE",
"673 453 OFFCURVE",
"673 436 CURVE SMOOTH",
"673 382 OFFCURVE",
"660 331 OFFCURVE",
"636 282 CURVE SMOOTH",
"613 233 OFFCURVE",
"584 191 OFFCURVE",
"549 154 CURVE SMOOTH",
"514 119 OFFCURVE",
"479 92 OFFCURVE",
"444 74 CURVE",
"408 56 OFFCURVE",
"371 47 OFFCURVE",
"334 47 CURVE SMOOTH",
"318 47 OFFCURVE",
"305 49 OFFCURVE",
"292 52 CURVE",
"278 55 OFFCURVE",
"261 61 OFFCURVE",
"240 71 CURVE SMOOTH",
"218 81 OFFCURVE",
"197 99 OFFCURVE",
"176 124 CURVE SMOOTH",
"155 149 OFFCURVE",
"140 176 OFFCURVE",
"131 206 CURVE SMOOTH",
"127 220 OFFCURVE",
"125 233 OFFCURVE",
"124 245 CURVE SMOOTH",
"122 258 OFFCURVE",
"121 268 OFFCURVE",
"121 282 CURVE SMOOTH",
"121 346 OFFCURVE",
"140 408 OFFCURVE",
"176 467 CURVE SMOOTH",
"211 525 OFFCURVE",
"257 577 OFFCURVE",
"313 619 CURVE",
"275 598 OFFCURVE",
"235 567 OFFCURVE",
"195 524 CURVE SMOOTH",
"156 483 OFFCURVE",
"125 438 OFFCURVE",
"101 389 CURVE SMOOTH",
"77 339 OFFCURVE",
"65 288 OFFCURVE",
"65 237 CURVE SMOOTH",
"65 197 OFFCURVE",
"71 160 OFFCURVE",
"84 125 CURVE SMOOTH",
"97 89 OFFCURVE",
"114 64 OFFCURVE",
"132 49 CURVE",
"155 32 OFFCURVE",
"180 21 OFFCURVE",
"208 12 CURVE SMOOTH",
"237 4 OFFCURVE",
"265 0 OFFCURVE",
"291 0 CURVE SMOOTH",
"351 0 OFFCURVE",
"408 19 OFFCURVE",
"462 56 CURVE SMOOTH",
"517 92 OFFCURVE",
"563 139 OFFCURVE",
"603 192 CURVE SMOOTH",
"641 246 OFFCURVE",
"671 295 OFFCURVE",
"690 339 CURVE SMOOTH",
"709 386 OFFCURVE",
"718 431 OFFCURVE",
"718 474 CURVE SMOOTH",
"718 499 OFFCURVE",
"715 522 OFFCURVE",
"709 543 CURVE",
"704 564 OFFCURVE",
"694 589 OFFCURVE",
"680 618 CURVE",
"666 644 OFFCURVE",
"645 666 OFFCURVE",
"617 683 CURVE SMOOTH",
"588 699 OFFCURVE",
"557 706 OFFCURVE",
"522 706 CURVE SMOOTH",
"490 706 OFFCURVE",
"461 700 OFFCURVE",
"433 688 CURVE SMOOTH"
);
}
);
width = 693;
}
);
note = O;
unicode = 004F;
},
{
glyphname = P;
lastChange = "2017-12-19 09:07:32 +0000";
layers = (
{
layerId = "0B1DFD06-3317-40CA-B510-4969A0718C16";
paths = (
{
closed = 1;
nodes = (
"458 693 LINE SMOOTH",
"394 686 OFFCURVE",
"337 658 OFFCURVE",
"286 609 CURVE SMOOTH",
"235 559 OFFCURVE",
"198 502 OFFCURVE",
"177 438 CURVE",
"173 438 OFFCURVE",
"170 438 OFFCURVE",
"166 437 CURVE",
"155 437 LINE SMOOTH",
"136 437 OFFCURVE",
"119 439 OFFCURVE",
"104 444 CURVE",
"89 451 OFFCURVE",
"80 458 OFFCURVE",
"76 467 CURVE",
"71 475 OFFCURVE",
"69 482 OFFCURVE",
"69 485 CURVE SMOOTH",
"69 492 OFFCURVE",
"70 498 OFFCURVE",
"74 504 CURVE SMOOTH",
"77 510 OFFCURVE",
"82 517 OFFCURVE",
"91 525 CURVE",
"100 533 OFFCURVE",
"109 538 OFFCURVE",
"115 540 CURVE SMOOTH",
"121 543 OFFCURVE",
"127 544 OFFCURVE",
"136 544 CURVE",
"193 534 LINE",
"170 544 LINE SMOOTH",
"161 548 OFFCURVE",
"155 549 OFFCURVE",
"146 550 CURVE SMOOTH",
"137 552 OFFCURVE",
"129 553 OFFCURVE",
"120 553 CURVE SMOOTH",
"102 553 OFFCURVE",
"87 550 OFFCURVE",
"74 545 CURVE SMOOTH",
"61 540 OFFCURVE",
"50 533 OFFCURVE",
"41 524 CURVE",
"32 513 OFFCURVE",
"29 503 OFFCURVE",
"29 494 CURVE SMOOTH",
"29 480 OFFCURVE",
"34 468 OFFCURVE",
"45 457 CURVE",
"55 446 OFFCURVE",
"67 439 OFFCURVE",
"81 434 CURVE",
"97 431 OFFCURVE",
"115 428 OFFCURVE",
"132 428 CURVE SMOOTH",
"137 428 OFFCURVE",
"144 429 OFFCURVE",
"150 429 CURVE SMOOTH",
"156 429 OFFCURVE",
"165 431 OFFCURVE",
"176 431 CURVE",
"172 412 OFFCURVE",
"171 397 OFFCURVE",
"171 388 CURVE SMOOTH",
"171 353 LINE",
"173 374 OFFCURVE",
"176 391 OFFCURVE",
"180 401 CURVE",
"190 433 LINE",
"222 439 OFFCURVE",
"251 452 OFFCURVE",
"276 468 CURVE SMOOTH",
"302 484 OFFCURVE",
"337 509 OFFCURVE",
"379 542 CURVE",
"366 508 OFFCURVE",
"352 479 OFFCURVE",
"338 456 CURVE SMOOTH",
"266 334 LINE SMOOTH",
"231 276 OFFCURVE",
"206 231 OFFCURVE",
"190 202 CURVE",
"185 201 OFFCURVE",
"183 200 OFFCURVE",
"180 200 CURVE SMOOTH",
"170 200 OFFCURVE",
"157 205 OFFCURVE",
"141 215 CURVE SMOOTH",
"124 225 OFFCURVE",
"110 230 OFFCURVE",
"101 230 CURVE",
"125 208 OFFCURVE",
"151 195 OFFCURVE",
"182 188 CURVE",
"69 0 LINE",
"86 -6 LINE",
"90 -6 OFFCURVE",
"96 -7 OFFCURVE",
"106 -7 CURVE SMOOTH",
"110 -7 OFFCURVE",
"120 -6 OFFCURVE",
"140 -2 CURVE",
"160 0 OFFCURVE",
"175 1 OFFCURVE",
"186 1 CURVE",
"192 40 OFFCURVE",
"201 75 OFFCURVE",
"210 106 CURVE",
"220 137 OFFCURVE",
"232 163 OFFCURVE",
"247 185 CURVE",
"341 185 OFFCURVE",
"423 198 OFFCURVE",
"498 227 CURVE SMOOTH",
"573 256 OFFCURVE",
"624 292 OFFCURVE",
"653 333 CURVE SMOOTH",
"681 377 OFFCURVE",
"700 408 OFFCURVE",
"706 432 CURVE",
"714 456 OFFCURVE",
"718 479 OFFCURVE",
"718 504 CURVE SMOOTH",
"718 533 OFFCURVE",
"710 564 OFFCURVE",
"694 598 CURVE",
"678 628 OFFCURVE",
"651 651 OFFCURVE",
"618 669 CURVE SMOOTH",
"584 686 OFFCURVE",
"544 695 OFFCURVE",
"500 695 CURVE SMOOTH",
"478 695 LINE"
);
},
{
closed = 1;
nodes = (
"451 663 OFFCURVE",
"462 661 OFFCURVE",
"472 661 CURVE SMOOTH",
"499 661 OFFCURVE",
"523 658 OFFCURVE",
"543 649 CURVE SMOOTH",
"564 639 OFFCURVE",
"583 625 OFFCURVE",
"599 608 CURVE",
"615 588 OFFCURVE",
"628 569 OFFCURVE",
"635 552 CURVE",
"641 532 OFFCURVE",
"645 512 OFFCURVE",
"645 493 CURVE SMOOTH",
"645 467 OFFCURVE",
"636 429 OFFCURVE",
"618 379 CURVE SMOOTH",
"600 328 OFFCURVE",
"557 285 OFFCURVE",
"487 248 CURVE SMOOTH",
"417 212 OFFCURVE",
"338 195 OFFCURVE",
"251 195 CURVE",
"267 241 OFFCURVE",
"285 286 OFFCURVE",
"303 327 CURVE SMOOTH",
"322 368 OFFCURVE",
"348 421 OFFCURVE",
"382 489 CURVE SMOOTH",
"416 555 OFFCURVE",
"441 607 OFFCURVE",
"457 640 CURVE SMOOTH",
"458 643 OFFCURVE",
"457 644 OFFCURVE",
"456 645 CURVE SMOOTH",
"454 646 OFFCURVE",
"453 646 OFFCURVE",
"449 646 CURVE SMOOTH",
"446 646 OFFCURVE",
"438 638 OFFCURVE",
"424 619 CURVE SMOOTH",
"411 602 OFFCURVE",
"392 579 OFFCURVE",
"366 553 CURVE",
"341 524 OFFCURVE",
"313 503 OFFCURVE",
"285 482 CURVE",
"256 463 OFFCURVE",
"225 448 OFFCURVE",
"191 439 CURVE",
"206 494 OFFCURVE",
"238 543 OFFCURVE",
"287 585 CURVE SMOOTH",
"336 629 OFFCURVE",
"387 653 OFFCURVE",
"439 659 CURVE"
);
}
);
width = 645;
}
);
note = P;
unicode = 0050;
},
{
glyphname = Q;
lastChange = "2017-12-19 09:07:32 +0000";
layers = (
{
layerId = "0B1DFD06-3317-40CA-B510-4969A0718C16";
paths = (
{
closed = 1;
nodes = (
"564 709 OFFCURVE",
"547 711 OFFCURVE",
"530 711 CURVE SMOOTH",
"512 711 OFFCURVE",
"490 708 OFFCURVE",
"469 701 CURVE",
"449 693 OFFCURVE",
"426 683 OFFCURVE",
"401 668 CURVE SMOOTH",
"374 653 OFFCURVE",
"353 630 OFFCURVE",
"337 602 CURVE",
"321 570 OFFCURVE",
"312 544 OFFCURVE",
"310 522 CURVE",
"308 498 OFFCURVE",
"307 482 OFFCURVE",
"307 470 CURVE SMOOTH",
"307 428 OFFCURVE",
"317 391 OFFCURVE",
"336 358 CURVE SMOOTH",
"354 324 OFFCURVE",
"381 297 OFFCURVE",
"416 276 CURVE",
"387 305 OFFCURVE",
"367 326 OFFCURVE",
"353 346 CURVE SMOOTH",
"339 367 OFFCURVE",
"329 388 OFFCURVE",
"324 412 CURVE SMOOTH",
"319 437 OFFCURVE",
"317 458 OFFCURVE",
"317 475 CURVE SMOOTH",
"317 537 OFFCURVE",
"336 585 OFFCURVE",
"372 619 CURVE SMOOTH",
"407 653 OFFCURVE",
"443 670 OFFCURVE",
"482 670 CURVE SMOOTH",
"498 670 OFFCURVE",
"524 665 OFFCURVE",
"560 655 CURVE SMOOTH",
"597 645 OFFCURVE",
"625 620 OFFCURVE",
"648 580 CURVE SMOOTH",
"671 539 OFFCURVE",
"683 492 OFFCURVE",
"683 436 CURVE SMOOTH",
"683 357 OFFCURVE",
"663 288 OFFCURVE",
"623 231 CURVE SMOOTH",
"584 173 OFFCURVE",
"532 124 OFFCURVE",
"463 80 CURVE",
"454 95 OFFCURVE",
"447 109 OFFCURVE",
"442 120 CURVE SMOOTH",
"436 134 OFFCURVE",
"431 155 OFFCURVE",
"422 183 CURVE",
"403 180 OFFCURVE",
"387 175 OFFCURVE",
"368 170 CURVE SMOOTH",
"349 165 OFFCURVE",
"332 162 OFFCURVE",
"317 161 CURVE",
"426 66 LINE",
"414 60 OFFCURVE",
"404 55 OFFCURVE",
"394 52 CURVE",
"383 51 OFFCURVE",
"371 50 OFFCURVE",
"354 50 CURVE SMOOTH",
"336 50 OFFCURVE",
"311 54 OFFCURVE",
"277 61 CURVE SMOOTH",
"243 69 OFFCURVE",
"213 85 OFFCURVE",
"186 110 CURVE SMOOTH",
"160 134 OFFCURVE",
"142 160 OFFCURVE",
"136 188 CURVE SMOOTH",
"130 215 OFFCURVE",
"127 233 OFFCURVE",
"126 243 CURVE SMOOTH",
"125 252 OFFCURVE",
"125 263 OFFCURVE",
"125 275 CURVE SMOOTH",
"125 326 OFFCURVE",
"136 373 OFFCURVE",
"157 417 CURVE SMOOTH",
"178 462 OFFCURVE",
"208 507 OFFCURVE",
"247 553 CURVE",
"273 575 OFFCURVE",
"300 598 OFFCURVE",
"323 622 CURVE",
"262 588 OFFCURVE",
"208 543 OFFCURVE",
"165 488 CURVE SMOOTH",
"119 432 OFFCURVE",
"92 381 OFFCURVE",
"84 336 CURVE SMOOTH",
"75 291 OFFCURVE",
"71 256 OFFCURVE",
"71 231 CURVE SMOOTH",
"71 190 OFFCURVE",
"80 151 OFFCURVE",
"96 116 CURVE SMOOTH",
"114 80 OFFCURVE",
"135 55 OFFCURVE",
"160 40 CURVE SMOOTH",
"186 24 OFFCURVE",
"207 12 OFFCURVE",
"223 9 CURVE",
"241 4 OFFCURVE",
"260 1 OFFCURVE",
"278 1 CURVE SMOOTH",
"307 1 OFFCURVE",
"332 5 OFFCURVE",
"361 14 CURVE SMOOTH",
"387 21 OFFCURVE",
"416 32 OFFCURVE",
"446 46 CURVE",
"502 -9 LINE SMOOTH",
"520 -27 OFFCURVE",
"538 -40 OFFCURVE",
"552 -47 CURVE",
"473 65 LINE",
"553 119 OFFCURVE",
"609 170 OFFCURVE",
"640 216 CURVE SMOOTH",
"671 263 OFFCURVE",
"691 313 OFFCURVE",
"703 366 CURVE SMOOTH",
"714 422 OFFCURVE",
"720 461 OFFCURVE",
"720 482 CURVE SMOOTH",
"720 515 OFFCURVE",
"715 547 OFFCURVE",
"705 575 CURVE",
"696 604 OFFCURVE",
"683 626 OFFCURVE",
"665 645 CURVE SMOOTH",
"649 663 OFFCURVE",
"635 675 OFFCURVE",
"624 683 CURVE SMOOTH",
"612 691 OFFCURVE",
"598 698 OFFCURVE",
"582 703 CURVE"
);
}
);
width = 700;
}
);
note = Q;
unicode = 0051;
},
{
glyphname = R;
lastChange = "2017-12-19 09:07:32 +0000";
layers = (
{
layerId = "0B1DFD06-3317-40CA-B510-4969A0718C16";
paths = (
{
closed = 1;
nodes = (
"534 634 OFFCURVE",
"497 602 OFFCURVE",
"463 565 CURVE SMOOTH",
"428 528 OFFCURVE",
"396 488 OFFCURVE",
"366 446 CURVE SMOOTH",
"336 402 OFFCURVE",
"306 356 OFFCURVE",
"275 305 CURVE",
"285 341 OFFCURVE",
"297 376 OFFCURVE",
"311 411 CURVE SMOOTH",
"324 446 OFFCURVE",
"344 492 OFFCURVE",
"373 552 CURVE",
"432 691 LINE",
"423 691 LINE",
"398 653 OFFCURVE",
"374 623 OFFCURVE",
"351 599 CURVE SMOOTH",
"326 574 OFFCURVE",
"300 557 OFFCURVE",
"272 545 CURVE SMOOTH",
"246 534 OFFCURVE",
"225 528 OFFCURVE",
"206 528 CURVE SMOOTH",
"195 528 OFFCURVE",
"185 530 OFFCURVE",
"175 534 CURVE SMOOTH",
"165 538 OFFCURVE",
"157 543 OFFCURVE",
"152 552 CURVE",
"149 560 OFFCURVE",
"146 568 OFFCURVE",
"146 574 CURVE SMOOTH",
"146 585 OFFCURVE",
"150 595 OFFCURVE",
"156 602 CURVE SMOOTH",
"163 609 OFFCURVE",
"172 614 OFFCURVE",
"182 617 CURVE",
"192 620 OFFCURVE",
"205 622 OFFCURVE",
"218 622 CURVE SMOOTH",
"230 622 OFFCURVE",
"240 620 OFFCURVE",
"253 619 CURVE",
"262 618 OFFCURVE",
"271 617 OFFCURVE",
"282 613 CURVE",
"258 626 OFFCURVE",
"242 633 OFFCURVE",
"227 636 CURVE SMOOTH",
"213 640 OFFCURVE",
"201 641 OFFCURVE",
"187 641 CURVE SMOOTH",
"177 641 OFFCURVE",
"167 640 OFFCURVE",
"157 638 CURVE SMOOTH",
"147 635 OFFCURVE",
"137 630 OFFCURVE",
"127 623 CURVE",
"116 615 OFFCURVE",
"107 608 OFFCURVE",
"101 600 CURVE",
"95 592 OFFCURVE",
"91 582 OFFCURVE",
"91 570 CURVE SMOOTH",
"91 567 OFFCURVE",
"91 562 OFFCURVE",
"92 553 CURVE SMOOTH",
"94 544 OFFCURVE",
"100 537 OFFCURVE",
"111 530 CURVE",
"121 524 OFFCURVE",
"135 518 OFFCURVE",
"151 514 CURVE",
"165 510 OFFCURVE",
"177 509 OFFCURVE",
"190 509 CURVE SMOOTH",
"216 509 OFFCURVE",
"240 514 OFFCURVE",
"262 525 CURVE SMOOTH",
"285 537 OFFCURVE",
"306 549 OFFCURVE",
"326 565 CURVE SMOOTH",
"344 582 OFFCURVE",
"367 600 OFFCURVE",
"392 624 CURVE",
"337 515 OFFCURVE",
"292 429 OFFCURVE",
"257 363 CURVE SMOOTH",
"222 297 OFFCURVE",
"186 231 OFFCURVE",
"150 166 CURVE SMOOTH",
"114 102 OFFCURVE",
"79 46 OFFCURVE",
"45 0 CURVE",
"166 0 LINE",
"205 116 OFFCURVE",
"241 212 OFFCURVE",
"285 292 CURVE SMOOTH",
"326 369 OFFCURVE",
"373 438 OFFCURVE",
"427 498 CURVE SMOOTH",
"479 557 OFFCURVE",
"520 595 OFFCURVE",
"552 617 CURVE SMOOTH",
"580 636 OFFCURVE",
"609 646 OFFCURVE",
"639 646 CURVE SMOOTH",
"660 646 OFFCURVE",
"678 643 OFFCURVE",
"693 635 CURVE",
"706 628 OFFCURVE",
"715 620 OFFCURVE",
"719 614 CURVE SMOOTH",
"723 608 OFFCURVE",
"724 599 OFFCURVE",
"724 590 CURVE SMOOTH",
"724 577 OFFCURVE",
"721 564 OFFCURVE",
"718 553 CURVE SMOOTH",
"713 539 OFFCURVE",
"698 512 OFFCURVE",
"671 468 CURVE SMOOTH",
"646 424 OFFCURVE",
"603 382 OFFCURVE",
"540 341 CURVE SMOOTH",
"479 301 OFFCURVE",
"414 281 OFFCURVE",
"347 281 CURVE",
"371 215 OFFCURVE",
"391 160 OFFCURVE",
"411 116 CURVE SMOOTH",
"429 72 OFFCURVE",
"454 26 OFFCURVE",
"488 -25 CURVE SMOOTH",
"522 -76 OFFCURVE",
"562 -132 OFFCURVE",
"613 -197 CURVE",
"574 -121 OFFCURVE",
"543 -51 OFFCURVE",
"517 17 CURVE SMOOTH",
"488 86 OFFCURVE",
"472 136 OFFCURVE",
"462 175 CURVE SMOOTH",
"452 213 OFFCURVE",
"446 238 OFFCURVE",
"442 248 CURVE",
"438 260 OFFCURVE",
"437 273 OFFCURVE",
"436 288 CURVE",
"500 305 OFFCURVE",
"558 328 OFFCURVE",
"612 362 CURVE SMOOTH",
"663 393 OFFCURVE",
"701 428 OFFCURVE",
"725 467 CURVE SMOOTH",
"750 505 OFFCURVE",
"766 535 OFFCURVE",
"773 554 CURVE",
"781 575 OFFCURVE",
"786 594 OFFCURVE",
"786 612 CURVE SMOOTH",
"786 633 OFFCURVE",
"780 651 OFFCURVE",
"769 668 CURVE",
"759 680 OFFCURVE",
"748 689 OFFCURVE",
"734 695 CURVE SMOOTH",
"723 700 OFFCURVE",
"709 703 OFFCURVE",
"695 703 CURVE SMOOTH",
"676 703 OFFCURVE",
"656 699 OFFCURVE",
"635 691 CURVE",
"615 683 OFFCURVE",
"597 676 OFFCURVE",
"578 663 CURVE"
);
}
);
width = 704;
}
);
note = R;
unicode = 0052;
},
{
glyphname = S;
lastChange = "2017-12-19 09:07:32 +0000";
layers = (
{
layerId = "0B1DFD06-3317-40CA-B510-4969A0718C16";
paths = (
{
closed = 1;
nodes = (
"464 463 OFFCURVE",
"448 456 OFFCURVE",
"434 447 CURVE SMOOTH",
"421 438 OFFCURVE",
"408 426 OFFCURVE",
"396 408 CURVE",
"406 417 OFFCURVE",
"414 421 OFFCURVE",
"423 429 CURVE",
"432 434 OFFCURVE",
"441 441 OFFCURVE",
"451 444 CURVE SMOOTH",
"461 448 OFFCURVE",
"472 451 OFFCURVE",
"483 454 CURVE",
"494 457 OFFCURVE",
"504 458 OFFCURVE",
"514 458 CURVE SMOOTH",
"533 458 OFFCURVE",
"553 453 OFFCURVE",
"577 439 CURVE",
"600 427 OFFCURVE",
"618 411 OFFCURVE",
"630 389 CURVE",
"641 368 OFFCURVE",
"648 342 OFFCURVE",
"648 308 CURVE SMOOTH",
"648 255 OFFCURVE",
"635 207 OFFCURVE",
"612 163 CURVE",
"587 122 OFFCURVE",
"552 89 OFFCURVE",
"508 64 CURVE",
"482 92 OFFCURVE",
"458 115 OFFCURVE",
"436 131 CURVE SMOOTH",
"412 147 OFFCURVE",
"386 165 OFFCURVE",
"354 182 CURVE",
"321 198 OFFCURVE",
"295 210 OFFCURVE",
"273 216 CURVE SMOOTH",
"253 222 OFFCURVE",
"231 225 OFFCURVE",
"207 225 CURVE SMOOTH",
"183 225 OFFCURVE",
"163 221 OFFCURVE",
"147 215 CURVE",
"129 208 OFFCURVE",
"111 198 OFFCURVE",
"95 183 CURVE",
"79 170 OFFCURVE",
"71 152 OFFCURVE",
"71 131 CURVE SMOOTH",
"71 121 OFFCURVE",
"77 104 OFFCURVE",
"91 80 CURVE",
"104 54 OFFCURVE",
"130 34 OFFCURVE",
"170 17 CURVE SMOOTH",
"208 1 OFFCURVE",
"256 -7 OFFCURVE",
"312 -7 CURVE SMOOTH",
"333 -7 OFFCURVE",
"353 -6 OFFCURVE",
"374 -5 CURVE",
"394 -1 OFFCURVE",
"414 0 OFFCURVE",
"433 1 CURVE",
"452 5 OFFCURVE",
"466 7 OFFCURVE",
"477 11 CURVE",
"519 30 LINE",
"530 19 OFFCURVE",
"542 5 OFFCURVE",
"553 -12 CURVE",
"567 -31 OFFCURVE",
"573 -41 OFFCURVE",
"577 -45 CURVE",
"558 -7 LINE",
"529 34 LINE",
"559 46 OFFCURVE",
"589 65 OFFCURVE",
"619 89 CURVE SMOOTH",
"648 112 OFFCURVE",
"670 137 OFFCURVE",
"688 165 CURVE",
"699 186 OFFCURVE",
"706 207 OFFCURVE",
"715 228 CURVE",
"721 250 OFFCURVE",
"725 271 OFFCURVE",
"725 291 CURVE SMOOTH",
"725 306 OFFCURVE",
"723 322 OFFCURVE",
"719 338 CURVE",
"715 352 OFFCURVE",
"701 378 OFFCURVE",
"678 417 CURVE SMOOTH",
"655 456 OFFCURVE",
"609 474 OFFCURVE",
"539 474 CURVE SMOOTH",
"520 474 OFFCURVE",
"504 472 OFFCURVE",
"484 468 CURVE"
);
},
{
closed = 1;
nodes = (
"344 157 OFFCURVE",
"384 144 OFFCURVE",
"408 130 CURVE",
"432 117 OFFCURVE",
"462 92 OFFCURVE",
"498 56 CURVE",
"469 40 OFFCURVE",
"436 27 OFFCURVE",
"399 19 CURVE SMOOTH",
"363 9 OFFCURVE",
"327 4 OFFCURVE",
"293 4 CURVE SMOOTH",
"262 4 OFFCURVE",
"231 9 OFFCURVE",
"202 17 CURVE SMOOTH",
"175 26 OFFCURVE",
"154 36 OFFCURVE",
"137 50 CURVE",
"121 65 OFFCURVE",
"112 75 OFFCURVE",
"109 81 CURVE",
"104 89 OFFCURVE",
"101 96 OFFCURVE",
"101 105 CURVE SMOOTH",
"101 111 OFFCURVE",
"105 122 OFFCURVE",
"114 137 CURVE SMOOTH",
"121 151 OFFCURVE",
"134 162 OFFCURVE",
"151 171 CURVE SMOOTH",
"170 180 OFFCURVE",
"190 185 OFFCURVE",
"211 185 CURVE SMOOTH",
"232 185 OFFCURVE",
"258 180 OFFCURVE",
"291 171 CURVE SMOOTH"
);
},
{
closed = 1;
nodes = (
"433 690 OFFCURVE",
"386 674 OFFCURVE",
"341 648 CURVE SMOOTH",
"297 620 OFFCURVE",
"272 592 OFFCURVE",
"265 560 CURVE SMOOTH",
"257 529 OFFCURVE",
"253 505 OFFCURVE",
"253 489 CURVE SMOOTH",
"253 469 OFFCURVE",
"256 451 OFFCURVE",
"262 434 CURVE SMOOTH",
"268 418 OFFCURVE",
"280 401 OFFCURVE",
"295 384 CURVE SMOOTH",
"310 368 OFFCURVE",
"328 356 OFFCURVE",
"351 348 CURVE",
"371 339 OFFCURVE",
"398 336 OFFCURVE",
"432 336 CURVE SMOOTH",
"451 336 OFFCURVE",
"467 341 OFFCURVE",
"480 351 CURVE SMOOTH",
"493 359 OFFCURVE",
"503 371 OFFCURVE",
"512 387 CURVE",
"502 376 OFFCURVE",
"495 367 OFFCURVE",
"487 363 CURVE",
"483 359 OFFCURVE",
"472 354 OFFCURVE",
"453 351 CURVE SMOOTH",
"437 347 OFFCURVE",
"421 346 OFFCURVE",
"406 346 CURVE SMOOTH",
"388 346 OFFCURVE",
"371 349 OFFCURVE",
"353 356 CURVE",
"338 362 OFFCURVE",
"323 373 OFFCURVE",
"310 388 CURVE SMOOTH",
"295 404 OFFCURVE",
"283 419 OFFCURVE",
"277 433 CURVE",
"268 449 OFFCURVE",
"265 466 OFFCURVE",
"265 484 CURVE SMOOTH",
"265 495 OFFCURVE",
"268 514 OFFCURVE",
"277 543 CURVE",
"285 573 OFFCURVE",
"305 597 OFFCURVE",
"337 614 CURVE",
"371 630 OFFCURVE",
"413 639 OFFCURVE",
"466 639 CURVE SMOOTH",
"485 639 OFFCURVE",
"518 638 OFFCURVE",
"564 634 CURVE SMOOTH",
"609 630 OFFCURVE",
"643 629 OFFCURVE",
"666 629 CURVE SMOOTH",
"696 629 OFFCURVE",
"723 630 OFFCURVE",
"746 634 CURVE SMOOTH",
"770 638 OFFCURVE",
"791 644 OFFCURVE",
"815 653 CURVE SMOOTH",
"839 661 OFFCURVE",
"856 674 OFFCURVE",
"867 693 CURVE",
"849 685 OFFCURVE",
"831 680 OFFCURVE",
"815 678 CURVE",
"796 674 OFFCURVE",
"780 673 OFFCURVE",
"761 673 CURVE SMOOTH",
"741 673 OFFCURVE",
"705 676 OFFCURVE",
"646 685 CURVE SMOOTH",
"589 693 OFFCURVE",
"547 696 OFFCURVE",
"520 696 CURVE SMOOTH",
"505 696 LINE SMOOTH",
"499 696 OFFCURVE",
"493 696 OFFCURVE",
"484 695 CURVE"
);
}
);
width = 701;
}
);
note = S;
unicode = 0053;
},
{
glyphname = T;
lastChange = "2017-12-19 09:07:32 +0000";
layers = (
{
layerId = "0B1DFD06-3317-40CA-B510-4969A0718C16";
paths = (
{
closed = 1;
nodes = (
"816 676 OFFCURVE",
"790 675 OFFCURVE",
"764 675 CURVE SMOOTH",
"740 675 OFFCURVE",
"699 679 OFFCURVE",
"635 688 CURVE SMOOTH",
"574 698 OFFCURVE",
"528 701 OFFCURVE",
"498 701 CURVE SMOOTH",
"484 701 OFFCURVE",
"470 701 OFFCURVE",
"454 700 CURVE SMOOTH",
"438 699 OFFCURVE",
"413 695 OFFCURVE",
"374 686 CURVE SMOOTH",
"337 679 OFFCURVE",
"298 664 OFFCURVE",
"260 640 CURVE",
"218 618 OFFCURVE",
"195 594 OFFCURVE",
"187 568 CURVE",
"178 543 OFFCURVE",
"175 528 OFFCURVE",
"175 524 CURVE SMOOTH",
"175 520 OFFCURVE",
"173 515 OFFCURVE",
"173 509 CURVE SMOOTH",
"173 495 OFFCURVE",
"177 482 OFFCURVE",
"183 468 CURVE",
"190 456 OFFCURVE",
"200 444 OFFCURVE",
"211 433 CURVE",
"178 397 OFFCURVE",
"151 358 OFFCURVE",
"130 316 CURVE SMOOTH",
"110 275 OFFCURVE",
"100 233 OFFCURVE",
"100 192 CURVE SMOOTH",
"100 163 OFFCURVE",
"105 137 OFFCURVE",
"115 111 CURVE SMOOTH",
"126 84 OFFCURVE",
"145 61 OFFCURVE",
"170 42 CURVE SMOOTH",
"197 22 OFFCURVE",
"222 11 OFFCURVE",
"243 7 CURVE SMOOTH",
"286 -1 LINE",
"311 -1 LINE SMOOTH",
"364 -1 OFFCURVE",
"416 12 OFFCURVE",
"464 40 CURVE SMOOTH",
"513 66 OFFCURVE",
"558 104 OFFCURVE",
"604 150 CURVE",
"597 158 LINE",
"563 120 OFFCURVE",
"529 94 OFFCURVE",
"495 70 CURVE",
"462 49 OFFCURVE",
"423 37 OFFCURVE",
"381 37 CURVE SMOOTH",
"339 37 OFFCURVE",
"305 42 OFFCURVE",
"276 51 CURVE",
"247 61 OFFCURVE",
"225 76 OFFCURVE",
"208 97 CURVE SMOOTH",
"192 120 OFFCURVE",
"181 139 OFFCURVE",
"176 154 CURVE SMOOTH",
"171 170 OFFCURVE",
"168 187 OFFCURVE",
"168 208 CURVE SMOOTH",
"168 222 OFFCURVE",
"171 238 OFFCURVE",
"175 257 CURVE SMOOTH",
"178 273 OFFCURVE",
"182 291 OFFCURVE",
"187 307 CURVE",
"197 331 OFFCURVE",
"206 349 OFFCURVE",
"215 366 CURVE",
"222 382 OFFCURVE",
"235 397 OFFCURVE",
"251 412 CURVE",
"271 403 OFFCURVE",
"293 399 OFFCURVE",
"317 399 CURVE SMOOTH",
"359 399 OFFCURVE",
"396 409 OFFCURVE",
"427 431 CURVE",
"461 452 OFFCURVE",
"492 475 OFFCURVE",
"527 500 CURVE",
"508 462 OFFCURVE",
"490 424 OFFCURVE",
"467 386 CURVE SMOOTH",
"443 347 OFFCURVE",
"416 302 OFFCURVE",
"381 248 CURVE SMOOTH",
"298 119 LINE",
"303 119 OFFCURVE",
"312 117 OFFCURVE",
"322 117 CURVE",
"333 116 OFFCURVE",
"343 116 OFFCURVE",
"353 116 CURVE SMOOTH",
"362 116 OFFCURVE",
"372 116 OFFCURVE",
"381 117 CURVE SMOOTH",
"389 119 OFFCURVE",
"398 119 OFFCURVE",
"404 122 CURVE",
"417 175 OFFCURVE",
"433 226 OFFCURVE",
"453 275 CURVE",
"472 326 OFFCURVE",
"494 379 OFFCURVE",
"518 434 CURVE SMOOTH",
"589 597 LINE",
"582 597 LINE",
"574 579 OFFCURVE",
"564 563 OFFCURVE",
"553 548 CURVE SMOOTH",
"543 534 OFFCURVE",
"523 515 OFFCURVE",
"497 490 CURVE SMOOTH",
"470 467 OFFCURVE",
"443 447 OFFCURVE",
"412 431 CURVE SMOOTH",
"381 414 OFFCURVE",
"349 407 OFFCURVE",
"318 407 CURVE SMOOTH",
"297 407 OFFCURVE",
"276 411 OFFCURVE",
"255 418 CURVE",
"278 453 OFFCURVE",
"307 484 OFFCURVE",
"341 510 CURVE",
"376 535 OFFCURVE",
"414 557 OFFCURVE",
"454 570 CURVE",
"454 575 LINE",
"413 564 OFFCURVE",
"372 548 OFFCURVE",
"331 524 CURVE SMOOTH",
"291 500 OFFCURVE",
"252 472 OFFCURVE",
"216 438 CURVE",
"192 462 OFFCURVE",
"181 488 OFFCURVE",
"181 514 CURVE SMOOTH",
"181 529 OFFCURVE",
"188 549 OFFCURVE",
"203 574 CURVE SMOOTH",
"217 598 OFFCURVE",
"241 617 OFFCURVE",
"277 630 CURVE SMOOTH",
"311 644 OFFCURVE",
"352 650 OFFCURVE",
"401 650 CURVE SMOOTH",
"424 650 OFFCURVE",
"466 648 OFFCURVE",
"529 641 CURVE SMOOTH",
"590 635 OFFCURVE",
"633 631 OFFCURVE",
"656 631 CURVE SMOOTH",
"706 631 OFFCURVE",
"751 636 OFFCURVE",
"790 646 CURVE SMOOTH",
"826 655 OFFCURVE",
"859 674 OFFCURVE",
"886 701 CURVE",
"881 703 OFFCURVE",
"874 700 OFFCURVE",
"864 694 CURVE SMOOTH",
"854 688 OFFCURVE",
"846 684 OFFCURVE",
"841 683 CURVE SMOOTH"
);
}
);
width = 628;
}
);
note = T;
unicode = 0054;
},
{
glyphname = U;
lastChange = "2017-12-19 09:07:32 +0000";
layers = (
{
layerId = "0B1DFD06-3317-40CA-B510-4969A0718C16";
paths = (
{
closed = 1;
nodes = (
"539 701 LINE",
"512 688 OFFCURVE",
"478 679 OFFCURVE",
"439 673 CURVE SMOOTH",
"322 656 LINE",
"281 649 OFFCURVE",
"246 635 OFFCURVE",
"216 617 CURVE SMOOTH",
"186 597 OFFCURVE",
"162 573 OFFCURVE",
"142 547 CURVE SMOOTH",
"124 520 OFFCURVE",
"114 489 OFFCURVE",
"114 456 CURVE SMOOTH",
"114 434 OFFCURVE",
"117 416 OFFCURVE",
"125 398 CURVE SMOOTH",
"132 379 OFFCURVE",
"144 366 OFFCURVE",
"158 354 CURVE",
"137 326 OFFCURVE",
"120 298 OFFCURVE",
"109 272 CURVE SMOOTH",
"97 246 OFFCURVE",
"89 220 OFFCURVE",
"84 193 CURVE",
"77 167 OFFCURVE",
"75 144 OFFCURVE",
"75 124 CURVE SMOOTH",
"75 97 OFFCURVE",
"80 74 OFFCURVE",
"90 54 CURVE",
"99 34 OFFCURVE",
"112 20 OFFCURVE",
"131 11 CURVE SMOOTH",
"149 2 OFFCURVE",
"165 -5 OFFCURVE",
"181 -9 CURVE",
"195 -11 OFFCURVE",
"208 -12 OFFCURVE",
"222 -12 CURVE SMOOTH",
"263 -12 OFFCURVE",
"301 0 OFFCURVE",
"337 26 CURVE SMOOTH",
"372 51 OFFCURVE",
"407 85 OFFCURVE",
"442 127 CURVE SMOOTH",
"539 247 LINE",
"528 220 OFFCURVE",
"515 193 OFFCURVE",
"502 170 CURVE SMOOTH",
"488 145 OFFCURVE",
"472 117 OFFCURVE",
"453 91 CURVE SMOOTH",
"398 9 LINE",
"409 6 OFFCURVE",
"418 5 OFFCURVE",
"426 5 CURVE",
"432 4 OFFCURVE",
"443 4 OFFCURVE",
"458 4 CURVE SMOOTH",
"464 4 OFFCURVE",
"475 4 OFFCURVE",
"489 5 CURVE",
"522 5 LINE",
"540 84 OFFCURVE",
"564 160 OFFCURVE",
"590 232 CURVE SMOOTH",
"618 306 OFFCURVE",
"648 378 OFFCURVE",
"680 449 CURVE SMOOTH",
"799 696 LINE",
"787 700 LINE",
"766 660 OFFCURVE",
"743 626 OFFCURVE",
"719 600 CURVE SMOOTH",
"695 575 OFFCURVE",
"673 557 OFFCURVE",
"648 543 CURVE SMOOTH",
"624 529 OFFCURVE",
"605 523 OFFCURVE",
"592 523 CURVE SMOOTH",
"583 523 OFFCURVE",
"575 524 OFFCURVE",
"569 528 CURVE SMOOTH",
"563 532 OFFCURVE",
"557 535 OFFCURVE",
"553 539 CURVE",
"549 545 OFFCURVE",
"548 550 OFFCURVE",
"548 552 CURVE SMOOTH",
"548 555 OFFCURVE",
"549 560 OFFCURVE",
"552 564 CURVE SMOOTH",
"554 568 OFFCURVE",
"559 573 OFFCURVE",
"567 579 CURVE",
"573 585 OFFCURVE",
"583 588 OFFCURVE",
"597 588 CURVE SMOOTH",
"608 588 OFFCURVE",
"618 587 OFFCURVE",
"631 583 CURVE",
"624 588 OFFCURVE",
"617 592 OFFCURVE",
"608 594 CURVE SMOOTH",
"598 597 OFFCURVE",
"588 598 OFFCURVE",
"578 598 CURVE SMOOTH",
"569 598 OFFCURVE",
"558 595 OFFCURVE",
"545 592 CURVE",
"534 585 OFFCURVE",
"525 579 OFFCURVE",
"522 572 CURVE",
"515 565 OFFCURVE",
"513 557 OFFCURVE",
"513 545 CURVE SMOOTH",
"513 539 OFFCURVE",
"514 535 OFFCURVE",
"515 533 CURVE SMOOTH",
"518 528 OFFCURVE",
"522 524 OFFCURVE",
"528 520 CURVE",
"549 510 LINE",
"558 509 OFFCURVE",
"567 508 OFFCURVE",
"575 508 CURVE SMOOTH",
"599 508 OFFCURVE",
"622 514 OFFCURVE",
"641 527 CURVE SMOOTH",
"660 539 OFFCURVE",
"689 560 OFFCURVE",
"726 589 CURVE",
"721 565 OFFCURVE",
"713 545 OFFCURVE",
"703 524 CURVE",
"691 504 OFFCURVE",
"683 487 OFFCURVE",
"674 473 CURVE SMOOTH",
"665 459 OFFCURVE",
"640 424 OFFCURVE",
"602 366 CURVE SMOOTH",
"563 307 OFFCURVE",
"532 262 OFFCURVE",
"508 231 CURVE",
"484 197 OFFCURVE",
"454 166 OFFCURVE",
"418 131 CURVE SMOOTH",
"383 97 OFFCURVE",
"353 72 OFFCURVE",
"324 59 CURVE",
"298 45 OFFCURVE",
"282 39 OFFCURVE",
"276 35 CURVE",
"270 34 OFFCURVE",
"261 32 OFFCURVE",
"252 32 CURVE SMOOTH",
"241 32 OFFCURVE",
"228 35 OFFCURVE",
"217 41 CURVE SMOOTH",
"206 47 OFFCURVE",
"195 55 OFFCURVE",
"186 69 CURVE",
"175 82 OFFCURVE",
"167 97 OFFCURVE",
"163 114 CURVE",
"158 130 OFFCURVE",
"156 147 OFFCURVE",
"156 166 CURVE SMOOTH",
"156 187 OFFCURVE",
"160 211 OFFCURVE",
"167 236 CURVE",
"173 262 OFFCURVE",
"187 295 OFFCURVE",
"206 331 CURVE",
"228 322 OFFCURVE",
"247 317 OFFCURVE",
"262 317 CURVE SMOOTH",
"271 317 OFFCURVE",
"281 318 OFFCURVE",
"292 321 CURVE",
"303 324 OFFCURVE",
"317 327 OFFCURVE",
"333 333 CURVE",
"349 338 OFFCURVE",
"364 349 OFFCURVE",
"379 364 CURVE SMOOTH",
"394 379 OFFCURVE",
"406 398 OFFCURVE",
"413 419 CURVE SMOOTH",
"414 423 OFFCURVE",
"414 424 OFFCURVE",
"412 424 CURVE",
"409 426 OFFCURVE",
"407 426 OFFCURVE",
"406 424 CURVE",
"392 398 OFFCURVE",
"381 378 OFFCURVE",
"372 368 CURVE SMOOTH",
"362 357 OFFCURVE",
"347 348 OFFCURVE",
"328 342 CURVE SMOOTH",
"291 331 LINE SMOOTH",
"287 329 OFFCURVE",
"278 329 OFFCURVE",
"267 329 CURVE SMOOTH",
"257 329 OFFCURVE",
"248 328 OFFCURVE",
"240 332 CURVE",
"231 334 OFFCURVE",
"221 338 OFFCURVE",
"210 343 CURVE",
"251 413 OFFCURVE",
"301 478 OFFCURVE",
"357 539 CURVE SMOOTH",
"413 599 OFFCURVE",
"475 653 OFFCURVE",
"543 700 CURVE"
);
},
{
closed = 1;
nodes = (
"271 634 OFFCURVE",
"301 644 OFFCURVE",
"337 648 CURVE SMOOTH",
"369 651 OFFCURVE",
"411 655 OFFCURVE",
"459 659 CURVE",
"344 559 LINE SMOOTH",
"311 530 OFFCURVE",
"282 502 OFFCURVE",
"251 468 CURVE SMOOTH",
"221 437 OFFCURVE",
"192 403 OFFCURVE",
"166 367 CURVE",
"150 381 OFFCURVE",
"140 396 OFFCURVE",
"135 412 CURVE SMOOTH",
"130 427 OFFCURVE",
"127 446 OFFCURVE",
"127 467 CURVE SMOOTH",
"127 492 OFFCURVE",
"136 517 OFFCURVE",
"154 540 CURVE",
"170 565 OFFCURVE",
"202 592 OFFCURVE",
"247 620 CURVE"
);
}
);
width = 735;
}
);
note = U;
unicode = 0055;
},
{
glyphname = V;
lastChange = "2017-12-19 09:07:32 +0000";
layers = (
{
layerId = "0B1DFD06-3317-40CA-B510-4969A0718C16";
paths = (
{
closed = 1;
nodes = (
"598 685 OFFCURVE",
"595 675 OFFCURVE",
"595 666 CURVE SMOOTH",
"595 648 OFFCURVE",
"602 629 OFFCURVE",
"615 608 CURVE SMOOTH",
"628 589 OFFCURVE",
"640 572 OFFCURVE",
"653 555 CURVE",
"633 489 OFFCURVE",
"604 429 OFFCURVE",
"565 373 CURVE SMOOTH",
"529 318 OFFCURVE",
"485 266 OFFCURVE",
"436 216 CURVE SMOOTH",
"387 167 OFFCURVE",
"331 117 OFFCURVE",
"266 64 CURVE",
"247 110 OFFCURVE",
"233 151 OFFCURVE",
"227 190 CURVE SMOOTH",
"221 228 OFFCURVE",
"217 252 OFFCURVE",
"217 267 CURVE SMOOTH",
"217 276 OFFCURVE",
"218 286 OFFCURVE",
"218 302 CURVE",
"222 339 LINE",
"246 339 OFFCURVE",
"267 344 OFFCURVE",
"286 356 CURVE",
"307 366 OFFCURVE",
"323 381 OFFCURVE",
"336 401 CURVE",
"307 374 OFFCURVE",
"287 361 OFFCURVE",
"276 357 CURVE",
"266 352 OFFCURVE",
"253 349 OFFCURVE",
"237 349 CURVE SMOOTH",
"231 349 OFFCURVE",
"226 349 OFFCURVE",
"225 351 CURVE",
"225 409 OFFCURVE",
"247 470 OFFCURVE",
"291 533 CURVE",
"422 690 LINE",
"246 648 LINE SMOOTH",
"186 633 OFFCURVE",
"142 608 OFFCURVE",
"115 573 CURVE SMOOTH",
"89 539 OFFCURVE",
"75 504 OFFCURVE",
"75 468 CURVE SMOOTH",
"75 454 OFFCURVE",
"79 432 OFFCURVE",
"86 402 CURVE",
"95 372 OFFCURVE",
"119 353 OFFCURVE",
"157 344 CURVE",
"150 305 OFFCURVE",
"146 266 OFFCURVE",
"146 230 CURVE SMOOTH",
"146 201 OFFCURVE",
"149 171 OFFCURVE",
"154 141 CURVE SMOOTH",
"158 110 OFFCURVE",
"165 84 OFFCURVE",
"172 62 CURVE SMOOTH",
"180 41 OFFCURVE",
"186 27 OFFCURVE",
"191 21 CURVE",
"193 15 OFFCURVE",
"201 7 OFFCURVE",
"213 -1 CURVE",
"305 72 LINE SMOOTH",
"336 97 OFFCURVE",
"364 122 OFFCURVE",
"392 149 CURVE SMOOTH",
"418 173 OFFCURVE",
"446 202 OFFCURVE",
"475 237 CURVE SMOOTH",
"545 319 LINE",
"562 341 OFFCURVE",
"578 364 OFFCURVE",
"594 393 CURVE SMOOTH",
"609 422 OFFCURVE",
"623 447 OFFCURVE",
"633 473 CURVE SMOOTH",
"663 549 LINE",
"669 543 OFFCURVE",
"676 537 OFFCURVE",
"684 532 CURVE",
"691 525 OFFCURVE",
"698 522 OFFCURVE",
"703 520 CURVE",
"698 533 LINE",
"689 538 OFFCURVE",
"685 543 OFFCURVE",
"681 547 CURVE",
"669 562 LINE",
"675 593 OFFCURVE",
"679 615 OFFCURVE",
"679 631 CURVE SMOOTH",
"679 644 OFFCURVE",
"678 656 OFFCURVE",
"675 669 CURVE SMOOTH",
"673 683 OFFCURVE",
"666 693 OFFCURVE",
"656 701 CURVE",
"648 710 OFFCURVE",
"638 714 OFFCURVE",
"626 714 CURVE SMOOTH",
"615 714 OFFCURVE",
"608 708 OFFCURVE",
"602 695 CURVE"
);
},
{
closed = 1;
nodes = (
"351 635 OFFCURVE",
"318 603 OFFCURVE",
"290 572 CURVE SMOOTH",
"261 540 OFFCURVE",
"236 507 OFFCURVE",
"212 468 CURVE SMOOTH",
"188 428 OFFCURVE",
"171 389 OFFCURVE",
"161 353 CURVE",
"142 357 OFFCURVE",
"127 364 OFFCURVE",
"115 377 CURVE SMOOTH",
"104 388 OFFCURVE",
"96 401 OFFCURVE",
"94 414 CURVE SMOOTH",
"89 443 LINE SMOOTH",
"87 452 OFFCURVE",
"86 458 OFFCURVE",
"86 467 CURVE SMOOTH",
"86 484 OFFCURVE",
"92 507 OFFCURVE",
"105 534 CURVE SMOOTH",
"117 562 OFFCURVE",
"139 584 OFFCURVE",
"170 603 CURVE SMOOTH",
"201 622 OFFCURVE",
"237 635 OFFCURVE",
"276 644 CURVE SMOOTH",
"314 654 OFFCURVE",
"353 661 OFFCURVE",
"389 670 CURVE"
);
},
{
closed = 1;
nodes = (
"641 674 OFFCURVE",
"648 669 OFFCURVE",
"653 656 CURVE",
"656 641 OFFCURVE",
"659 626 OFFCURVE",
"659 613 CURVE SMOOTH",
"659 573 LINE",
"643 592 OFFCURVE",
"633 604 OFFCURVE",
"629 610 CURVE",
"625 619 OFFCURVE",
"624 625 OFFCURVE",
"624 635 CURVE SMOOTH",
"624 643 LINE SMOOTH",
"624 646 OFFCURVE",
"625 653 OFFCURVE",
"626 659 CURVE",
"628 664 OFFCURVE",
"631 668 OFFCURVE",
"635 670 CURVE"
);
}
);
width = 641;
}
);
note = V;
unicode = 0056;
},
{
glyphname = W;
lastChange = "2017-12-19 09:07:32 +0000";
layers = (
{
layerId = "0B1DFD06-3317-40CA-B510-4969A0718C16";
paths = (
{
closed = 1;
nodes = (
"584 671 OFFCURVE",
"543 628 OFFCURVE",
"515 583 CURVE SMOOTH",
"489 539 OFFCURVE",
"473 502 OFFCURVE",
"467 469 CURVE SMOOTH",
"462 438 OFFCURVE",
"453 378 OFFCURVE",
"442 285 CURVE",
"426 263 OFFCURVE",
"409 243 OFFCURVE",
"391 223 CURVE SMOOTH",
"321 152 LINE SMOOTH",
"292 124 OFFCURVE",
"270 104 OFFCURVE",
"255 85 CURVE",
"251 104 OFFCURVE",
"243 130 OFFCURVE",
"233 168 CURVE SMOOTH",
"223 206 OFFCURVE",
"218 242 OFFCURVE",
"218 276 CURVE SMOOTH",
"218 296 OFFCURVE",
"220 314 OFFCURVE",
"223 334 CURVE",
"245 334 OFFCURVE",
"265 342 OFFCURVE",
"282 356 CURVE",
"301 372 OFFCURVE",
"317 388 OFFCURVE",
"331 412 CURVE",
"323 419 LINE",
"303 396 OFFCURVE",
"286 378 OFFCURVE",
"271 367 CURVE",
"257 356 OFFCURVE",
"241 349 OFFCURVE",
"222 349 CURVE",
"228 396 OFFCURVE",
"242 443 OFFCURVE",
"263 490 CURVE SMOOTH",
"285 537 OFFCURVE",
"312 579 OFFCURVE",
"343 623 CURVE",
"429 704 LINE",
"423 705 OFFCURVE",
"419 705 OFFCURVE",
"417 704 CURVE",
"389 688 OFFCURVE",
"348 673 OFFCURVE",
"295 659 CURVE SMOOTH",
"241 644 OFFCURVE",
"201 633 OFFCURVE",
"175 623 CURVE",
"149 612 OFFCURVE",
"124 595 OFFCURVE",
"100 567 CURVE SMOOTH",
"76 538 OFFCURVE",
"64 505 OFFCURVE",
"64 467 CURVE SMOOTH",
"64 442 OFFCURVE",
"69 419 OFFCURVE",
"77 399 CURVE",
"87 381 OFFCURVE",
"99 367 OFFCURVE",
"110 359 CURVE",
"122 349 OFFCURVE",
"141 342 OFFCURVE",
"166 336 CURVE",
"158 287 LINE",
"158 276 OFFCURVE",
"157 257 OFFCURVE",
"157 228 CURVE SMOOTH",
"157 205 OFFCURVE",
"158 178 OFFCURVE",
"161 151 CURVE SMOOTH",
"163 122 OFFCURVE",
"168 77 OFFCURVE",
"176 17 CURVE",
"177 14 OFFCURVE",
"178 10 OFFCURVE",
"182 6 CURVE SMOOTH",
"186 2 OFFCURVE",
"190 1 OFFCURVE",
"193 2 CURVE",
"262 70 LINE SMOOTH",
"281 89 OFFCURVE",
"310 116 OFFCURVE",
"349 160 CURVE SMOOTH",
"388 202 OFFCURVE",
"419 233 OFFCURVE",
"443 253 CURVE",
"443 198 OFFCURVE",
"444 158 OFFCURVE",
"446 135 CURVE",
"448 111 OFFCURVE",
"452 86 OFFCURVE",
"457 60 CURVE SMOOTH",
"462 34 OFFCURVE",
"466 17 OFFCURVE",
"468 14 CURVE",
"470 7 OFFCURVE",
"474 5 OFFCURVE",
"478 5 CURVE SMOOTH",
"479 5 OFFCURVE",
"498 20 OFFCURVE",
"534 49 CURVE",
"568 77 OFFCURVE",
"612 120 OFFCURVE",
"665 176 CURVE SMOOTH",
"718 232 OFFCURVE",
"764 292 OFFCURVE",
"804 356 CURVE SMOOTH",
"844 418 OFFCURVE",
"874 484 OFFCURVE",
"894 554 CURVE",
"902 548 OFFCURVE",
"910 543 OFFCURVE",
"914 542 CURVE SMOOTH",
"926 538 LINE",
"926 543 LINE",
"916 547 OFFCURVE",
"906 554 OFFCURVE",
"896 565 CURVE",
"901 594 LINE",
"901 600 OFFCURVE",
"902 610 OFFCURVE",
"902 620 CURVE SMOOTH",
"902 631 OFFCURVE",
"901 644 OFFCURVE",
"897 655 CURVE",
"894 669 OFFCURVE",
"890 678 OFFCURVE",
"885 686 CURVE",
"880 694 OFFCURVE",
"872 701 OFFCURVE",
"864 708 CURVE SMOOTH",
"855 714 OFFCURVE",
"849 718 OFFCURVE",
"844 718 CURVE SMOOTH",
"840 718 OFFCURVE",
"836 715 OFFCURVE",
"832 709 CURVE",
"825 691 LINE",
"822 686 OFFCURVE",
"821 680 OFFCURVE",
"821 671 CURVE SMOOTH",
"821 655 OFFCURVE",
"827 639 OFFCURVE",
"840 623 CURVE",
"885 559 LINE",
"867 498 OFFCURVE",
"845 443 OFFCURVE",
"817 394 CURVE SMOOTH",
"789 344 OFFCURVE",
"755 297 OFFCURVE",
"715 252 CURVE SMOOTH",
"674 203 OFFCURVE",
"619 147 OFFCURVE",
"545 77 CURVE",
"532 114 OFFCURVE",
"522 155 OFFCURVE",
"517 198 CURVE SMOOTH",
"510 245 OFFCURVE",
"508 291 OFFCURVE",
"508 339 CURVE",
"585 448 LINE SMOOTH",
"614 487 OFFCURVE",
"634 524 OFFCURVE",
"648 563 CURVE SMOOTH",
"663 602 OFFCURVE",
"670 645 OFFCURVE",
"670 696 CURVE SMOOTH",
"670 701 OFFCURVE",
"668 706 OFFCURVE",
"663 711 CURVE SMOOTH",
"659 715 OFFCURVE",
"654 718 OFFCURVE",
"648 718 CURVE SMOOTH",
"646 718 OFFCURVE",
"644 716 OFFCURVE",
"640 715 CURVE"
);
},
{
closed = 1;
nodes = (
"286 646 LINE SMOOTH",
"295 650 OFFCURVE",
"305 653 OFFCURVE",
"314 654 CURVE",
"343 659 LINE",
"266 568 LINE",
"241 532 OFFCURVE",
"221 495 OFFCURVE",
"205 459 CURVE SMOOTH",
"190 424 OFFCURVE",
"178 388 OFFCURVE",
"170 349 CURVE",
"149 356 OFFCURVE",
"132 362 OFFCURVE",
"121 371 CURVE SMOOTH",
"111 378 OFFCURVE",
"101 389 OFFCURVE",
"91 404 CURVE",
"82 421 OFFCURVE",
"77 438 OFFCURVE",
"77 458 CURVE SMOOTH",
"77 490 OFFCURVE",
"89 520 OFFCURVE",
"111 548 CURVE SMOOTH",
"134 575 OFFCURVE",
"160 595 OFFCURVE",
"191 609 CURVE"
);
},
{
closed = 1;
nodes = (
"615 685 OFFCURVE",
"618 686 OFFCURVE",
"622 686 CURVE SMOOTH",
"628 686 OFFCURVE",
"633 684 OFFCURVE",
"636 680 CURVE SMOOTH",
"640 676 OFFCURVE",
"643 670 OFFCURVE",
"643 664 CURVE SMOOTH",
"643 630 OFFCURVE",
"636 598 OFFCURVE",
"625 564 CURVE SMOOTH",
"614 533 OFFCURVE",
"599 502 OFFCURVE",
"583 473 CURVE",
"564 444 OFFCURVE",
"544 412 OFFCURVE",
"515 373 CURVE",
"509 373 LINE",
"509 439 OFFCURVE",
"517 498 OFFCURVE",
"530 550 CURVE SMOOTH",
"544 602 OFFCURVE",
"570 646 OFFCURVE",
"612 683 CURVE"
);
},
{
closed = 1;
nodes = (
"875 674 OFFCURVE",
"880 661 OFFCURVE",
"882 640 CURVE",
"886 622 OFFCURVE",
"887 599 OFFCURVE",
"887 574 CURVE",
"855 628 LINE",
"847 643 OFFCURVE",
"844 655 OFFCURVE",
"844 664 CURVE SMOOTH",
"844 665 OFFCURVE",
"845 669 OFFCURVE",
"846 674 CURVE SMOOTH",
"847 679 OFFCURVE",
"851 681 OFFCURVE",
"857 681 CURVE SMOOTH",
"859 681 OFFCURVE",
"862 680 OFFCURVE",
"867 679 CURVE"
);
}
);
width = 875;
}
);
note = W;
unicode = 0057;
},
{
glyphname = X;
lastChange = "2017-12-19 09:07:32 +0000";
layers = (
{
layerId = "0B1DFD06-3317-40CA-B510-4969A0718C16";
paths = (
{
closed = 1;
nodes = (
"816 684 OFFCURVE",
"756 643 OFFCURVE",
"704 582 CURVE",
"575 403 LINE",
"575 407 OFFCURVE",
"577 448 OFFCURVE",
"579 527 CURVE SMOOTH",
"580 605 OFFCURVE",
"582 661 OFFCURVE",
"582 700 CURVE",
"573 704 LINE",
"547 659 OFFCURVE",
"514 623 OFFCURVE",
"477 594 CURVE SMOOTH",
"441 565 OFFCURVE",
"398 552 OFFCURVE",
"349 552 CURVE SMOOTH",
"339 552 OFFCURVE",
"329 553 OFFCURVE",
"319 554 CURVE SMOOTH",
"308 555 OFFCURVE",
"301 560 OFFCURVE",
"295 569 CURVE",
"288 577 OFFCURVE",
"285 587 OFFCURVE",
"285 598 CURVE SMOOTH",
"285 604 OFFCURVE",
"287 613 OFFCURVE",
"293 622 CURVE",
"298 630 OFFCURVE",
"308 639 OFFCURVE",
"323 645 CURVE SMOOTH",
"337 651 OFFCURVE",
"356 654 OFFCURVE",
"377 654 CURVE SMOOTH",
"383 654 OFFCURVE",
"397 653 OFFCURVE",
"419 650 CURVE SMOOTH",
"441 648 OFFCURVE",
"454 646 OFFCURVE",
"463 646 CURVE",
"463 650 LINE",
"461 650 OFFCURVE",
"453 654 OFFCURVE",
"442 660 CURVE",
"409 674 LINE SMOOTH",
"401 678 OFFCURVE",
"391 678 OFFCURVE",
"381 679 CURVE SMOOTH",
"369 680 OFFCURVE",
"359 681 OFFCURVE",
"349 681 CURVE SMOOTH",
"321 681 OFFCURVE",
"297 676 OFFCURVE",
"276 666 CURVE",
"255 655 OFFCURVE",
"242 641 OFFCURVE",
"236 628 CURVE",
"230 612 OFFCURVE",
"226 600 OFFCURVE",
"226 593 CURVE SMOOTH",
"226 572 OFFCURVE",
"237 553 OFFCURVE",
"260 538 CURVE",
"283 524 OFFCURVE",
"308 517 OFFCURVE",
"336 517 CURVE SMOOTH",
"374 517 OFFCURVE",
"413 529 OFFCURVE",
"452 555 CURVE SMOOTH",
"492 582 OFFCURVE",
"528 615 OFFCURVE",
"562 654 CURVE",
"563 640 OFFCURVE",
"563 630 OFFCURVE",
"563 617 CURVE SMOOTH",
"563 593 OFFCURVE",
"560 557 OFFCURVE",
"554 503 CURVE SMOOTH",
"549 451 OFFCURVE",
"547 407 OFFCURVE",
"547 373 CURVE",
"528 374 OFFCURVE",
"512 376 OFFCURVE",
"493 376 CURVE SMOOTH",
"462 376 OFFCURVE",
"429 372 OFFCURVE",
"398 366 CURVE",
"367 357 OFFCURVE",
"332 344 OFFCURVE",
"293 327 CURVE SMOOTH",
"255 308 OFFCURVE",
"216 286 OFFCURVE",
"177 257 CURVE",
"139 231 OFFCURVE",
"106 200 OFFCURVE",
"80 161 CURVE SMOOTH",
"54 122 OFFCURVE",
"40 82 OFFCURVE",
"40 40 CURVE SMOOTH",
"40 27 OFFCURVE",
"44 17 OFFCURVE",
"51 9 CURVE SMOOTH",
"57 1 OFFCURVE",
"67 -4 OFFCURVE",
"81 -6 CURVE",
"95 -7 OFFCURVE",
"105 -7 OFFCURVE",
"119 -7 CURVE SMOOTH",
"177 -7 OFFCURVE",
"231 10 OFFCURVE",
"277 46 CURVE SMOOTH",
"324 81 OFFCURVE",
"377 135 OFFCURVE",
"434 207 CURVE SMOOTH",
"492 280 OFFCURVE",
"529 324 OFFCURVE",
"547 342 CURVE",
"543 323 OFFCURVE",
"538 286 OFFCURVE",
"532 231 CURVE SMOOTH",
"527 177 OFFCURVE",
"522 135 OFFCURVE",
"518 101 CURVE",
"513 67 OFFCURVE",
"507 36 OFFCURVE",
"498 6 CURVE",
"507 2 OFFCURVE",
"512 1 OFFCURVE",
"517 1 CURVE",
"519 0 OFFCURVE",
"525 0 OFFCURVE",
"537 0 CURVE SMOOTH",
"540 0 OFFCURVE",
"548 0 OFFCURVE",
"563 1 CURVE SMOOTH",
"578 2 OFFCURVE",
"590 4 OFFCURVE",
"599 4 CURVE SMOOTH",
"609 4 LINE SMOOTH",
"613 4 OFFCURVE",
"615 2 OFFCURVE",
"619 2 CURVE",
"605 62 OFFCURVE",
"598 121 OFFCURVE",
"589 182 CURVE",
"583 241 OFFCURVE",
"579 301 OFFCURVE",
"579 359 CURVE",
"609 359 OFFCURVE",
"635 351 OFFCURVE",
"656 334 CURVE",
"713 283 LINE",
"681 324 OFFCURVE",
"659 349 OFFCURVE",
"645 357 CURVE SMOOTH",
"634 363 OFFCURVE",
"613 369 OFFCURVE",
"579 374 CURVE",
"579 383 LINE",
"597 404 OFFCURVE",
"620 436 OFFCURVE",
"649 475 CURVE SMOOTH",
"679 517 OFFCURVE",
"704 549 OFFCURVE",
"724 573 CURVE SMOOTH",
"744 598 OFFCURVE",
"766 620 OFFCURVE",
"791 640 CURVE",
"815 661 OFFCURVE",
"837 671 OFFCURVE",
"860 671 CURVE SMOOTH",
"876 671 OFFCURVE",
"894 666 OFFCURVE",
"911 656 CURVE SMOOTH",
"929 646 OFFCURVE",
"937 631 OFFCURVE",
"937 613 CURVE SMOOTH",
"937 609 OFFCURVE",
"938 603 OFFCURVE",
"935 593 CURVE",
"934 583 OFFCURVE",
"927 575 OFFCURVE",
"919 569 CURVE",
"910 560 OFFCURVE",
"897 557 OFFCURVE",
"882 548 CURVE SMOOTH",
"866 539 OFFCURVE",
"855 535 OFFCURVE",
"846 534 CURVE SMOOTH",
"837 533 OFFCURVE",
"830 532 OFFCURVE",
"820 532 CURVE SMOOTH",
"811 532 OFFCURVE",
"807 532 OFFCURVE",
"799 533 CURVE",
"792 533 OFFCURVE",
"787 533 OFFCURVE",
"779 534 CURVE",
"800 527 OFFCURVE",
"820 523 OFFCURVE",
"841 523 CURVE SMOOTH",
"870 523 OFFCURVE",
"899 530 OFFCURVE",
"927 544 CURVE SMOOTH",
"956 558 OFFCURVE",
"975 573 OFFCURVE",
"982 589 CURVE",
"992 605 OFFCURVE",
"997 618 OFFCURVE",
"997 628 CURVE SMOOTH",
"997 638 OFFCURVE",
"995 648 OFFCURVE",
"990 658 CURVE",
"983 668 OFFCURVE",
"975 679 OFFCURVE",
"963 690 CURVE SMOOTH",
"951 703 OFFCURVE",
"935 709 OFFCURVE",
"914 709 CURVE SMOOTH",
"905 709 OFFCURVE",
"895 708 OFFCURVE",
"885 705 CURVE"
);
},
{
closed = 1;
nodes = (
"535 351 LINE",
"449 246 LINE SMOOTH",
"398 185 OFFCURVE",
"353 137 OFFCURVE",
"314 102 CURVE SMOOTH",
"276 67 OFFCURVE",
"243 46 OFFCURVE",
"215 32 CURVE SMOOTH",
"187 20 OFFCURVE",
"171 14 OFFCURVE",
"166 14 CURVE SMOOTH",
"157 14 OFFCURVE",
"149 17 OFFCURVE",
"140 24 CURVE",
"132 30 OFFCURVE",
"127 39 OFFCURVE",
"126 47 CURVE SMOOTH",
"125 57 OFFCURVE",
"124 66 OFFCURVE",
"124 75 CURVE SMOOTH",
"124 125 OFFCURVE",
"142 170 OFFCURVE",
"181 210 CURVE SMOOTH",
"220 248 OFFCURVE",
"263 281 OFFCURVE",
"314 307 CURVE SMOOTH",
"366 332 OFFCURVE",
"403 348 OFFCURVE",
"432 352 CURVE",
"459 357 OFFCURVE",
"497 359 OFFCURVE",
"544 359 CURVE"
);
}
);
width = 941;
}
);
note = X;
unicode = 0058;
},
{
glyphname = Y;
lastChange = "2017-12-19 09:07:32 +0000";
layers = (
{
layerId = "0B1DFD06-3317-40CA-B510-4969A0718C16";
paths = (
{
closed = 1;
nodes = (
"701 680 OFFCURVE",
"700 671 OFFCURVE",
"700 665 CURVE SMOOTH",
"700 649 OFFCURVE",
"705 630 OFFCURVE",
"714 610 CURVE",
"724 592 OFFCURVE",
"738 570 OFFCURVE",
"754 545 CURVE",
"738 492 OFFCURVE",
"713 441 OFFCURVE",
"681 391 CURVE SMOOTH",
"648 339 OFFCURVE",
"609 288 OFFCURVE",
"564 235 CURVE",
"523 298 OFFCURVE",
"493 367 OFFCURVE",
"477 447 CURVE SMOOTH",
"458 527 OFFCURVE",
"452 612 OFFCURVE",
"452 706 CURVE",
"441 706 LINE",
"427 671 OFFCURVE",
"404 640 OFFCURVE",
"374 614 CURVE SMOOTH",
"346 588 OFFCURVE",
"319 572 OFFCURVE",
"298 568 CURVE SMOOTH",
"258 562 LINE",
"252 560 OFFCURVE",
"246 560 OFFCURVE",
"241 560 CURVE SMOOTH",
"230 560 OFFCURVE",
"220 562 OFFCURVE",
"212 565 CURVE",
"201 569 OFFCURVE",
"193 575 OFFCURVE",
"188 582 CURVE",
"182 590 OFFCURVE",
"178 598 OFFCURVE",
"178 607 CURVE SMOOTH",
"178 615 OFFCURVE",
"181 622 OFFCURVE",
"187 628 CURVE",
"192 635 OFFCURVE",
"201 641 OFFCURVE",
"212 648 CURVE",
"222 654 OFFCURVE",
"233 658 OFFCURVE",
"246 660 CURVE SMOOTH",
"257 663 OFFCURVE",
"270 664 OFFCURVE",
"283 664 CURVE SMOOTH",
"305 664 OFFCURVE",
"323 661 OFFCURVE",
"342 655 CURVE",
"342 661 LINE",
"291 674 LINE",
"275 676 OFFCURVE",
"258 678 OFFCURVE",
"243 678 CURVE SMOOTH",
"227 678 OFFCURVE",
"211 675 OFFCURVE",
"195 671 CURVE",
"180 666 OFFCURVE",
"165 660 OFFCURVE",
"150 646 CURVE",
"134 634 OFFCURVE",
"126 618 OFFCURVE",
"126 598 CURVE SMOOTH",
"126 592 OFFCURVE",
"127 584 OFFCURVE",
"130 573 CURVE",
"134 562 OFFCURVE",
"141 554 OFFCURVE",
"155 548 CURVE",
"168 543 OFFCURVE",
"182 538 OFFCURVE",
"198 537 CURVE",
"215 534 OFFCURVE",
"227 533 OFFCURVE",
"236 533 CURVE SMOOTH",
"272 533 OFFCURVE",
"305 543 OFFCURVE",
"333 562 CURVE SMOOTH",
"363 582 OFFCURVE",
"394 612 OFFCURVE",
"427 651 CURVE",
"423 617 OFFCURVE",
"421 584 OFFCURVE",
"421 554 CURVE SMOOTH",
"421 490 OFFCURVE",
"428 423 OFFCURVE",
"442 352 CURVE SMOOTH",
"456 283 OFFCURVE",
"475 222 OFFCURVE",
"499 163 CURVE",
"483 142 OFFCURVE",
"466 124 OFFCURVE",
"444 110 CURVE",
"424 95 OFFCURVE",
"398 80 OFFCURVE",
"368 65 CURVE SMOOTH",
"337 49 OFFCURVE",
"312 37 OFFCURVE",
"292 31 CURVE SMOOTH",
"273 25 OFFCURVE",
"252 21 OFFCURVE",
"228 21 CURVE SMOOTH",
"208 21 OFFCURVE",
"191 24 OFFCURVE",
"177 30 CURVE SMOOTH",
"162 36 OFFCURVE",
"150 44 OFFCURVE",
"139 55 CURVE SMOOTH",
"129 65 OFFCURVE",
"122 72 OFFCURVE",
"120 79 CURVE",
"116 85 OFFCURVE",
"115 91 OFFCURVE",
"115 97 CURVE SMOOTH",
"115 106 OFFCURVE",
"119 116 OFFCURVE",
"127 127 CURVE SMOOTH",
"136 139 OFFCURVE",
"150 150 OFFCURVE",
"168 158 CURVE SMOOTH",
"188 167 OFFCURVE",
"211 171 OFFCURVE",
"235 171 CURVE SMOOTH",
"245 171 OFFCURVE",
"255 170 OFFCURVE",
"265 168 CURVE",
"282 168 OFFCURVE",
"305 161 OFFCURVE",
"331 145 CURVE",
"359 129 OFFCURVE",
"373 119 OFFCURVE",
"377 117 CURVE",
"359 146 OFFCURVE",
"337 166 OFFCURVE",
"310 177 CURVE SMOOTH",
"281 190 OFFCURVE",
"246 196 OFFCURVE",
"207 196 CURVE SMOOTH",
"167 196 OFFCURVE",
"135 191 OFFCURVE",
"109 181 CURVE SMOOTH",
"82 171 OFFCURVE",
"65 157 OFFCURVE",
"54 139 CURVE",
"45 119 OFFCURVE",
"40 106 OFFCURVE",
"40 100 CURVE SMOOTH",
"40 87 OFFCURVE",
"45 75 OFFCURVE",
"54 61 CURVE",
"64 47 OFFCURVE",
"81 36 OFFCURVE",
"105 21 CURVE",
"129 7 OFFCURVE",
"161 0 OFFCURVE",
"200 0 CURVE SMOOTH",
"233 0 OFFCURVE",
"280 11 OFFCURVE",
"337 34 CURVE SMOOTH",
"394 55 OFFCURVE",
"452 92 OFFCURVE",
"509 146 CURVE SMOOTH",
"567 197 OFFCURVE",
"615 255 OFFCURVE",
"656 321 CURVE SMOOTH",
"696 384 OFFCURVE",
"733 454 OFFCURVE",
"766 533 CURVE",
"781 520 LINE",
"787 517 OFFCURVE",
"795 514 OFFCURVE",
"802 513 CURVE",
"792 519 OFFCURVE",
"785 525 OFFCURVE",
"781 529 CURVE",
"770 545 LINE",
"781 584 LINE SMOOTH",
"785 597 OFFCURVE",
"786 609 OFFCURVE",
"786 622 CURVE SMOOTH",
"786 638 OFFCURVE",
"784 651 OFFCURVE",
"779 663 CURVE",
"773 674 OFFCURVE",
"764 684 OFFCURVE",
"754 690 CURVE SMOOTH",
"743 698 OFFCURVE",
"733 701 OFFCURVE",
"724 701 CURVE SMOOTH",
"715 701 OFFCURVE",
"708 698 OFFCURVE",
"704 689 CURVE"
);
},
{
closed = 1;
nodes = (
"745 665 OFFCURVE",
"749 664 OFFCURVE",
"751 660 CURVE",
"763 641 LINE SMOOTH",
"768 633 OFFCURVE",
"770 623 OFFCURVE",
"770 614 CURVE SMOOTH",
"770 605 OFFCURVE",
"769 595 OFFCURVE",
"766 585 CURVE",
"759 560 LINE",
"748 577 OFFCURVE",
"739 589 OFFCURVE",
"734 599 CURVE",
"730 609 OFFCURVE",
"726 618 OFFCURVE",
"725 624 CURVE",
"725 633 OFFCURVE",
"724 635 OFFCURVE",
"724 639 CURVE SMOOTH",
"724 654 OFFCURVE",
"729 663 OFFCURVE",
"739 664 CURVE"
);
}
);
width = 749;
}
);
note = Y;
unicode = 0059;
},
{
glyphname = Z;
lastChange = "2017-12-19 09:07:32 +0000";
layers = (
{
layerId = "0B1DFD06-3317-40CA-B510-4969A0718C16";
paths = (
{
closed = 1;
nodes = (
"310 676 OFFCURVE",
"295 668 OFFCURVE",
"283 656 CURVE SMOOTH",
"273 646 OFFCURVE",
"268 634 OFFCURVE",
"268 618 CURVE SMOOTH",
"268 604 OFFCURVE",
"271 594 OFFCURVE",
"277 585 CURVE",
"286 575 OFFCURVE",
"296 567 OFFCURVE",
"307 560 CURVE",
"321 552 OFFCURVE",
"334 548 OFFCURVE",
"349 544 CURVE SMOOTH",
"363 540 OFFCURVE",
"379 539 OFFCURVE",
"398 539 CURVE SMOOTH",
"427 539 OFFCURVE",
"457 543 OFFCURVE",
"487 552 CURVE SMOOTH",
"518 560 OFFCURVE",
"543 567 OFFCURVE",
"562 575 CURVE SMOOTH",
"580 584 OFFCURVE",
"594 589 OFFCURVE",
"608 594 CURVE SMOOTH",
"619 598 OFFCURVE",
"629 603 OFFCURVE",
"639 608 CURVE",
"615 579 OFFCURVE",
"592 552 OFFCURVE",
"568 528 CURVE SMOOTH",
"544 504 OFFCURVE",
"515 477 OFFCURVE",
"480 444 CURVE SMOOTH",
"403 373 LINE SMOOTH",
"386 357 OFFCURVE",
"377 346 OFFCURVE",
"377 342 CURVE SMOOTH",
"377 337 OFFCURVE",
"378 333 OFFCURVE",
"381 331 CURVE",
"384 328 OFFCURVE",
"387 328 OFFCURVE",
"389 331 CURVE",
"418 354 OFFCURVE",
"442 372 OFFCURVE",
"463 383 CURVE SMOOTH",
"484 394 OFFCURVE",
"509 399 OFFCURVE",
"538 399 CURVE SMOOTH",
"559 399 OFFCURVE",
"578 397 OFFCURVE",
"593 392 CURVE",
"607 388 OFFCURVE",
"618 381 OFFCURVE",
"629 368 CURVE SMOOTH",
"639 357 OFFCURVE",
"644 343 OFFCURVE",
"644 329 CURVE SMOOTH",
"644 321 OFFCURVE",
"643 316 OFFCURVE",
"641 307 CURVE",
"629 261 LINE",
"622 237 OFFCURVE",
"608 213 OFFCURVE",
"589 187 CURVE SMOOTH",
"569 161 OFFCURVE",
"547 139 OFFCURVE",
"523 121 CURVE SMOOTH",
"499 102 OFFCURVE",
"468 82 OFFCURVE",
"431 62 CURVE",
"402 91 OFFCURVE",
"379 112 OFFCURVE",
"359 129 CURVE SMOOTH",
"339 145 OFFCURVE",
"316 160 OFFCURVE",
"288 173 CURVE SMOOTH",
"262 186 OFFCURVE",
"236 193 OFFCURVE",
"210 196 CURVE",
"185 200 OFFCURVE",
"168 201 OFFCURVE",
"162 201 CURVE SMOOTH",
"156 201 OFFCURVE",
"150 202 OFFCURVE",
"144 202 CURVE SMOOTH",
"114 202 OFFCURVE",
"89 197 OFFCURVE",
"65 188 CURVE SMOOTH",
"44 181 OFFCURVE",
"27 170 OFFCURVE",
"17 155 CURVE",
"7 141 OFFCURVE",
"2 129 OFFCURVE",
"2 119 CURVE SMOOTH",
"2 107 OFFCURVE",
"10 91 OFFCURVE",
"25 67 CURVE",
"41 44 OFFCURVE",
"71 26 OFFCURVE",
"114 15 CURVE SMOOTH",
"155 4 OFFCURVE",
"207 -1 OFFCURVE",
"273 -1 CURVE SMOOTH",
"303 -1 OFFCURVE",
"332 1 OFFCURVE",
"361 5 CURVE",
"389 10 OFFCURVE",
"418 16 OFFCURVE",
"449 25 CURVE",
"461 14 OFFCURVE",
"470 2 OFFCURVE",
"477 -7 CURVE",
"483 -19 OFFCURVE",
"490 -31 OFFCURVE",
"495 -46 CURVE",
"495 -32 OFFCURVE",
"492 -20 OFFCURVE",
"487 -6 CURVE",
"480 7 OFFCURVE",
"472 19 OFFCURVE",
"461 30 CURVE",
"499 49 OFFCURVE",
"532 66 OFFCURVE",
"563 86 CURVE SMOOTH",
"594 106 OFFCURVE",
"622 127 OFFCURVE",
"644 151 CURVE SMOOTH",
"668 177 OFFCURVE",
"685 201 OFFCURVE",
"695 225 CURVE SMOOTH",
"705 250 OFFCURVE",
"710 270 OFFCURVE",
"710 286 CURVE SMOOTH",
"710 326 OFFCURVE",
"699 356 OFFCURVE",
"678 376 CURVE SMOOTH",
"656 396 OFFCURVE",
"639 408 OFFCURVE",
"623 413 CURVE",
"607 417 OFFCURVE",
"589 419 OFFCURVE",
"572 419 CURVE SMOOTH",
"553 419 OFFCURVE",
"537 418 OFFCURVE",
"518 414 CURVE",
"462 399 LINE",
"537 477 LINE",
"563 502 OFFCURVE",
"597 537 OFFCURVE",
"640 580 CURVE SMOOTH",
"685 625 OFFCURVE",
"720 659 OFFCURVE",
"746 688 CURVE",
"740 691 OFFCURVE",
"735 694 OFFCURVE",
"731 694 CURVE",
"684 655 OFFCURVE",
"636 626 OFFCURVE",
"589 605 CURVE SMOOTH",
"540 583 OFFCURVE",
"492 572 OFFCURVE",
"443 572 CURVE SMOOTH",
"428 572 OFFCURVE",
"417 572 OFFCURVE",
"403 573 CURVE",
"369 580 LINE",
"358 584 OFFCURVE",
"348 588 OFFCURVE",
"339 597 CURVE SMOOTH",
"331 605 OFFCURVE",
"327 613 OFFCURVE",
"327 622 CURVE SMOOTH",
"327 625 OFFCURVE",
"332 631 OFFCURVE",
"341 643 CURVE",
"351 653 OFFCURVE",
"364 660 OFFCURVE",
"381 666 CURVE SMOOTH",
"397 673 OFFCURVE",
"416 676 OFFCURVE",
"437 676 CURVE SMOOTH",
"452 676 OFFCURVE",
"470 674 OFFCURVE",
"494 670 CURVE",
"555 656 LINE",
"537 670 OFFCURVE",
"514 680 OFFCURVE",
"488 688 CURVE SMOOTH",
"464 695 OFFCURVE",
"439 699 OFFCURVE",
"413 699 CURVE SMOOTH",
"382 699 OFFCURVE",
"353 694 OFFCURVE",
"328 683 CURVE"
);
},
{
closed = 1;
nodes = (
"85 132 OFFCURVE",
"105 140 OFFCURVE",
"124 144 CURVE",
"142 149 OFFCURVE",
"162 151 OFFCURVE",
"185 151 CURVE SMOOTH",
"227 151 OFFCURVE",
"270 142 OFFCURVE",
"311 125 CURVE SMOOTH",
"352 109 OFFCURVE",
"389 85 OFFCURVE",
"423 56 CURVE",
"393 40 LINE SMOOTH",
"383 35 OFFCURVE",
"371 31 OFFCURVE",
"354 29 CURVE SMOOTH",
"301 20 LINE SMOOTH",
"282 17 OFFCURVE",
"265 16 OFFCURVE",
"251 16 CURVE SMOOTH",
"237 16 OFFCURVE",
"223 17 OFFCURVE",
"205 19 CURVE",
"139 29 LINE SMOOTH",
"115 32 OFFCURVE",
"94 41 OFFCURVE",
"77 54 CURVE",
"61 67 OFFCURVE",
"54 81 OFFCURVE",
"54 97 CURVE SMOOTH",
"54 110 OFFCURVE",
"57 117 OFFCURVE",
"66 121 CURVE"
);
}
);
width = 696;
}
);
note = Z;
unicode = 005A;
},
{
glyphname = a;
lastChange = "2017-12-19 09:07:51 +0000";
layers = (
{
layerId = "0B1DFD06-3317-40CA-B510-4969A0718C16";
paths = (
{
closed = 1;
nodes = (
"145 322 OFFCURVE",
"84 246 OFFCURVE",
"65 207 CURVE",
"11 107 OFFCURVE",
"11 39 OFFCURVE",
"61 5 CURVE SMOOTH",
"100 -21 OFFCURVE",
"192 17 OFFCURVE",
"208 24 CURVE",
"230 35 OFFCURVE",
"286 65 OFFCURVE",
"344 119 CURVE SMOOTH",
"357 130 LINE",
"332 76 OFFCURVE",
"324 49 OFFCURVE",
"324 32 CURVE SMOOTH",
"324 19 OFFCURVE",
"328 14 OFFCURVE",
"332 10 CURVE",
"338 -1 OFFCURVE",
"349 -4 OFFCURVE",
"363 -4 CURVE",
"423 0 OFFCURVE",
"492 82 OFFCURVE",
"495 86 CURVE",
"487 80 OFFCURVE",
"392 21 OFFCURVE",
"363 37 CURVE",
"373 140 OFFCURVE",
"539 366 OFFCURVE",
"539 368 CURVE",
"535 377 OFFCURVE",
"528 381 OFFCURVE",
"519 381 CURVE SMOOTH",
"515 381 OFFCURVE",
"510 381 OFFCURVE",
"505 379 CURVE",
"352 180 OFFCURVE",
"351 176 OFFCURVE",
"319 149 CURVE SMOOTH",
"263 97 OFFCURVE",
"211 69 OFFCURVE",
"191 59 CURVE",
"162 42 OFFCURVE",
"97 27 OFFCURVE",
"81 37 CURVE",
"39 66 OFFCURVE",
"82 160 OFFCURVE",
"100 188 CURVE",
"120 225 OFFCURVE",
"176 301 OFFCURVE",
"230 341 CURVE SMOOTH",
"393 467 OFFCURVE",
"579 426 OFFCURVE",
"602 422 CURVE",
"592 427 OFFCURVE",
"386 509 OFFCURVE",
"206 369 CURVE SMOOTH"
);
},
{
closed = 1;
nodes = (
"602 422 LINE",
"604 422 LINE"
);
}
);
width = 539;
}
);
note = a;
unicode = 0061;
},
{
glyphname = b;
lastChange = "2017-12-19 09:07:51 +0000";
layers = (
{
layerId = "0B1DFD06-3317-40CA-B510-4969A0718C16";
paths = (
{
closed = 1;
nodes = (
"359 860 LINE",
"356 852 OFFCURVE",
"313 802 OFFCURVE",
"240 799 CURVE",
"228 790 LINE",
"240 791 OFFCURVE",
"251 790 OFFCURVE",
"260 787 CURVE SMOOTH",
"275 784 OFFCURVE",
"287 775 OFFCURVE",
"278 756 CURVE SMOOTH",
"221 628 LINE",
"54 256 LINE SMOOTH",
"21 186 OFFCURVE",
"5 130 OFFCURVE",
"5 86 CURVE SMOOTH",
"5 62 OFFCURVE",
"9 44 OFFCURVE",
"17 30 CURVE",
"26 14 OFFCURVE",
"46 -6 OFFCURVE",
"85 -10 CURVE SMOOTH",
"183 -20 OFFCURVE",
"268 41 OFFCURVE",
"321 91 CURVE SMOOTH",
"358 125 OFFCURVE",
"444 258 OFFCURVE",
"444 356 CURVE",
"443 389 OFFCURVE",
"432 414 OFFCURVE",
"412 432 CURVE SMOOTH",
"394 447 OFFCURVE",
"372 453 OFFCURVE",
"344 451 CURVE",
"272 441 OFFCURVE",
"210 379 OFFCURVE",
"170 319 CURVE SMOOTH",
"146 285 OFFCURVE",
"124 245 OFFCURVE",
"105 201 CURVE",
"116 196 OFFCURVE",
"255 413 OFFCURVE",
"351 413 CURVE SMOOTH",
"364 413 OFFCURVE",
"376 412 OFFCURVE",
"387 403 CURVE",
"399 392 OFFCURVE",
"406 376 OFFCURVE",
"406 354 CURVE SMOOTH",
"406 275 OFFCURVE",
"328 150 OFFCURVE",
"295 120 CURVE SMOOTH",
"218 50 OFFCURVE",
"154 20 OFFCURVE",
"89 29 CURVE",
"70 30 OFFCURVE",
"57 36 OFFCURVE",
"51 50 CURVE",
"41 67 OFFCURVE",
"31 116 OFFCURVE",
"89 240 CURVE SMOOTH",
"256 613 LINE",
"271 644 LINE",
"377 866 LINE"
);
}
);
width = 429;
}
);
note = b;
unicode = 0062;
},
{
glyphname = c;
lastChange = "2017-12-19 09:07:51 +0000";
layers = (
{
layerId = "0B1DFD06-3317-40CA-B510-4969A0718C16";
paths = (
{
closed = 1;
nodes = (
"114 401 OFFCURVE",
"21 246 OFFCURVE",
"17 139 CURVE SMOOTH",
"16 79 OFFCURVE",
"46 21 OFFCURVE",
"100 2 CURVE SMOOTH",
"171 -21 OFFCURVE",
"241 9 OFFCURVE",
"292 47 CURVE SMOOTH",
"322 69 OFFCURVE",
"351 96 OFFCURVE",
"377 127 CURVE",
"346 104 OFFCURVE",
"313 84 OFFCURVE",
"282 67 CURVE SMOOTH",
"228 39 OFFCURVE",
"163 17 OFFCURVE",
"115 37 CURVE SMOOTH",
"76 52 OFFCURVE",
"55 94 OFFCURVE",
"56 139 CURVE SMOOTH",
"60 232 OFFCURVE",
"141 372 OFFCURVE",
"247 408 CURVE SMOOTH",
"291 424 OFFCURVE",
"327 426 OFFCURVE",
"353 412 CURVE SMOOTH",
"382 397 OFFCURVE",
"389 368 OFFCURVE",
"389 367 CURVE",
"393 358 OFFCURVE",
"396 332 OFFCURVE",
"382 318 CURVE SMOOTH",
"352 288 OFFCURVE",
"326 314 OFFCURVE",
"323 323 CURVE",
"318 333 OFFCURVE",
"324 351 OFFCURVE",
"329 359 CURVE SMOOTH",
"336 371 OFFCURVE",
"333 379 OFFCURVE",
"322 386 CURVE SMOOTH",
"313 391 OFFCURVE",
"301 388 OFFCURVE",
"296 378 CURVE",
"292 374 OFFCURVE",
"276 338 OFFCURVE",
"288 306 CURVE",
"302 275 OFFCURVE",
"359 245 OFFCURVE",
"409 292 CURVE",
"441 319 OFFCURVE",
"427 369 OFFCURVE",
"427 376 CURVE SMOOTH",
"427 378 OFFCURVE",
"416 422 OFFCURVE",
"372 446 CURVE",
"333 464 OFFCURVE",
"288 464 OFFCURVE",
"235 444 CURVE SMOOTH"
);
}
);
width = 416;
}
);
note = c;
unicode = 0063;
},
{
glyphname = d;
lastChange = "2017-12-19 09:07:51 +0000";
layers = (
{
layerId = "0B1DFD06-3317-40CA-B510-4969A0718C16";
paths = (
{
closed = 1;
nodes = (
"685 856 LINE",
"685 847 OFFCURVE",
"641 796 OFFCURVE",
"568 790 CURVE",
"558 781 LINE",
"569 782 OFFCURVE",
"580 781 OFFCURVE",
"589 780 CURVE",
"604 776 OFFCURVE",
"618 769 OFFCURVE",
"609 750 CURVE SMOOTH",
"559 635 LINE",
"495 498 LINE SMOOTH",
"457 419 OFFCURVE",
"412 326 OFFCURVE",
"372 255 CURVE SMOOTH",
"338 196 OFFCURVE",
"300 162 OFFCURVE",
"291 154 CURVE SMOOTH",
"237 100 OFFCURVE",
"186 70 OFFCURVE",
"166 60 CURVE SMOOTH",
"136 44 OFFCURVE",
"74 25 OFFCURVE",
"57 35 CURVE",
"12 60 OFFCURVE",
"54 157 OFFCURVE",
"70 186 CURVE SMOOTH",
"90 223 OFFCURVE",
"132 298 OFFCURVE",
"185 341 CURVE SMOOTH",
"260 401 OFFCURVE",
"323 424 OFFCURVE",
"369 434 CURVE SMOOTH",
"397 439 OFFCURVE",
"422 441 OFFCURVE",
"444 438 CURVE",
"418 448 OFFCURVE",
"391 452 OFFCURVE",
"359 451 CURVE SMOOTH",
"306 447 OFFCURVE",
"236 429 OFFCURVE",
"156 364 CURVE SMOOTH",
"97 314 OFFCURVE",
"55 243 OFFCURVE",
"35 202 CURVE SMOOTH",
"-14 102 OFFCURVE",
"-12 31 OFFCURVE",
"39 1 CURVE SMOOTH",
"79 -22 OFFCURVE",
"168 16 OFFCURVE",
"185 26 CURVE",
"206 37 OFFCURVE",
"261 70 OFFCURVE",
"317 125 CURVE",
"327 136 LINE",
"306 90 OFFCURVE",
"287 60 OFFCURVE",
"288 34 CURVE",
"288 20 OFFCURVE",
"292 15 OFFCURVE",
"296 11 CURVE",
"302 2 OFFCURVE",
"313 -1 OFFCURVE",
"328 0 CURVE SMOOTH",
"388 4 OFFCURVE",
"467 96 OFFCURVE",
"469 99 CURVE",
"459 91 OFFCURVE",
"356 27 OFFCURVE",
"327 40 CURVE",
"327 66 OFFCURVE",
"369 147 OFFCURVE",
"409 233 CURVE SMOOTH",
"448 318 OFFCURVE",
"492 414 OFFCURVE",
"530 490 CURVE SMOOTH",
"552 535 OFFCURVE",
"574 579 OFFCURVE",
"595 622 CURVE",
"604 643 OFFCURVE",
"615 665 OFFCURVE",
"626 690 CURVE SMOOTH",
"645 734 OFFCURVE",
"673 792 OFFCURVE",
"704 862 CURVE"
);
}
);
width = 505;
}
);
note = d;
unicode = 0064;
},
{
glyphname = e;
lastChange = "2017-12-19 09:07:51 +0000";
layers = (
{
layerId = "0B1DFD06-3317-40CA-B510-4969A0718C16";
paths = (
{
closed = 1;
nodes = (
"140 407 OFFCURVE",
"35 321 OFFCURVE",
"19 197 CURVE SMOOTH",
"10 141 OFFCURVE",
"14 101 OFFCURVE",
"42 61 CURVE SMOOTH",
"67 25 OFFCURVE",
"105 0 OFFCURVE",
"154 -6 CURVE SMOOTH",
"223 -16 OFFCURVE",
"296 21 OFFCURVE",
"346 65 CURVE SMOOTH",
"376 90 OFFCURVE",
"403 119 OFFCURVE",
"429 151 CURVE",
"397 125 OFFCURVE",
"364 102 OFFCURVE",
"332 84 CURVE SMOOTH",
"276 50 OFFCURVE",
"210 21 OFFCURVE",
"160 31 CURVE",
"124 40 OFFCURVE",
"92 55 OFFCURVE",
"74 84 CURVE",
"52 114 OFFCURVE",
"47 145 OFFCURVE",
"56 190 CURVE SMOOTH",
"77 300 OFFCURVE",
"144 364 OFFCURVE",
"243 408 CURVE SMOOTH",
"287 428 OFFCURVE",
"366 422 OFFCURVE",
"403 391 CURVE",
"422 377 OFFCURVE",
"424 353 OFFCURVE",
"428 333 CURVE",
"429 322 OFFCURVE",
"429 310 OFFCURVE",
"428 296 CURVE",
"409 267 OFFCURVE",
"331 242 OFFCURVE",
"262 230 CURVE SMOOTH",
"221 221 OFFCURVE",
"176 212 OFFCURVE",
"127 206 CURVE",
"173 200 OFFCURVE",
"218 198 OFFCURVE",
"262 202 CURVE SMOOTH",
"337 208 OFFCURVE",
"419 228 OFFCURVE",
"468 288 CURVE",
"470 305 OFFCURVE",
"470 321 OFFCURVE",
"469 336 CURVE",
"466 362 OFFCURVE",
"458 393 OFFCURVE",
"432 417 CURVE",
"376 463 OFFCURVE",
"285 468 OFFCURVE",
"231 444 CURVE SMOOTH"
);
}
);
width = 473;
}
);
note = e;
unicode = 0065;
},
{
glyphname = f;
lastChange = "2017-12-19 09:07:51 +0000";
layers = (
{
layerId = "0B1DFD06-3317-40CA-B510-4969A0718C16";
paths = (
{
closed = 1;
nodes = (
"478 845 OFFCURVE",
"383 817 OFFCURVE",
"310 660 CURVE SMOOTH",
"228 477 LINE SMOOTH",
"220 457 OFFCURVE",
"216 451 OFFCURVE",
"207 427 CURVE",
"111 428 LINE",
"96 404 LINE",
"196 403 LINE",
"102 196 OFFCURVE",
"-27 -81 OFFCURVE",
"-91 -175 CURVE",
"-237 -171 OFFCURVE",
"-354 -238 OFFCURVE",
"-401 -278 CURVE SMOOTH",
"-432 -307 OFFCURVE",
"-453 -362 OFFCURVE",
"-433 -406 CURVE",
"-424 -427 OFFCURVE",
"-402 -451 OFFCURVE",
"-343 -449 CURVE SMOOTH",
"-290 -448 OFFCURVE",
"-235 -419 OFFCURVE",
"-198 -388 CURVE SMOOTH",
"-172 -364 OFFCURVE",
"-139 -319 OFFCURVE",
"-110 -280 CURVE SMOOTH",
"-94 -256 OFFCURVE",
"-79 -231 OFFCURVE",
"-62 -205 CURVE",
"-37 -203 OFFCURVE",
"-7 -207 OFFCURVE",
"17 -211 CURVE SMOOTH",
"31 -213 OFFCURVE",
"46 -216 OFFCURVE",
"60 -220 CURVE",
"49 -213 OFFCURVE",
"36 -207 OFFCURVE",
"24 -202 CURVE SMOOTH",
"2 -193 OFFCURVE",
"-24 -185 OFFCURVE",
"-47 -181 CURVE",
"22 -71 OFFCURVE",
"151 205 OFFCURVE",
"237 403 CURVE",
"334 407 LINE",
"349 428 LINE",
"248 427 LINE",
"257 443 OFFCURVE",
"257 446 OFFCURVE",
"263 462 CURVE",
"343 644 LINE SMOOTH",
"423 815 OFFCURVE",
"515 801 OFFCURVE",
"515 801 CURVE",
"537 796 OFFCURVE",
"548 791 OFFCURVE",
"547 745 CURVE SMOOTH",
"547 684 OFFCURVE",
"433 671 OFFCURVE",
"437 660 CURVE",
"437 650 OFFCURVE",
"569 656 OFFCURVE",
"585 743 CURVE SMOOTH",
"595 792 OFFCURVE",
"570 830 OFFCURVE",
"522 839 CURVE"
);
},
{
closed = 1;
nodes = (
"-266 -392 OFFCURVE",
"-313 -409 OFFCURVE",
"-344 -411 CURVE SMOOTH",
"-373 -412 OFFCURVE",
"-392 -404 OFFCURVE",
"-398 -391 CURVE",
"-402 -387 OFFCURVE",
"-414 -351 OFFCURVE",
"-373 -306 CURVE",
"-333 -266 OFFCURVE",
"-236 -216 OFFCURVE",
"-111 -206 CURVE",
"-126 -225 OFFCURVE",
"-172 -313 OFFCURVE",
"-232 -363 CURVE SMOOTH"
);
}
);
width = 359;
}
);
note = f;
unicode = 0066;
},
{
glyphname = g;
lastChange = "2017-12-19 09:07:51 +0000";
layers = (
{
layerId = "0B1DFD06-3317-40CA-B510-4969A0718C16";
paths = (
{
closed = 1;
nodes = (
"305 417 OFFCURVE",
"192 356 OFFCURVE",
"112 276 CURVE SMOOTH",
"52 216 OFFCURVE",
"6 130 OFFCURVE",
"6 84 CURVE SMOOTH",
"6 60 OFFCURVE",
"16 37 OFFCURVE",
"35 19 CURVE",
"67 -17 OFFCURVE",
"185 -1 OFFCURVE",
"260 45 CURVE",
"310 79 OFFCURVE",
"351 115 OFFCURVE",
"387 156 CURVE",
"327 30 LINE",
"257 -114 LINE",
"223 -181 LINE",
"140 -171 OFFCURVE",
"49 -173 OFFCURVE",
"21 -177 CURVE SMOOTH",
"-20 -183 OFFCURVE",
"-92 -197 OFFCURVE",
"-139 -251 CURVE SMOOTH",
"-167 -285 OFFCURVE",
"-175 -324 OFFCURVE",
"-161 -363 CURVE SMOOTH",
"-147 -399 OFFCURVE",
"-116 -424 OFFCURVE",
"-77 -429 CURVE SMOOTH",
"-12 -439 OFFCURVE",
"67 -408 OFFCURVE",
"115 -378 CURVE",
"188 -327 OFFCURVE",
"230 -257 OFFCURVE",
"253 -208 CURVE",
"273 -207 OFFCURVE",
"301 -217 OFFCURVE",
"324 -227 CURVE",
"364 -247 LINE",
"357 -238 OFFCURVE",
"348 -231 OFFCURVE",
"339 -223 CURVE SMOOTH",
"323 -210 OFFCURVE",
"297 -197 OFFCURVE",
"263 -188 CURVE",
"292 -131 LINE",
"362 14 LINE SMOOTH",
"392 79 OFFCURVE",
"439 171 OFFCURVE",
"478 250 CURVE SMOOTH",
"548 389 LINE",
"499 376 LINE",
"433 277 OFFCURVE",
"348 147 OFFCURVE",
"240 77 CURVE SMOOTH",
"171 35 OFFCURVE",
"79 30 OFFCURVE",
"62 46 CURVE SMOOTH",
"51 57 OFFCURVE",
"45 70 OFFCURVE",
"45 85 CURVE SMOOTH",
"45 120 OFFCURVE",
"89 195 OFFCURVE",
"140 248 CURVE SMOOTH",
"210 322 OFFCURVE",
"319 371 OFFCURVE",
"389 401 CURVE SMOOTH",
"434 419 OFFCURVE",
"497 427 OFFCURVE",
"547 431 CURVE SMOOTH",
"575 433 OFFCURVE",
"605 434 OFFCURVE",
"635 433 CURVE",
"609 441 OFFCURVE",
"583 446 OFFCURVE",
"554 449 CURVE SMOOTH",
"505 454 OFFCURVE",
"442 456 OFFCURVE",
"377 437 CURVE SMOOTH"
);
},
{
closed = 1;
nodes = (
"-96 -387 OFFCURVE",
"-116 -373 OFFCURVE",
"-125 -349 CURVE SMOOTH",
"-135 -324 OFFCURVE",
"-130 -300 OFFCURVE",
"-110 -276 CURVE SMOOTH",
"-74 -232 OFFCURVE",
"-7 -221 OFFCURVE",
"27 -215 CURVE",
"57 -211 OFFCURVE",
"144 -200 OFFCURVE",
"215 -206 CURVE",
"181 -270 OFFCURVE",
"96 -343 OFFCURVE",
"92 -347 CURVE",
"51 -374 OFFCURVE",
"-19 -397 OFFCURVE",
"-72 -391 CURVE"
);
}
);
width = 544;
}
);
note = g;
unicode = 0067;
},
{
glyphname = h;
lastChange = "2017-12-19 09:07:51 +0000";
layers = (
{
layerId = "0B1DFD06-3317-40CA-B510-4969A0718C16";
paths = (
{
closed = 1;
nodes = (
"478 439 OFFCURVE",
"466 466 OFFCURVE",
"409 452 CURVE",
"397 449 OFFCURVE",
"387 447 OFFCURVE",
"381 444 CURVE",
"368 441 LINE",
"368 439 OFFCURVE",
"261 407 OFFCURVE",
"171 324 CURVE",
"300 610 LINE",
"314 641 LINE",
"421 864 LINE",
"402 857 LINE",
"398 850 OFFCURVE",
"357 800 OFFCURVE",
"282 796 CURVE",
"272 787 LINE",
"283 789 OFFCURVE",
"295 787 OFFCURVE",
"303 785 CURVE SMOOTH",
"318 781 OFFCURVE",
"329 773 OFFCURVE",
"321 754 CURVE SMOOTH",
"265 625 LINE",
"115 277 LINE",
"115 276 OFFCURVE",
"84 202 OFFCURVE",
"55 135 CURVE SMOOTH",
"39 94 OFFCURVE",
"19 47 OFFCURVE",
"-2 -4 CURVE",
"45 16 LINE",
"158 292 LINE",
"252 369 OFFCURVE",
"359 404 OFFCURVE",
"379 411 CURVE",
"389 413 LINE",
"396 414 OFFCURVE",
"402 414 OFFCURVE",
"411 418 CURVE",
"432 424 OFFCURVE",
"441 411 OFFCURVE",
"434 392 CURVE",
"409 327 OFFCURVE",
"312 115 OFFCURVE",
"307 100 CURVE",
"296 76 OFFCURVE",
"286 45 OFFCURVE",
"286 41 CURVE SMOOTH",
"286 26 OFFCURVE",
"291 15 OFFCURVE",
"302 6 CURVE SMOOTH",
"316 -5 OFFCURVE",
"347 -5 OFFCURVE",
"373 9 CURVE",
"397 19 OFFCURVE",
"417 41 OFFCURVE",
"433 62 CURVE",
"461 102 LINE",
"449 91 OFFCURVE",
"437 80 OFFCURVE",
"424 71 CURVE",
"403 55 OFFCURVE",
"377 37 OFFCURVE",
"358 34 CURVE",
"343 30 OFFCURVE",
"332 27 OFFCURVE",
"326 36 CURVE",
"322 40 OFFCURVE",
"326 55 OFFCURVE",
"337 84 CURVE",
"348 105 OFFCURVE",
"464 348 OFFCURVE",
"474 422 CURVE"
);
}
);
width = 478;
}
);
note = h;
unicode = 0068;
},
{
glyphname = i;
lastChange = "2017-12-19 09:07:51 +0000";
layers = (
{
layerId = "0B1DFD06-3317-40CA-B510-4969A0718C16";
paths = (
{
closed = 1;
nodes = (
"233 456 OFFCURVE",
"222 453 OFFCURVE",
"217 449 CURVE",
"187 433 OFFCURVE",
"170 422 OFFCURVE",
"151 407 CURVE",
"130 393 OFFCURVE",
"114 377 OFFCURVE",
"95 358 CURVE",
"104 362 OFFCURVE",
"117 368 OFFCURVE",
"136 378 CURVE SMOOTH",
"157 389 OFFCURVE",
"182 399 OFFCURVE",
"191 399 CURVE SMOOTH",
"197 399 OFFCURVE",
"198 396 OFFCURVE",
"195 387 CURVE",
"186 361 OFFCURVE",
"27 26 OFFCURVE",
"27 22 CURVE",
"25 16 OFFCURVE",
"24 11 OFFCURVE",
"24 9 CURVE SMOOTH",
"24 2 OFFCURVE",
"27 -1 OFFCURVE",
"34 -1 CURVE SMOOTH",
"44 -1 OFFCURVE",
"61 5 OFFCURVE",
"115 29 CURVE SMOOTH",
"161 50 OFFCURVE",
"187 72 OFFCURVE",
"201 79 CURVE",
"112 52 LINE",
"86 46 OFFCURVE",
"90 62 OFFCURVE",
"86 59 CURVE",
"112 116 OFFCURVE",
"227 353 OFFCURVE",
"242 407 CURVE",
"246 417 OFFCURVE",
"257 456 OFFCURVE",
"240 456 CURVE SMOOTH"
);
},
{
closed = 1;
nodes = (
"324 678 OFFCURVE",
"314 683 OFFCURVE",
"303 683 CURVE SMOOTH",
"291 683 OFFCURVE",
"280 679 OFFCURVE",
"270 671 CURVE",
"261 664 OFFCURVE",
"256 654 OFFCURVE",
"256 643 CURVE SMOOTH",
"256 630 OFFCURVE",
"260 619 OFFCURVE",
"267 609 CURVE SMOOTH",
"273 600 OFFCURVE",
"283 595 OFFCURVE",
"296 595 CURVE SMOOTH",
"310 595 OFFCURVE",
"321 599 OFFCURVE",
"329 607 CURVE SMOOTH",
"339 615 OFFCURVE",
"344 624 OFFCURVE",
"344 635 CURVE SMOOTH",
"344 648 OFFCURVE",
"341 659 OFFCURVE",
"332 669 CURVE SMOOTH"
);
},
{
closed = 1;
nodes = (
"203 80 OFFCURVE",
"202 79 OFFCURVE",
"201 79 CURVE",
"202 79 OFFCURVE",
"203 80 OFFCURVE",
"205 80 CURVE"
);
}
);
width = 296;
}
);
note = i;
unicode = 0069;
},
{
glyphname = j;
lastChange = "2017-12-19 09:07:51 +0000";
layers = (
{
layerId = "0B1DFD06-3317-40CA-B510-4969A0718C16";
paths = (
{
closed = 1;
nodes = (
"193 458 OFFCURVE",
"183 456 OFFCURVE",
"178 452 CURVE",
"147 433 OFFCURVE",
"132 422 OFFCURVE",
"112 408 CURVE",
"92 393 OFFCURVE",
"75 377 OFFCURVE",
"60 357 CURVE",
"101 377 LINE",
"121 391 OFFCURVE",
"147 399 OFFCURVE",
"156 399 CURVE SMOOTH",
"162 399 OFFCURVE",
"163 394 OFFCURVE",
"161 386 CURVE",
"156 371 OFFCURVE",
"-29 -91 OFFCURVE",
"-64 -157 CURVE",
"-212 -154 OFFCURVE",
"-321 -221 OFFCURVE",
"-364 -261 CURVE",
"-393 -290 OFFCURVE",
"-412 -344 OFFCURVE",
"-388 -388 CURVE SMOOTH",
"-378 -408 OFFCURVE",
"-353 -434 OFFCURVE",
"-295 -431 CURVE",
"-241 -431 OFFCURVE",
"-187 -402 OFFCURVE",
"-154 -371 CURVE SMOOTH",
"-129 -347 OFFCURVE",
"-99 -303 OFFCURVE",
"-75 -262 CURVE SMOOTH",
"-61 -238 OFFCURVE",
"-47 -213 OFFCURVE",
"-34 -186 CURVE",
"-10 -185 OFFCURVE",
"20 -187 OFFCURVE",
"44 -191 CURVE SMOOTH",
"57 -193 OFFCURVE",
"72 -196 OFFCURVE",
"86 -200 CURVE",
"75 -193 OFFCURVE",
"62 -188 OFFCURVE",
"50 -183 CURVE SMOOTH",
"29 -175 OFFCURVE",
"1 -166 OFFCURVE",
"-20 -162 CURVE",
"10 -102 OFFCURVE",
"193 373 OFFCURVE",
"203 404 CURVE",
"206 417 OFFCURVE",
"218 458 OFFCURVE",
"202 458 CURVE SMOOTH"
);
},
{
closed = 1;
nodes = (
"-221 -373 OFFCURVE",
"-266 -392 OFFCURVE",
"-300 -392 CURVE",
"-328 -393 OFFCURVE",
"-347 -387 OFFCURVE",
"-354 -373 CURVE",
"-354 -367 OFFCURVE",
"-376 -336 OFFCURVE",
"-336 -288 CURVE SMOOTH",
"-301 -247 OFFCURVE",
"-206 -198 OFFCURVE",
"-82 -188 CURVE",
"-95 -207 OFFCURVE",
"-135 -296 OFFCURVE",
"-191 -344 CURVE"
);
},
{
closed = 1;
nodes = (
"268 691 OFFCURVE",
"258 696 OFFCURVE",
"247 696 CURVE SMOOTH",
"236 696 OFFCURVE",
"225 693 OFFCURVE",
"213 684 CURVE",
"205 676 OFFCURVE",
"201 666 OFFCURVE",
"201 654 CURVE",
"202 639 OFFCURVE",
"208 628 OFFCURVE",
"217 619 CURVE",
"226 609 OFFCURVE",
"236 604 OFFCURVE",
"248 604 CURVE SMOOTH",
"262 604 OFFCURVE",
"273 608 OFFCURVE",
"282 615 CURVE",
"290 625 OFFCURVE",
"293 636 OFFCURVE",
"293 648 CURVE",
"292 663 OFFCURVE",
"287 674 OFFCURVE",
"278 681 CURVE"
);
}
);
width = 247;
}
);
note = j;
unicode = 006A;
},
{
glyphname = k;
lastChange = "2017-12-19 09:07:51 +0000";
layers = (
{
layerId = "0B1DFD06-3317-40CA-B510-4969A0718C16";
paths = (
{
closed = 1;
nodes = (
"544 590 OFFCURVE",
"453 540 OFFCURVE",
"399 487 CURVE SMOOTH",
"346 432 OFFCURVE",
"295 368 OFFCURVE",
"245 310 CURVE SMOOTH",
"114 165 LINE",
"124 188 OFFCURVE",
"134 211 OFFCURVE",
"142 235 CURVE",
"310 608 LINE",
"324 639 LINE",
"431 861 LINE",
"413 855 LINE",
"409 845 OFFCURVE",
"367 797 OFFCURVE",
"293 794 CURVE",
"282 784 LINE",
"293 785 OFFCURVE",
"305 784 OFFCURVE",
"313 781 CURVE SMOOTH",
"328 778 OFFCURVE",
"341 770 OFFCURVE",
"332 751 CURVE SMOOTH",
"275 623 LINE",
"107 251 LINE",
"1 -6 LINE",
"57 21 LINE",
"104 125 LINE",
"192 208 LINE SMOOTH",
"236 251 OFFCURVE",
"282 295 OFFCURVE",
"282 295 CURVE",
"268 221 OFFCURVE",
"311 104 OFFCURVE",
"351 4 CURVE SMOOTH",
"374 -55 OFFCURVE",
"403 -115 OFFCURVE",
"437 -178 CURVE",
"412 -112 OFFCURVE",
"389 -47 OFFCURVE",
"371 16 CURVE SMOOTH",
"337 126 OFFCURVE",
"308 255 OFFCURVE",
"318 342 CURVE",
"353 383 OFFCURVE",
"391 423 OFFCURVE",
"427 459 CURVE SMOOTH",
"524 560 OFFCURVE",
"584 537 OFFCURVE",
"592 533 CURVE",
"615 519 OFFCURVE",
"607 475 OFFCURVE",
"567 456 CURVE",
"559 453 OFFCURVE",
"615 456 OFFCURVE",
"631 475 CURVE SMOOTH",
"653 502 OFFCURVE",
"651 539 OFFCURVE",
"602 563 CURVE SMOOTH"
);
}
);
width = 502;
}
);
note = k;
unicode = 006B;
},
{
glyphname = l;
lastChange = "2017-12-19 09:07:51 +0000";
layers = (
{
layerId = "0B1DFD06-3317-40CA-B510-4969A0718C16";
paths = (
{
closed = 1;
nodes = (
"305 626 LINE",
"319 658 LINE",
"424 880 LINE",
"407 874 LINE",
"403 864 OFFCURVE",
"361 816 OFFCURVE",
"287 812 CURVE",
"276 802 LINE",
"287 804 OFFCURVE",
"298 802 OFFCURVE",
"307 800 CURVE SMOOTH",
"322 796 OFFCURVE",
"334 789 OFFCURVE",
"326 770 CURVE SMOOTH",
"268 640 LINE",
"101 270 LINE SMOOTH",
"85 236 OFFCURVE",
"71 205 OFFCURVE",
"60 175 CURVE SMOOTH",
"40 124 OFFCURVE",
"20 65 OFFCURVE",
"29 35 CURVE",
"31 22 OFFCURVE",
"34 15 OFFCURVE",
"35 11 CURVE",
"41 1 OFFCURVE",
"51 -2 OFFCURVE",
"67 -1 CURVE SMOOTH",
"127 2 OFFCURVE",
"196 85 OFFCURVE",
"200 89 CURVE",
"191 82 OFFCURVE",
"96 22 OFFCURVE",
"67 39 CURVE",
"61 91 OFFCURVE",
"107 176 OFFCURVE",
"136 253 CURVE"
);
}
);
width = 296;
}
);
note = l;
unicode = 006C;
},
{
glyphname = m;
lastChange = "2017-12-19 09:07:51 +0000";
layers = (
{
layerId = "0B1DFD06-3317-40CA-B510-4969A0718C16";
paths = (
{
closed = 1;
nodes = (
"754 426 OFFCURVE",
"730 456 OFFCURVE",
"721 456 CURVE",
"670 466 OFFCURVE",
"522 379 OFFCURVE",
"452 292 CURVE",
"464 324 OFFCURVE",
"500 398 OFFCURVE",
"504 414 CURVE",
"503 421 OFFCURVE",
"500 426 OFFCURVE",
"498 429 CURVE",
"494 438 OFFCURVE",
"490 444 OFFCURVE",
"487 448 CURVE",
"478 454 OFFCURVE",
"466 464 OFFCURVE",
"442 456 CURVE SMOOTH",
"424 449 OFFCURVE",
"287 403 OFFCURVE",
"208 317 CURVE",
"237 371 LINE",
"246 392 OFFCURVE",
"250 418 OFFCURVE",
"245 433 CURVE",
"241 443 OFFCURVE",
"236 452 OFFCURVE",
"227 456 CURVE",
"140 477 OFFCURVE",
"64 358 OFFCURVE",
"64 357 CURVE",
"65 356 OFFCURVE",
"155 432 OFFCURVE",
"208 418 CURVE",
"210 414 OFFCURVE",
"210 411 OFFCURVE",
"210 407 CURVE SMOOTH",
"210 403 OFFCURVE",
"205 394 OFFCURVE",
"201 386 CURVE SMOOTH",
"193 369 LINE",
"6 -4 LINE",
"60 15 LINE",
"196 288 LINE",
"307 372 OFFCURVE",
"443 422 OFFCURVE",
"463 418 CURVE",
"392 261 LINE SMOOTH",
"352 173 OFFCURVE",
"303 67 OFFCURVE",
"270 -2 CURVE",
"268 -4 OFFCURVE",
"281 0 OFFCURVE",
"295 4 CURVE",
"302 6 OFFCURVE",
"311 9 OFFCURVE",
"319 12 CURVE",
"436 258 LINE",
"542 341 OFFCURVE",
"700 424 OFFCURVE",
"711 413 CURVE",
"690 362 LINE",
"670 314 LINE SMOOTH",
"550 27 OFFCURVE",
"552 35 OFFCURVE",
"552 29 CURVE SMOOTH",
"552 19 OFFCURVE",
"557 7 OFFCURVE",
"568 4 CURVE",
"644 -10 OFFCURVE",
"724 82 OFFCURVE",
"731 90 CURVE",
"721 82 OFFCURVE",
"671 59 OFFCURVE",
"623 39 CURVE",
"600 26 OFFCURVE",
"595 39 OFFCURVE",
"594 37 CURVE",
"610 77 OFFCURVE",
"674 221 OFFCURVE",
"706 300 CURVE SMOOTH",
"715 321 OFFCURVE",
"723 341 OFFCURVE",
"730 357 CURVE",
"741 386 OFFCURVE",
"754 416 OFFCURVE",
"754 422 CURVE SMOOTH"
);
}
);
width = 745;
}
);
note = m;
unicode = 006D;
},
{
glyphname = n;
lastChange = "2017-12-19 09:07:51 +0000";
layers = (
{
layerId = "0B1DFD06-3317-40CA-B510-4969A0718C16";
paths = (
{
closed = 1;
nodes = (
"342 61 LINE",
"421 232 LINE SMOOTH",
"461 318 OFFCURVE",
"500 408 OFFCURVE",
"504 414 CURVE",
"497 429 LINE",
"493 438 OFFCURVE",
"489 444 OFFCURVE",
"485 449 CURVE",
"479 456 OFFCURVE",
"466 466 OFFCURVE",
"441 456 CURVE SMOOTH",
"424 449 OFFCURVE",
"290 404 OFFCURVE",
"208 317 CURVE",
"237 372 LINE",
"246 392 OFFCURVE",
"250 419 OFFCURVE",
"245 434 CURVE",
"241 444 OFFCURVE",
"236 452 OFFCURVE",
"226 456 CURVE",
"140 478 OFFCURVE",
"64 357 OFFCURVE",
"64 358 CURVE",
"65 358 OFFCURVE",
"155 432 OFFCURVE",
"208 418 CURVE",
"208 414 OFFCURVE",
"210 411 OFFCURVE",
"210 407 CURVE SMOOTH",
"210 403 OFFCURVE",
"205 396 OFFCURVE",
"201 387 CURVE",
"197 382 OFFCURVE",
"195 377 OFFCURVE",
"192 371 CURVE",
"6 -4 LINE",
"60 16 LINE",
"195 290 LINE",
"310 374 OFFCURVE",
"441 419 OFFCURVE",
"462 419 CURVE",
"374 228 LINE SMOOTH",
"331 132 OFFCURVE",
"288 37 OFFCURVE",
"288 36 CURVE SMOOTH",
"288 26 OFFCURVE",
"293 4 OFFCURVE",
"305 2 CURVE",
"386 -14 OFFCURVE",
"469 91 OFFCURVE",
"469 90 CURVE",
"466 84 OFFCURVE",
"412 57 OFFCURVE",
"359 37 CURVE",
"336 24 OFFCURVE",
"332 36 OFFCURVE",
"331 36 CURVE"
);
}
);
width = 502;
}
);
note = n;
unicode = 006E;
},
{
glyphname = o;
lastChange = "2017-12-19 09:07:51 +0000";
layers = (
{
layerId = "0B1DFD06-3317-40CA-B510-4969A0718C16";
paths = (
{
closed = 1;
nodes = (
"256 407 OFFCURVE",
"211 347 OFFCURVE",
"207 277 CURVE SMOOTH",
"205 176 OFFCURVE",
"283 173 OFFCURVE",
"282 175 CURVE",
"282 177 OFFCURVE",
"247 203 OFFCURVE",
"247 277 CURVE SMOOTH",
"247 331 OFFCURVE",
"288 381 OFFCURVE",
"314 397 CURVE SMOOTH",
"339 413 OFFCURVE",
"362 418 OFFCURVE",
"383 412 CURVE",
"401 406 OFFCURVE",
"413 392 OFFCURVE",
"422 371 CURVE SMOOTH",
"446 310 OFFCURVE",
"426 238 OFFCURVE",
"408 201 CURVE",
"398 175 OFFCURVE",
"344 92 OFFCURVE",
"291 62 CURVE SMOOTH",
"245 36 OFFCURVE",
"155 12 OFFCURVE",
"99 55 CURVE",
"80 67 OFFCURVE",
"35 131 OFFCURVE",
"71 226 CURVE SMOOTH",
"121 356 OFFCURVE",
"240 426 OFFCURVE",
"241 427 CURVE SMOOTH",
"242 428 OFFCURVE",
"92 387 OFFCURVE",
"34 238 CURVE SMOOTH",
"-12 119 OFFCURVE",
"49 44 OFFCURVE",
"75 24 CURVE SMOOTH",
"142 -27 OFFCURVE",
"243 -7 OFFCURVE",
"310 29 CURVE SMOOTH",
"378 69 OFFCURVE",
"433 157 OFFCURVE",
"446 186 CURVE",
"467 241 OFFCURVE",
"487 312 OFFCURVE",
"459 384 CURVE SMOOTH",
"447 418 OFFCURVE",
"426 439 OFFCURVE",
"396 448 CURVE SMOOTH",
"364 458 OFFCURVE",
"329 452 OFFCURVE",
"293 431 CURVE SMOOTH"
);
}
);
width = 478;
}
);
note = o;
unicode = 006F;
},
{
glyphname = p;
lastChange = "2017-12-19 09:07:51 +0000";
layers = (
{
layerId = "0B1DFD06-3317-40CA-B510-4969A0718C16";
paths = (
{
closed = 1;
nodes = (
"545 473 OFFCURVE",
"484 464 OFFCURVE",
"462 458 CURVE",
"388 442 OFFCURVE",
"344 402 OFFCURVE",
"301 358 CURVE SMOOTH",
"290 347 OFFCURVE",
"261 314 OFFCURVE",
"232 283 CURVE",
"245 312 OFFCURVE",
"256 339 OFFCURVE",
"265 366 CURVE SMOOTH",
"285 426 LINE",
"283 444 OFFCURVE",
"275 452 OFFCURVE",
"268 456 CURVE SMOOTH",
"255 464 OFFCURVE",
"242 461 OFFCURVE",
"223 457 CURVE SMOOTH",
"171 448 OFFCURVE",
"111 366 OFFCURVE",
"111 366 CURVE SMOOTH",
"111 366 OFFCURVE",
"191 422 OFFCURVE",
"236 422 CURVE SMOOTH",
"240 422 LINE SMOOTH",
"243 422 OFFCURVE",
"245 423 OFFCURVE",
"246 423 CURVE SMOOTH",
"247 423 LINE",
"228 379 LINE",
"198 297 OFFCURVE",
"141 158 OFFCURVE",
"85 32 CURVE",
"60 32 OFFCURVE",
"-12 41 OFFCURVE",
"-24 45 CURVE",
"-15 39 OFFCURVE",
"21 12 OFFCURVE",
"71 4 CURVE",
"71 6 OFFCURVE",
"-105 -398 OFFCURVE",
"-114 -417 CURVE",
"-110 -413 OFFCURVE",
"-52 -398 OFFCURVE",
"-55 -401 CURVE",
"-54 -399 OFFCURVE",
"116 -2 OFFCURVE",
"114 5 CURVE",
"183 9 OFFCURVE",
"225 20 OFFCURVE",
"253 25 CURVE",
"337 45 OFFCURVE",
"475 126 OFFCURVE",
"537 223 CURVE SMOOTH",
"630 371 OFFCURVE",
"599 409 OFFCURVE",
"568 447 CURVE SMOOTH"
);
},
{
closed = 1;
nodes = (
"456 177 OFFCURVE",
"338 91 OFFCURVE",
"240 61 CURVE SMOOTH",
"218 55 OFFCURVE",
"181 40 OFFCURVE",
"127 36 CURVE",
"146 80 OFFCURVE",
"170 130 OFFCURVE",
"186 171 CURVE",
"208 237 OFFCURVE",
"300 302 OFFCURVE",
"328 331 CURVE SMOOTH",
"367 369 OFFCURVE",
"412 398 OFFCURVE",
"475 423 CURVE",
"489 431 OFFCURVE",
"532 429 OFFCURVE",
"538 423 CURVE",
"555 402 OFFCURVE",
"572 359 OFFCURVE",
"495 241 CURVE SMOOTH"
);
},
{
closed = 1;
nodes = (
"-25 45 OFFCURVE",
"-25 45 OFFCURVE",
"-24 45 CURVE",
"-25 46 OFFCURVE",
"-26 46 OFFCURVE",
"-26 46 CURVE"
);
}
);
width = 583;
}
);
note = p;
unicode = 0070;
},
{
glyphname = q;
lastChange = "2017-12-19 09:07:51 +0000";
layers = (
{
layerId = "0B1DFD06-3317-40CA-B510-4969A0718C16";
paths = (
{
closed = 1;
nodes = (
"343 397 OFFCURVE",
"433 421 OFFCURVE",
"504 434 CURVE SMOOTH",
"545 442 OFFCURVE",
"587 447 OFFCURVE",
"628 448 CURVE",
"628 452 OFFCURVE",
"449 489 OFFCURVE",
"247 387 CURVE SMOOTH",
"137 331 OFFCURVE",
"12 231 OFFCURVE",
"6 111 CURVE SMOOTH",
"2 57 OFFCURVE",
"36 14 OFFCURVE",
"101 0 CURVE SMOOTH",
"163 -12 OFFCURVE",
"260 41 OFFCURVE",
"310 77 CURVE SMOOTH",
"351 107 LINE",
"392 139 LINE",
"386 124 OFFCURVE",
"362 79 OFFCURVE",
"338 35 CURVE SMOOTH",
"295 -47 LINE SMOOTH",
"147 -305 OFFCURVE",
"105 -419 OFFCURVE",
"101 -423 CURVE",
"105 -421 OFFCURVE",
"115 -418 OFFCURVE",
"131 -416 CURVE",
"157 -411 LINE",
"154 -407 OFFCURVE",
"248 -208 OFFCURVE",
"312 -96 CURVE",
"341 -52 OFFCURVE",
"393 -10 OFFCURVE",
"442 24 CURVE SMOOTH",
"469 44 OFFCURVE",
"499 62 OFFCURVE",
"530 80 CURVE",
"514 80 OFFCURVE",
"426 44 OFFCURVE",
"361 -4 CURVE",
"540 366 LINE",
"497 362 LINE",
"459 287 LINE SMOOTH",
"439 248 OFFCURVE",
"418 208 OFFCURVE",
"409 198 CURVE SMOOTH",
"358 137 OFFCURVE",
"293 105 OFFCURVE",
"298 107 CURVE",
"255 77 OFFCURVE",
"155 34 OFFCURVE",
"105 47 CURVE SMOOTH",
"70 56 OFFCURVE",
"46 85 OFFCURVE",
"51 116 CURVE SMOOTH",
"67 222 OFFCURVE",
"217 326 OFFCURVE",
"265 353 CURVE SMOOTH"
);
}
);
width = 544;
}
);
note = q;
unicode = 0071;
},
{
glyphname = r;
lastChange = "2017-12-19 09:07:51 +0000";
layers = (
{
layerId = "0B1DFD06-3317-40CA-B510-4969A0718C16";
paths = (
{
closed = 1;
nodes = (
"489 434 OFFCURVE",
"448 441 OFFCURVE",
"424 437 CURVE SMOOTH",
"361 428 OFFCURVE",
"305 391 OFFCURVE",
"261 351 CURVE",
"282 391 OFFCURVE",
"292 416 OFFCURVE",
"287 432 CURVE",
"272 449 LINE",
"253 458 OFFCURVE",
"218 452 OFFCURVE",
"182 428 CURVE",
"163 414 OFFCURVE",
"141 398 OFFCURVE",
"125 382 CURVE",
"115 373 OFFCURVE",
"105 363 OFFCURVE",
"96 353 CURVE",
"96 352 OFFCURVE",
"222 431 OFFCURVE",
"247 412 CURVE",
"241 388 OFFCURVE",
"210 334 OFFCURVE",
"196 314 CURVE",
"120 158 LINE",
"36 -7 LINE",
"60 0 LINE",
"65 1 OFFCURVE",
"71 5 OFFCURVE",
"75 6 CURVE SMOOTH",
"82 9 LINE",
"177 197 LINE SMOOTH",
"185 213 OFFCURVE",
"193 230 OFFCURVE",
"202 245 CURVE SMOOTH",
"217 271 OFFCURVE",
"237 302 OFFCURVE",
"261 322 CURVE SMOOTH",
"291 348 OFFCURVE",
"369 394 OFFCURVE",
"428 398 CURVE SMOOTH",
"452 399 OFFCURVE",
"464 393 OFFCURVE",
"467 378 CURVE",
"475 342 OFFCURVE",
"439 337 OFFCURVE",
"438 336 CURVE",
"438 336 OFFCURVE",
"464 313 OFFCURVE",
"490 334 CURVE",
"504 343 OFFCURVE",
"509 373 OFFCURVE",
"504 389 CURVE SMOOTH"
);
}
);
width = 439;
}
);
note = r;
unicode = 0072;
},
{
glyphname = s;
lastChange = "2017-12-19 09:07:51 +0000";
layers = (
{
layerId = "0B1DFD06-3317-40CA-B510-4969A0718C16";
paths = (
{
closed = 1;
nodes = (
"378 147 OFFCURVE",
"372 120 OFFCURVE",
"357 96 CURVE SMOOTH",
"337 65 OFFCURVE",
"301 41 OFFCURVE",
"262 35 CURVE SMOOTH",
"206 25 OFFCURVE",
"131 19 OFFCURVE",
"80 60 CURVE SMOOTH",
"66 71 OFFCURVE",
"57 82 OFFCURVE",
"56 96 CURVE",
"55 105 OFFCURVE",
"57 114 OFFCURVE",
"64 121 CURVE SMOOTH",
"74 132 OFFCURVE",
"109 139 OFFCURVE",
"127 130 CURVE",
"175 111 OFFCURVE",
"196 65 OFFCURVE",
"197 65 CURVE",
"218 106 OFFCURVE",
"178 149 OFFCURVE",
"149 162 CURVE",
"119 172 OFFCURVE",
"61 172 OFFCURVE",
"36 145 CURVE",
"22 129 OFFCURVE",
"17 111 OFFCURVE",
"20 92 CURVE SMOOTH",
"24 69 OFFCURVE",
"36 46 OFFCURVE",
"56 31 CURVE SMOOTH",
"119 -17 OFFCURVE",
"207 -15 OFFCURVE",
"270 -1 CURVE",
"318 7 OFFCURVE",
"362 36 OFFCURVE",
"387 76 CURVE SMOOTH",
"408 110 OFFCURVE",
"419 149 OFFCURVE",
"406 185 CURVE",
"376 275 OFFCURVE",
"248 258 OFFCURVE",
"228 255 CURVE",
"240 255 OFFCURVE",
"349 248 OFFCURVE",
"369 176 CURVE SMOOTH"
);
},
{
closed = 1;
nodes = (
"293 462 OFFCURVE",
"226 444 OFFCURVE",
"177 393 CURVE SMOOTH",
"136 347 OFFCURVE",
"124 281 OFFCURVE",
"157 230 CURVE",
"182 186 OFFCURVE",
"220 176 OFFCURVE",
"250 175 CURVE SMOOTH",
"267 173 OFFCURVE",
"285 177 OFFCURVE",
"303 183 CURVE",
"305 182 OFFCURVE",
"215 197 OFFCURVE",
"188 247 CURVE SMOOTH",
"172 277 OFFCURVE",
"166 327 OFFCURVE",
"205 368 CURVE SMOOTH",
"243 409 OFFCURVE",
"295 422 OFFCURVE",
"348 408 CURVE SMOOTH",
"424 389 OFFCURVE",
"456 287 OFFCURVE",
"456 286 CURVE",
"458 310 OFFCURVE",
"457 331 OFFCURVE",
"451 352 CURVE SMOOTH",
"441 387 OFFCURVE",
"418 427 OFFCURVE",
"359 443 CURVE SMOOTH"
);
}
);
width = 453;
}
);
note = s;
unicode = 0073;
},
{
glyphname = t;
lastChange = "2017-12-19 09:07:51 +0000";
layers = (
{
layerId = "0B1DFD06-3317-40CA-B510-4969A0718C16";
paths = (
{
closed = 1;
nodes = (
"411 733 LINE",
"399 731 OFFCURVE",
"389 729 OFFCURVE",
"389 730 CURVE",
"389 730 OFFCURVE",
"321 608 OFFCURVE",
"251 467 CURVE",
"200 467 LINE SMOOTH",
"185 467 OFFCURVE",
"167 467 OFFCURVE",
"149 468 CURVE",
"135 446 LINE",
"240 444 LINE",
"205 379 OFFCURVE",
"65 107 OFFCURVE",
"44 55 CURVE SMOOTH",
"32 26 OFFCURVE",
"40 5 OFFCURVE",
"49 0 CURVE",
"97 -24 OFFCURVE",
"186 86 OFFCURVE",
"202 102 CURVE",
"181 89 OFFCURVE",
"100 27 OFFCURVE",
"76 35 CURVE",
"76 45 OFFCURVE",
"130 146 OFFCURVE",
"180 246 CURVE SMOOTH",
"210 305 OFFCURVE",
"243 371 OFFCURVE",
"282 444 CURVE",
"373 444 LINE",
"388 467 LINE",
"293 466 LINE",
"295 466 OFFCURVE",
"434 739 OFFCURVE",
"433 736 CURVE"
);
},
{
closed = 1;
nodes = (
"202 102 LINE",
"206 106 LINE"
);
}
);
width = 334;
}
);
note = t;
unicode = 0074;
},
{
glyphname = u;
lastChange = "2017-12-19 09:07:51 +0000";
layers = (
{
layerId = "0B1DFD06-3317-40CA-B510-4969A0718C16";
paths = (
{
closed = 1;
nodes = (
"482 230 LINE",
"535 338 LINE SMOOTH",
"562 392 OFFCURVE",
"588 449 OFFCURVE",
"588 452 CURVE",
"579 448 LINE",
"574 444 OFFCURVE",
"568 446 OFFCURVE",
"562 442 CURVE",
"537 431 LINE",
"513 371 OFFCURVE",
"487 321 OFFCURVE",
"458 280 CURVE SMOOTH",
"368 158 OFFCURVE",
"213 84 OFFCURVE",
"190 70 CURVE SMOOTH",
"152 50 OFFCURVE",
"89 29 OFFCURVE",
"79 39 CURVE",
"80 52 OFFCURVE",
"95 79 OFFCURVE",
"101 89 CURVE",
"154 183 LINE",
"216 287 LINE",
"240 331 OFFCURVE",
"272 377 OFFCURVE",
"276 421 CURVE",
"277 431 OFFCURVE",
"257 453 OFFCURVE",
"248 453 CURVE SMOOTH",
"210 453 OFFCURVE",
"173 423 OFFCURVE",
"145 393 CURVE SMOOTH",
"129 376 OFFCURVE",
"114 356 OFFCURVE",
"100 333 CURVE",
"99 334 OFFCURVE",
"208 438 OFFCURVE",
"235 411 CURVE",
"235 409 LINE",
"226 381 OFFCURVE",
"206 351 OFFCURVE",
"185 310 CURVE",
"121 203 LINE",
"66 106 LINE SMOOTH",
"51 77 OFFCURVE",
"40 55 OFFCURVE",
"40 36 CURVE SMOOTH",
"40 27 OFFCURVE",
"41 21 OFFCURVE",
"45 17 CURVE",
"71 -21 OFFCURVE",
"157 11 OFFCURVE",
"193 34 CURVE",
"227 57 OFFCURVE",
"369 129 OFFCURVE",
"453 256 CURVE",
"372 94 LINE",
"357 64 LINE SMOOTH",
"348 47 OFFCURVE",
"344 27 OFFCURVE",
"351 16 CURVE",
"357 2 OFFCURVE",
"372 1 OFFCURVE",
"391 -2 CURVE",
"434 -9 OFFCURVE",
"513 66 OFFCURVE",
"519 72 CURVE",
"510 66 OFFCURVE",
"457 42 OFFCURVE",
"419 29 CURVE",
"414 27 OFFCURVE",
"411 26 OFFCURVE",
"407 26 CURVE SMOOTH",
"401 26 OFFCURVE",
"394 27 OFFCURVE",
"391 32 CURVE",
"387 41 OFFCURVE",
"392 50 OFFCURVE",
"396 59 CURVE",
"404 75 LINE"
);
}
);
width = 559;
}
);
note = u;
unicode = 0075;
},
{
glyphname = v;
lastChange = "2017-12-19 09:07:51 +0000";
layers = (
{
layerId = "0B1DFD06-3317-40CA-B510-4969A0718C16";
paths = (
{
closed = 1;
nodes = (
"327 422 OFFCURVE",
"374 423 OFFCURVE",
"388 363 CURVE",
"389 354 OFFCURVE",
"391 344 OFFCURVE",
"391 334 CURVE SMOOTH",
"391 300 OFFCURVE",
"383 260 OFFCURVE",
"363 231 CURVE SMOOTH",
"331 182 OFFCURVE",
"306 158 OFFCURVE",
"231 116 CURVE SMOOTH",
"112 47 LINE",
"114 66 OFFCURVE",
"107 96 OFFCURVE",
"101 121 CURVE SMOOTH",
"97 136 OFFCURVE",
"94 151 OFFCURVE",
"87 166 CURVE",
"76 200 OFFCURVE",
"67 242 OFFCURVE",
"67 281 CURVE SMOOTH",
"67 307 OFFCURVE",
"71 332 OFFCURVE",
"81 348 CURVE",
"101 378 OFFCURVE",
"142 412 OFFCURVE",
"175 408 CURVE SMOOTH",
"235 402 OFFCURVE",
"241 336 OFFCURVE",
"242 337 CURVE",
"248 348 OFFCURVE",
"251 358 OFFCURVE",
"252 364 CURVE",
"253 368 OFFCURVE",
"253 371 OFFCURVE",
"252 374 CURVE",
"257 418 OFFCURVE",
"232 447 OFFCURVE",
"176 447 CURVE SMOOTH",
"126 447 OFFCURVE",
"72 409 OFFCURVE",
"49 368 CURVE SMOOTH",
"12 306 OFFCURVE",
"32 200 OFFCURVE",
"52 154 CURVE",
"76 91 OFFCURVE",
"85 0 OFFCURVE",
"85 0 CURVE SMOOTH",
"85 0 OFFCURVE",
"191 70 OFFCURVE",
"238 95 CURVE",
"307 135 OFFCURVE",
"352 156 OFFCURVE",
"391 212 CURVE SMOOTH",
"424 258 OFFCURVE",
"436 317 OFFCURVE",
"426 371 CURVE SMOOTH",
"421 397 OFFCURVE",
"407 433 OFFCURVE",
"378 442 CURVE SMOOTH",
"352 451 OFFCURVE",
"334 441 OFFCURVE",
"321 429 CURVE SMOOTH",
"313 423 OFFCURVE",
"307 414 OFFCURVE",
"303 406 CURVE"
);
}
);
width = 421;
}
);
note = v;
unicode = 0076;
},
{
glyphname = w;
lastChange = "2017-12-19 09:07:51 +0000";
layers = (
{
layerId = "0B1DFD06-3317-40CA-B510-4969A0718C16";
paths = (
{
closed = 1;
nodes = (
"26 252 OFFCURVE",
"-24 122 OFFCURVE",
"102 0 CURVE",
"196 74 LINE SMOOTH",
"242 110 OFFCURVE",
"290 147 OFFCURVE",
"291 147 CURVE",
"295 136 OFFCURVE",
"336 14 OFFCURVE",
"349 0 CURVE",
"351 0 OFFCURVE",
"572 192 OFFCURVE",
"590 207 CURVE",
"666 280 OFFCURVE",
"675 317 OFFCURVE",
"671 373 CURVE",
"661 461 OFFCURVE",
"554 451 OFFCURVE",
"553 449 CURVE",
"553 448 OFFCURVE",
"629 433 OFFCURVE",
"630 371 CURVE SMOOTH",
"630 324 OFFCURVE",
"628 288 OFFCURVE",
"568 225 CURVE SMOOTH",
"539 192 OFFCURVE",
"418 70 OFFCURVE",
"368 40 CURVE",
"358 61 OFFCURVE",
"327 161 OFFCURVE",
"323 177 CURVE",
"386 236 OFFCURVE",
"447 305 OFFCURVE",
"447 393 CURVE SMOOTH",
"447 398 OFFCURVE",
"447 441 OFFCURVE",
"413 454 CURVE SMOOTH",
"389 463 OFFCURVE",
"358 457 OFFCURVE",
"338 438 CURVE SMOOTH",
"298 398 OFFCURVE",
"255 327 OFFCURVE",
"285 173 CURVE",
"273 163 OFFCURVE",
"110 35 OFFCURVE",
"109 34 CURVE",
"79 81 OFFCURVE",
"32 173 OFFCURVE",
"95 290 CURVE SMOOTH",
"119 331 OFFCURVE",
"152 366 OFFCURVE",
"181 391 CURVE SMOOTH",
"197 406 OFFCURVE",
"215 418 OFFCURVE",
"233 429 CURVE",
"235 429 OFFCURVE",
"126 411 OFFCURVE",
"62 311 CURVE SMOOTH"
);
},
{
closed = 1;
nodes = (
"308 334 OFFCURVE",
"331 379 OFFCURVE",
"364 409 CURVE SMOOTH",
"376 419 OFFCURVE",
"388 422 OFFCURVE",
"399 418 CURVE SMOOTH",
"403 417 OFFCURVE",
"408 416 OFFCURVE",
"408 402 CURVE SMOOTH",
"408 393 LINE SMOOTH",
"408 329 OFFCURVE",
"364 250 OFFCURVE",
"318 203 CURVE",
"318 207 OFFCURVE",
"308 257 OFFCURVE",
"308 266 CURVE SMOOTH"
);
}
);
width = 659;
}
);
note = w;
unicode = 0077;
},
{
glyphname = x;
lastChange = "2017-12-19 09:07:51 +0000";
layers = (
{
layerId = "0B1DFD06-3317-40CA-B510-4969A0718C16";
paths = (
{
closed = 1;
nodes = (
"530 462 OFFCURVE",
"498 463 OFFCURVE",
"472 439 CURVE",
"424 399 OFFCURVE",
"344 236 OFFCURVE",
"344 235 CURVE",
"331 271 OFFCURVE",
"317 305 OFFCURVE",
"305 334 CURVE SMOOTH",
"283 386 OFFCURVE",
"260 437 OFFCURVE",
"246 446 CURVE",
"190 475 OFFCURVE",
"134 427 OFFCURVE",
"134 424 CURVE",
"134 424 OFFCURVE",
"195 444 OFFCURVE",
"223 414 CURVE",
"230 402 OFFCURVE",
"319 196 OFFCURVE",
"319 198 CURVE",
"318 198 OFFCURVE",
"215 21 OFFCURVE",
"89 39 CURVE",
"70 42 OFFCURVE",
"60 55 OFFCURVE",
"56 69 CURVE",
"51 82 OFFCURVE",
"55 96 OFFCURVE",
"66 109 CURVE SMOOTH",
"112 160 OFFCURVE",
"222 125 OFFCURVE",
"222 124 CURVE",
"223 124 OFFCURVE",
"125 216 OFFCURVE",
"41 136 CURVE",
"17 116 OFFCURVE",
"11 86 OFFCURVE",
"20 57 CURVE SMOOTH",
"29 27 OFFCURVE",
"52 6 OFFCURVE",
"82 1 CURVE SMOOTH",
"157 -10 OFFCURVE",
"235 27 OFFCURVE",
"278 92 CURVE SMOOTH",
"329 170 LINE",
"364 85 OFFCURVE",
"387 34 OFFCURVE",
"401 19 CURVE",
"437 -25 OFFCURVE",
"517 11 OFFCURVE",
"520 11 CURVE",
"515 11 OFFCURVE",
"449 11 OFFCURVE",
"429 45 CURVE",
"422 59 OFFCURVE",
"383 136 OFFCURVE",
"353 210 CURVE",
"372 243 OFFCURVE",
"391 275 OFFCURVE",
"407 302 CURVE SMOOTH",
"436 351 OFFCURVE",
"469 401 OFFCURVE",
"490 411 CURVE SMOOTH",
"547 437 OFFCURVE",
"562 357 OFFCURVE",
"563 357 CURVE",
"563 356 OFFCURVE",
"590 418 OFFCURVE",
"557 443 CURVE SMOOTH"
);
}
);
width = 554;
}
);
note = x;
unicode = 0078;
},
{
glyphname = y;
lastChange = "2017-12-19 09:07:51 +0000";
layers = (
{
layerId = "0B1DFD06-3317-40CA-B510-4969A0718C16";
paths = (
{
closed = 1;
nodes = (
"533 446 OFFCURVE",
"484 429 OFFCURVE",
"484 431 CURVE SMOOTH",
"484 432 OFFCURVE",
"443 347 OFFCURVE",
"373 201 CURVE",
"326 134 OFFCURVE",
"242 72 OFFCURVE",
"173 41 CURVE SMOOTH",
"151 31 OFFCURVE",
"95 21 OFFCURVE",
"79 37 CURVE SMOOTH",
"64 52 OFFCURVE",
"64 70 OFFCURVE",
"87 115 CURVE SMOOTH",
"154 238 LINE SMOOTH",
"187 301 OFFCURVE",
"222 367 OFFCURVE",
"226 378 CURVE",
"235 398 OFFCURVE",
"241 422 OFFCURVE",
"227 436 CURVE SMOOTH",
"221 442 OFFCURVE",
"210 447 OFFCURVE",
"188 441 CURVE SMOOTH",
"114 421 OFFCURVE",
"75 342 OFFCURVE",
"65 329 CURVE",
"75 339 OFFCURVE",
"129 388 OFFCURVE",
"172 402 CURVE",
"181 406 OFFCURVE",
"185 403 OFFCURVE",
"191 403 CURVE",
"190 399 OFFCURVE",
"191 399 OFFCURVE",
"191 396 CURVE SMOOTH",
"191 392 LINE",
"187 382 OFFCURVE",
"152 318 OFFCURVE",
"119 255 CURVE SMOOTH",
"99 218 OFFCURVE",
"76 177 OFFCURVE",
"52 131 CURVE SMOOTH",
"42 112 OFFCURVE",
"30 86 OFFCURVE",
"30 61 CURVE SMOOTH",
"30 42 OFFCURVE",
"36 25 OFFCURVE",
"52 10 CURVE",
"90 -27 OFFCURVE",
"173 5 OFFCURVE",
"190 15 CURVE",
"225 34 OFFCURVE",
"286 75 OFFCURVE",
"349 144 CURVE",
"286 16 LINE SMOOTH",
"253 -49 OFFCURVE",
"213 -125 OFFCURVE",
"200 -145 CURVE",
"130 -135 OFFCURVE",
"71 -131 OFFCURVE",
"5 -142 CURVE SMOOTH",
"-52 -152 OFFCURVE",
"-126 -176 OFFCURVE",
"-160 -233 CURVE SMOOTH",
"-175 -260 OFFCURVE",
"-178 -285 OFFCURVE",
"-171 -308 CURVE",
"-162 -332 OFFCURVE",
"-144 -351 OFFCURVE",
"-117 -362 CURVE SMOOTH",
"-49 -392 OFFCURVE",
"47 -373 OFFCURVE",
"104 -337 CURVE SMOOTH",
"137 -316 OFFCURVE",
"175 -265 OFFCURVE",
"221 -180 CURVE",
"266 -183 OFFCURVE",
"346 -255 OFFCURVE",
"346 -250 CURVE",
"312 -210 LINE",
"292 -188 OFFCURVE",
"265 -163 OFFCURVE",
"240 -154 CURVE",
"266 -114 OFFCURVE",
"535 443 OFFCURVE",
"533 444 CURVE"
);
},
{
closed = 1;
nodes = (
"39 -336 OFFCURVE",
"-46 -353 OFFCURVE",
"-102 -327 CURVE SMOOTH",
"-119 -319 OFFCURVE",
"-130 -310 OFFCURVE",
"-135 -296 CURVE",
"-139 -282 OFFCURVE",
"-136 -268 OFFCURVE",
"-126 -252 CURVE SMOOTH",
"-101 -211 OFFCURVE",
"-42 -186 OFFCURVE",
"9 -177 CURVE SMOOTH",
"67 -168 OFFCURVE",
"120 -160 OFFCURVE",
"180 -173 CURVE",
"152 -221 OFFCURVE",
"107 -287 OFFCURVE",
"84 -305 CURVE SMOOTH"
);
},
{
closed = 1;
nodes = (
"65 329 LINE",
"62 327 LINE"
);
}
);
width = 510;
}
);
note = y;
unicode = 0079;
},
{
glyphname = z;
lastChange = "2017-12-19 09:07:51 +0000";
layers = (
{
layerId = "0B1DFD06-3317-40CA-B510-4969A0718C16";
paths = (
{
closed = 1;
nodes = (
"382 434 OFFCURVE",
"361 421 OFFCURVE",
"339 409 CURVE",
"301 391 OFFCURVE",
"252 376 OFFCURVE",
"203 394 CURVE",
"160 409 OFFCURVE",
"122 438 OFFCURVE",
"112 472 CURVE",
"112 473 OFFCURVE",
"77 393 OFFCURVE",
"192 366 CURVE SMOOTH",
"256 352 OFFCURVE",
"302 376 OFFCURVE",
"338 386 CURVE",
"337 386 OFFCURVE",
"225 273 OFFCURVE",
"225 272 CURVE",
"221 272 OFFCURVE",
"106 273 OFFCURVE",
"109 276 CURVE",
"109 277 OFFCURVE",
"89 252 OFFCURVE",
"90 252 CURVE SMOOTH",
"111 252 OFFCURVE",
"130 252 OFFCURVE",
"146 251 CURVE SMOOTH",
"203 248 LINE",
"183 223 OFFCURVE",
"-90 2 OFFCURVE",
"-89 1 CURVE",
"-90 0 OFFCURVE",
"-6 20 OFFCURVE",
"-6 20 CURVE",
"41 74 OFFCURVE",
"190 140 OFFCURVE",
"283 110 CURVE SMOOTH",
"322 96 OFFCURVE",
"331 77 OFFCURVE",
"334 61 CURVE",
"338 52 OFFCURVE",
"331 45 OFFCURVE",
"322 36 CURVE",
"316 29 OFFCURVE",
"272 22 OFFCURVE",
"272 24 CURVE SMOOTH",
"272 26 OFFCURVE",
"310 -29 OFFCURVE",
"356 7 CURVE SMOOTH",
"409 51 OFFCURVE",
"357 130 OFFCURVE",
"302 140 CURVE SMOOTH",
"231 152 OFFCURVE",
"134 122 OFFCURVE",
"59 90 CURVE",
"109 139 OFFCURVE",
"172 198 OFFCURVE",
"226 248 CURVE",
"230 247 OFFCURVE",
"308 251 OFFCURVE",
"307 250 CURVE",
"310 253 LINE",
"316 261 LINE",
"326 272 LINE",
"251 272 LINE SMOOTH",
"251 272 OFFCURVE",
"368 388 OFFCURVE",
"396 394 CURVE",
"392 391 OFFCURVE",
"407 456 OFFCURVE",
"403 452 CURVE"
);
}
);
width = 392;
}
);
note = z;
unicode = 007A;
},
{
glyphname = AE;
lastChange = "2017-12-19 09:07:59 +0000";
layers = (
{
layerId = "0B1DFD06-3317-40CA-B510-4969A0718C16";
paths = (
{
closed = 1;
nodes = (
"1198 691 OFFCURVE",
"1184 693 OFFCURVE",
"1168 693 CURVE SMOOTH",
"1153 693 OFFCURVE",
"1127 695 OFFCURVE",
"1087 699 CURVE SMOOTH",
"1047 704 OFFCURVE",
"1018 706 OFFCURVE",
"1001 706 CURVE SMOOTH",
"950 706 OFFCURVE",
"902 695 OFFCURVE",
"859 671 CURVE",
"835 660 OFFCURVE",
"815 648 OFFCURVE",
"795 633 CURVE",
"794 634 OFFCURVE",
"794 635 OFFCURVE",
"794 635 CURVE",
"778 656 OFFCURVE",
"761 670 OFFCURVE",
"746 679 CURVE",
"733 688 OFFCURVE",
"710 694 OFFCURVE",
"679 700 CURVE",
"656 703 OFFCURVE",
"634 704 OFFCURVE",
"613 704 CURVE SMOOTH",
"543 704 OFFCURVE",
"478 691 OFFCURVE",
"417 663 CURVE SMOOTH",
"354 635 OFFCURVE",
"296 598 OFFCURVE",
"240 549 CURVE SMOOTH",
"183 503 OFFCURVE",
"139 461 OFFCURVE",
"105 423 CURVE SMOOTH",
"71 387 OFFCURVE",
"44 347 OFFCURVE",
"24 306 CURVE SMOOTH",
"4 263 OFFCURVE",
"-6 218 OFFCURVE",
"-6 171 CURVE SMOOTH",
"-6 157 OFFCURVE",
"-5 139 OFFCURVE",
"-1 112 CURVE SMOOTH",
"2 86 OFFCURVE",
"12 62 OFFCURVE",
"27 41 CURVE",
"44 20 OFFCURVE",
"62 6 OFFCURVE",
"82 1 CURVE",
"102 -2 OFFCURVE",
"117 -5 OFFCURVE",
"131 -5 CURVE SMOOTH",
"173 -5 OFFCURVE",
"218 9 OFFCURVE",
"267 37 CURVE SMOOTH",
"313 64 OFFCURVE",
"356 96 OFFCURVE",
"393 132 CURVE",
"432 166 OFFCURVE",
"462 198 OFFCURVE",
"490 232 CURVE",
"479 203 OFFCURVE",
"469 181 OFFCURVE",
"459 166 CURVE SMOOTH",
"431 121 LINE SMOOTH",
"421 106 OFFCURVE",
"406 86 OFFCURVE",
"386 60 CURVE SMOOTH",
"366 32 OFFCURVE",
"354 15 OFFCURVE",
"352 6 CURVE",
"357 6 OFFCURVE",
"368 7 OFFCURVE",
"387 4 CURVE",
"406 2 OFFCURVE",
"418 1 OFFCURVE",
"427 1 CURVE SMOOTH",
"443 1 OFFCURVE",
"456 2 OFFCURVE",
"464 6 CURVE",
"483 72 OFFCURVE",
"504 139 OFFCURVE",
"530 205 CURVE SMOOTH",
"542 233 OFFCURVE",
"553 261 OFFCURVE",
"564 286 CURVE",
"562 270 OFFCURVE",
"560 253 OFFCURVE",
"560 237 CURVE SMOOTH",
"560 211 OFFCURVE",
"564 185 OFFCURVE",
"573 156 CURVE",
"580 127 OFFCURVE",
"597 100 OFFCURVE",
"623 75 CURVE SMOOTH",
"646 51 OFFCURVE",
"678 31 OFFCURVE",
"716 17 CURVE SMOOTH",
"755 4 OFFCURVE",
"787 -2 OFFCURVE",
"821 -2 CURVE SMOOTH",
"864 -2 OFFCURVE",
"906 7 OFFCURVE",
"950 26 CURVE SMOOTH",
"992 45 OFFCURVE",
"1033 71 OFFCURVE",
"1073 105 CURVE",
"1073 115 LINE",
"985 60 OFFCURVE",
"916 32 OFFCURVE",
"867 32 CURVE SMOOTH",
"849 32 OFFCURVE",
"827 34 OFFCURVE",
"799 39 CURVE",
"770 42 OFFCURVE",
"741 57 OFFCURVE",
"713 81 CURVE SMOOTH",
"681 106 OFFCURVE",
"660 132 OFFCURVE",
"651 161 CURVE",
"641 190 OFFCURVE",
"635 215 OFFCURVE",
"631 233 CURVE SMOOTH",
"628 253 OFFCURVE",
"626 273 OFFCURVE",
"626 295 CURVE SMOOTH",
"626 321 OFFCURVE",
"630 347 OFFCURVE",
"636 376 CURVE SMOOTH",
"643 402 OFFCURVE",
"651 429 OFFCURVE",
"663 456 CURVE",
"699 461 OFFCURVE",
"733 468 OFFCURVE",
"763 478 CURVE",
"753 459 OFFCURVE",
"739 443 OFFCURVE",
"723 431 CURVE SMOOTH",
"704 417 OFFCURVE",
"684 406 OFFCURVE",
"663 399 CURVE",
"694 399 OFFCURVE",
"723 408 OFFCURVE",
"749 424 CURVE",
"775 443 OFFCURVE",
"791 462 OFFCURVE",
"800 482 CURVE",
"805 495 LINE",
"839 514 LINE",
"859 528 OFFCURVE",
"879 539 OFFCURVE",
"900 553 CURVE SMOOTH",
"920 565 OFFCURVE",
"934 575 OFFCURVE",
"942 584 CURVE",
"847 408 LINE SMOOTH",
"826 369 OFFCURVE",
"804 329 OFFCURVE",
"778 285 CURVE SMOOTH",
"699 150 LINE",
"695 140 LINE",
"790 140 LINE",
"790 175 OFFCURVE",
"795 206 OFFCURVE",
"806 232 CURVE",
"816 261 OFFCURVE",
"835 286 OFFCURVE",
"859 311 CURVE SMOOTH",
"884 336 OFFCURVE",
"906 352 OFFCURVE",
"926 366 CURVE",
"946 378 OFFCURVE",
"967 384 OFFCURVE",
"991 384 CURVE SMOOTH",
"1005 384 OFFCURVE",
"1016 383 OFFCURVE",
"1025 379 CURVE",
"1035 376 OFFCURVE",
"1042 369 OFFCURVE",
"1046 362 CURVE",
"1055 341 LINE",
"1066 344 OFFCURVE",
"1072 351 OFFCURVE",
"1076 359 CURVE",
"1081 368 OFFCURVE",
"1083 378 OFFCURVE",
"1083 392 CURVE SMOOTH",
"1083 412 OFFCURVE",
"1075 424 OFFCURVE",
"1058 429 CURVE SMOOTH",
"1042 434 OFFCURVE",
"1027 437 OFFCURVE",
"1015 437 CURVE SMOOTH",
"993 437 OFFCURVE",
"973 432 OFFCURVE",
"955 422 CURVE SMOOTH",
"937 412 OFFCURVE",
"920 398 OFFCURVE",
"904 382 CURVE",
"885 366 OFFCURVE",
"869 346 OFFCURVE",
"850 324 CURVE",
"860 356 OFFCURVE",
"871 387 OFFCURVE",
"884 418 CURVE SMOOTH",
"897 449 OFFCURVE",
"909 479 OFFCURVE",
"922 508 CURVE SMOOTH",
"956 582 LINE SMOOTH",
"966 603 OFFCURVE",
"973 623 OFFCURVE",
"978 641 CURVE",
"942 592 OFFCURVE",
"896 550 OFFCURVE",
"840 519 CURVE",
"807 503 LINE",
"815 528 LINE",
"817 538 OFFCURVE",
"819 548 OFFCURVE",
"819 558 CURVE SMOOTH",
"819 583 OFFCURVE",
"812 605 OFFCURVE",
"801 624 CURVE",
"805 625 OFFCURVE",
"804 626 OFFCURVE",
"807 628 CURVE",
"836 646 OFFCURVE",
"857 658 OFFCURVE",
"877 663 CURVE SMOOTH",
"896 668 OFFCURVE",
"917 670 OFFCURVE",
"942 670 CURVE SMOOTH",
"958 670 OFFCURVE",
"987 668 OFFCURVE",
"1028 663 CURVE SMOOTH",
"1070 658 OFFCURVE",
"1096 655 OFFCURVE",
"1108 655 CURVE SMOOTH",
"1137 655 OFFCURVE",
"1162 659 OFFCURVE",
"1184 666 CURVE SMOOTH",
"1208 675 OFFCURVE",
"1229 688 OFFCURVE",
"1247 706 CURVE",
"1233 700 OFFCURVE",
"1221 696 OFFCURVE",
"1209 695 CURVE"
);
},
{
closed = 1;
nodes = (
"428 180 OFFCURVE",
"368 127 OFFCURVE",
"312 94 CURVE SMOOTH",
"256 60 OFFCURVE",
"215 42 OFFCURVE",
"187 42 CURVE SMOOTH",
"157 42 OFFCURVE",
"134 50 OFFCURVE",
"116 65 CURVE SMOOTH",
"97 81 OFFCURVE",
"87 92 OFFCURVE",
"84 106 CURVE SMOOTH",
"80 119 OFFCURVE",
"77 132 OFFCURVE",
"77 149 CURVE SMOOTH",
"77 158 LINE",
"79 163 OFFCURVE",
"80 193 OFFCURVE",
"89 252 CURVE SMOOTH",
"96 310 OFFCURVE",
"134 382 OFFCURVE",
"202 470 CURVE SMOOTH",
"272 560 OFFCURVE",
"339 615 OFFCURVE",
"406 641 CURVE SMOOTH",
"474 666 OFFCURVE",
"519 683 OFFCURVE",
"543 688 CURVE SMOOTH",
"567 693 OFFCURVE",
"590 696 OFFCURVE",
"614 696 CURVE SMOOTH",
"639 696 OFFCURVE",
"664 691 OFFCURVE",
"689 683 CURVE SMOOTH",
"711 674 OFFCURVE",
"733 659 OFFCURVE",
"753 638 CURVE",
"759 629 OFFCURVE",
"765 623 OFFCURVE",
"769 613 CURVE",
"758 604 OFFCURVE",
"748 594 OFFCURVE",
"738 584 CURVE",
"714 564 OFFCURVE",
"694 540 OFFCURVE",
"673 517 CURVE",
"686 543 OFFCURVE",
"701 572 OFFCURVE",
"718 605 CURVE",
"718 622 LINE",
"714 622 LINE",
"685 578 OFFCURVE",
"659 543 OFFCURVE",
"633 509 CURVE",
"619 493 OFFCURVE",
"604 477 OFFCURVE",
"588 463 CURVE",
"584 464 OFFCURVE",
"579 464 OFFCURVE",
"575 468 CURVE",
"568 472 OFFCURVE",
"560 478 OFFCURVE",
"552 487 CURVE",
"545 495 OFFCURVE",
"542 503 OFFCURVE",
"542 510 CURVE SMOOTH",
"542 517 OFFCURVE",
"543 523 OFFCURVE",
"547 530 CURVE",
"550 539 OFFCURVE",
"559 545 OFFCURVE",
"570 549 CURVE",
"582 554 OFFCURVE",
"595 557 OFFCURVE",
"614 557 CURVE SMOOTH",
"619 557 OFFCURVE",
"628 557 OFFCURVE",
"638 555 CURVE",
"648 555 OFFCURVE",
"653 554 OFFCURVE",
"656 554 CURVE",
"643 560 LINE",
"638 564 OFFCURVE",
"629 565 OFFCURVE",
"618 569 CURVE",
"605 572 OFFCURVE",
"592 573 OFFCURVE",
"578 573 CURVE SMOOTH",
"559 573 OFFCURVE",
"543 570 OFFCURVE",
"532 564 CURVE",
"519 558 OFFCURVE",
"512 550 OFFCURVE",
"508 540 CURVE SMOOTH",
"504 530 OFFCURVE",
"502 523 OFFCURVE",
"502 519 CURVE SMOOTH",
"502 513 OFFCURVE",
"504 505 OFFCURVE",
"508 497 CURVE",
"513 490 OFFCURVE",
"519 483 OFFCURVE",
"528 474 CURVE",
"538 466 OFFCURVE",
"548 462 OFFCURVE",
"559 458 CURVE",
"578 454 LINE",
"567 444 OFFCURVE",
"557 437 OFFCURVE",
"543 428 CURVE SMOOTH",
"508 406 OFFCURVE",
"470 394 OFFCURVE",
"431 394 CURVE SMOOTH",
"422 394 LINE SMOOTH",
"418 394 OFFCURVE",
"414 396 OFFCURVE",
"406 396 CURVE",
"397 397 OFFCURVE",
"388 401 OFFCURVE",
"381 406 CURVE",
"372 409 OFFCURVE",
"367 416 OFFCURVE",
"364 423 CURVE SMOOTH",
"363 427 OFFCURVE",
"363 431 OFFCURVE",
"363 437 CURVE SMOOTH",
"363 446 OFFCURVE",
"366 452 OFFCURVE",
"369 456 CURVE SMOOTH",
"373 459 OFFCURVE",
"378 463 OFFCURVE",
"386 468 CURVE",
"392 473 OFFCURVE",
"398 474 OFFCURVE",
"404 478 CURVE",
"413 479 OFFCURVE",
"421 480 OFFCURVE",
"427 480 CURVE SMOOTH",
"433 480 OFFCURVE",
"441 479 OFFCURVE",
"451 478 CURVE",
"461 474 OFFCURVE",
"474 475 OFFCURVE",
"490 472 CURVE",
"467 483 LINE",
"458 487 OFFCURVE",
"449 488 OFFCURVE",
"439 492 CURVE",
"428 494 OFFCURVE",
"416 495 OFFCURVE",
"402 495 CURVE SMOOTH",
"381 495 OFFCURVE",
"363 492 OFFCURVE",
"349 483 CURVE",
"336 475 OFFCURVE",
"326 467 OFFCURVE",
"321 456 CURVE SMOOTH",
"316 444 OFFCURVE",
"313 436 OFFCURVE",
"313 432 CURVE SMOOTH",
"313 424 OFFCURVE",
"317 416 OFFCURVE",
"323 407 CURVE",
"329 399 OFFCURVE",
"341 392 OFFCURVE",
"356 383 CURVE SMOOTH",
"372 374 OFFCURVE",
"391 371 OFFCURVE",
"414 371 CURVE SMOOTH",
"443 371 OFFCURVE",
"477 381 OFFCURVE",
"513 399 CURVE SMOOTH",
"539 413 OFFCURVE",
"564 431 OFFCURVE",
"590 453 CURVE",
"600 453 LINE",
"626 453 LINE",
"625 452 LINE",
"617 437 OFFCURVE",
"609 423 OFFCURVE",
"603 408 CURVE",
"569 352 OFFCURVE",
"532 300 OFFCURVE",
"490 250 CURVE"
);
},
{
closed = 1;
nodes = (
"603 461 LINE",
"599 461 LINE",
"640 499 LINE",
"646 495 LINE",
"631 464 LINE",
"629 461 LINE"
);
},
{
closed = 1;
nodes = (
"781 529 OFFCURVE",
"776 508 OFFCURVE",
"766 487 CURVE",
"733 475 OFFCURVE",
"699 467 OFFCURVE",
"664 462 CURVE",
"678 493 OFFCURVE",
"699 524 OFFCURVE",
"726 555 CURVE SMOOTH",
"743 574 OFFCURVE",
"758 588 OFFCURVE",
"774 602 CURVE",
"779 588 OFFCURVE",
"781 572 OFFCURVE",
"781 553 CURVE SMOOTH"
);
}
);
width = 1017;
}
);
note = AE;
unicode = 00C6;
},
{
glyphname = Eth;
lastChange = "2017-12-19 09:08:29 +0000";
layers = (
{
layerId = "0B1DFD06-3317-40CA-B510-4969A0718C16";
paths = (
{
closed = 1;
nodes = (
"610 635 OFFCURVE",
"545 680 OFFCURVE",
"462 704 CURVE SMOOTH",
"408 720 OFFCURVE",
"348 711 OFFCURVE",
"293 690 CURVE SMOOTH",
"193 650 OFFCURVE",
"125 545 OFFCURVE",
"115 467 CURVE",
"102 467 OFFCURVE",
"91 468 OFFCURVE",
"81 470 CURVE",
"55 474 OFFCURVE",
"16 498 OFFCURVE",
"20 530 CURVE SMOOTH",
"21 542 OFFCURVE",
"27 552 OFFCURVE",
"37 558 CURVE SMOOTH",
"47 564 OFFCURVE",
"66 568 OFFCURVE",
"130 568 CURVE",
"69 583 OFFCURVE",
"41 585 OFFCURVE",
"15 574 CURVE SMOOTH",
"-4 565 OFFCURVE",
"-29 549 OFFCURVE",
"-29 525 CURVE SMOOTH",
"-29 499 OFFCURVE",
"0 475 OFFCURVE",
"26 467 CURVE",
"51 461 OFFCURVE",
"80 457 OFFCURVE",
"112 457 CURVE",
"99 427 OFFCURVE",
"112 372 OFFCURVE",
"140 351 CURVE",
"126 384 OFFCURVE",
"117 417 OFFCURVE",
"126 457 CURVE",
"192 472 OFFCURVE",
"237 488 OFFCURVE",
"261 504 CURVE",
"287 520 OFFCURVE",
"318 543 OFFCURVE",
"352 569 CURVE",
"303 490 OFFCURVE",
"258 413 OFFCURVE",
"212 328 CURVE",
"31 328 LINE",
"12 324 OFFCURVE",
"4 316 OFFCURVE",
"-2 310 CURVE SMOOTH",
"-6 306 OFFCURVE",
"-9 301 OFFCURVE",
"-10 297 CURVE",
"195 297 LINE",
"161 233 OFFCURVE",
"126 172 OFFCURVE",
"87 104 CURVE",
"86 100 OFFCURVE",
"81 96 OFFCURVE",
"85 92 CURVE",
"176 90 LINE",
"197 160 OFFCURVE",
"225 227 OFFCURVE",
"253 297 CURVE",
"387 297 LINE SMOOTH",
"407 297 OFFCURVE",
"418 303 OFFCURVE",
"424 312 CURVE",
"428 316 OFFCURVE",
"431 322 OFFCURVE",
"433 328 CURVE",
"266 328 LINE",
"311 433 OFFCURVE",
"361 535 OFFCURVE",
"406 645 CURVE",
"398 645 LINE",
"367 607 OFFCURVE",
"343 580 OFFCURVE",
"324 562 CURVE SMOOTH",
"306 543 OFFCURVE",
"282 527 OFFCURVE",
"251 510 CURVE SMOOTH",
"221 494 OFFCURVE",
"180 479 OFFCURVE",
"127 468 CURVE",
"151 548 OFFCURVE",
"202 615 OFFCURVE",
"281 656 CURVE SMOOTH",
"329 683 OFFCURVE",
"379 683 OFFCURVE",
"433 669 CURVE SMOOTH",
"498 654 OFFCURVE",
"553 599 OFFCURVE",
"567 529 CURVE SMOOTH",
"590 406 OFFCURVE",
"573 287 OFFCURVE",
"483 182 CURVE SMOOTH",
"446 139 OFFCURVE",
"401 102 OFFCURVE",
"349 72 CURVE",
"228 19 OFFCURVE",
"114 20 OFFCURVE",
"6 79 CURVE",
"6 72 LINE",
"32 51 OFFCURVE",
"65 35 OFFCURVE",
"101 24 CURVE SMOOTH",
"177 -1 OFFCURVE",
"247 -2 OFFCURVE",
"341 24 CURVE SMOOTH",
"396 40 OFFCURVE",
"457 74 OFFCURVE",
"522 137 CURVE SMOOTH",
"626 242 OFFCURVE",
"679 401 OFFCURVE",
"635 550 CURVE SMOOTH"
);
}
);
width = 651;
}
);
note = Eth;
unicode = 00D0;
},
{
glyphname = Dcroat;
lastChange = "2017-12-19 09:08:29 +0000";
layers = (
{
layerId = "0B1DFD06-3317-40CA-B510-4969A0718C16";
paths = (
{
closed = 1;
nodes = (
"612 610 OFFCURVE",
"547 655 OFFCURVE",
"463 679 CURVE SMOOTH",
"409 695 OFFCURVE",
"349 686 OFFCURVE",
"295 665 CURVE SMOOTH",
"195 625 OFFCURVE",
"126 520 OFFCURVE",
"116 442 CURVE",
"104 442 OFFCURVE",
"92 443 OFFCURVE",
"82 446 CURVE",
"56 449 OFFCURVE",
"17 473 OFFCURVE",
"21 505 CURVE SMOOTH",
"22 517 OFFCURVE",
"29 527 OFFCURVE",
"39 533 CURVE SMOOTH",
"49 539 OFFCURVE",
"67 543 OFFCURVE",
"131 543 CURVE",
"70 558 OFFCURVE",
"42 560 OFFCURVE",
"16 549 CURVE SMOOTH",
"-2 540 OFFCURVE",
"-27 524 OFFCURVE",
"-27 500 CURVE SMOOTH",
"-27 474 OFFCURVE",
"1 451 OFFCURVE",
"27 442 CURVE",
"52 436 OFFCURVE",
"81 432 OFFCURVE",
"114 432 CURVE",
"100 402 OFFCURVE",
"114 347 OFFCURVE",
"141 326 CURVE",
"127 359 OFFCURVE",
"119 392 OFFCURVE",
"127 432 CURVE",
"193 447 OFFCURVE",
"238 463 OFFCURVE",
"262 479 CURVE",
"288 495 OFFCURVE",
"319 518 OFFCURVE",
"353 544 CURVE",
"305 466 OFFCURVE",
"260 388 OFFCURVE",
"213 303 CURVE",
"32 303 LINE",
"14 300 OFFCURVE",
"5 291 OFFCURVE",
"-1 285 CURVE SMOOTH",
"-5 281 OFFCURVE",
"-7 276 OFFCURVE",
"-9 272 CURVE",
"196 272 LINE",
"162 208 OFFCURVE",
"127 147 OFFCURVE",
"89 79 CURVE",
"87 75 OFFCURVE",
"82 71 OFFCURVE",
"86 67 CURVE",
"177 65 LINE",
"198 135 OFFCURVE",
"226 202 OFFCURVE",
"255 272 CURVE",
"388 272 LINE SMOOTH",
"408 272 OFFCURVE",
"419 278 OFFCURVE",
"426 287 CURVE",
"429 291 OFFCURVE",
"432 297 OFFCURVE",
"434 303 CURVE",
"267 303 LINE",
"312 408 OFFCURVE",
"362 510 OFFCURVE",
"407 620 CURVE",
"399 620 LINE",
"368 582 OFFCURVE",
"344 555 OFFCURVE",
"326 537 CURVE SMOOTH",
"307 518 OFFCURVE",
"283 502 OFFCURVE",
"252 485 CURVE SMOOTH",
"222 469 OFFCURVE",
"181 454 OFFCURVE",
"129 443 CURVE",
"152 523 OFFCURVE",
"203 590 OFFCURVE",
"282 631 CURVE SMOOTH",
"331 658 OFFCURVE",
"381 658 OFFCURVE",
"434 644 CURVE SMOOTH",
"499 629 OFFCURVE",
"554 574 OFFCURVE",
"568 504 CURVE SMOOTH",
"592 381 OFFCURVE",
"574 262 OFFCURVE",
"484 157 CURVE SMOOTH",
"447 114 OFFCURVE",
"402 77 OFFCURVE",
"351 47 CURVE",
"230 -6 OFFCURVE",
"115 -5 OFFCURVE",
"7 54 CURVE",
"7 47 LINE",
"34 26 OFFCURVE",
"66 10 OFFCURVE",
"102 -1 CURVE SMOOTH",
"178 -26 OFFCURVE",
"248 -27 OFFCURVE",
"342 -1 CURVE SMOOTH",
"397 15 OFFCURVE",
"458 49 OFFCURVE",
"523 112 CURVE SMOOTH",
"628 217 OFFCURVE",
"680 376 OFFCURVE",
"636 525 CURVE SMOOTH"
);
}
);
width = 597;
}
);
note = Dcroat;
unicode = 0110;
},
{
glyphname = Eacute;
lastChange = "2017-12-19 05:21:12 +0000";
layers = (
{
background = {
paths = (
{
closed = 1;
nodes = (
"554 0 LINE",
"571 179 LINE",
"544 179 LINE",
"538 124 OFFCURVE",
"520 40 OFFCURVE",
"456 40 CURVE SMOOTH",
"201 40 LINE",
"201 659 LINE",
"441 659 LINE SMOOTH",
"516 659 OFFCURVE",
"525 567 OFFCURVE",
"528 527 CURVE",
"555 527 LINE",
"555 700 LINE",
"16 700 LINE",
"16 673 LINE",
"44 673 LINE SMOOTH",
"83 673 OFFCURVE",
"103 662 OFFCURVE",
"103 637 CURVE SMOOTH",
"103 62 LINE SMOOTH",
"103 37 OFFCURVE",
"83 26 OFFCURVE",
"44 26 CURVE SMOOTH",
"16 26 LINE",
"16 0 LINE"
);
},
{
closed = 1;
nodes = (
"455 251 LINE",
"455 485 LINE",
"431 485 LINE",
"427 436 OFFCURVE",
"424 388 OFFCURVE",
"379 388 CURVE SMOOTH",
"162 388 LINE",
"162 348 LINE",
"379 348 LINE SMOOTH",
"424 348 OFFCURVE",
"427 300 OFFCURVE",
"431 251 CURVE"
);
},
{
closed = 1;
nodes = (
"398 865 LINE SMOOTH",
"420 877 OFFCURVE",
"432 890 OFFCURVE",
"432 907 CURVE SMOOTH",
"432 922 OFFCURVE",
"420 937 OFFCURVE",
"398 937 CURVE SMOOTH",
"377 937 OFFCURVE",
"362 921 OFFCURVE",
"354 914 CURVE SMOOTH",
"239 807 LINE",
"256 782 LINE"
);
}
);
};
components = (
{
name = E;
},
{
name = acute;
transform = "{1, 0, 0, 1, 56, 230}";
}
);
layerId = "0B1DFD06-3317-40CA-B510-4969A0718C16";
width = 607;
}
);
note = Eacute;
unicode = 00C9;
},
{
glyphname = Ebreve;
lastChange = "2017-12-19 05:21:12 +0000";
layers = (
{
background = {
paths = (
{
closed = 1;
nodes = (
"554 0 LINE",
"571 179 LINE",
"544 179 LINE",
"538 124 OFFCURVE",
"520 40 OFFCURVE",
"456 40 CURVE SMOOTH",
"201 40 LINE",
"201 659 LINE",
"441 659 LINE SMOOTH",
"516 659 OFFCURVE",
"525 567 OFFCURVE",
"528 527 CURVE",
"555 527 LINE",
"555 700 LINE",
"16 700 LINE",
"16 673 LINE",
"44 673 LINE SMOOTH",
"83 673 OFFCURVE",
"103 662 OFFCURVE",
"103 637 CURVE SMOOTH",
"103 62 LINE SMOOTH",
"103 37 OFFCURVE",
"83 26 OFFCURVE",
"44 26 CURVE SMOOTH",
"16 26 LINE",
"16 0 LINE"
);
},
{
closed = 1;
nodes = (
"455 251 LINE",
"455 485 LINE",
"431 485 LINE",
"427 436 OFFCURVE",
"424 388 OFFCURVE",
"379 388 CURVE SMOOTH",
"162 388 LINE",
"162 348 LINE",
"379 348 LINE SMOOTH",
"424 348 OFFCURVE",
"427 300 OFFCURVE",
"431 251 CURVE"
);
},
{
closed = 1;
nodes = (
"432 776 OFFCURVE",
"474 832 OFFCURVE",
"478 907 CURVE",
"445 907 LINE",
"439 848 OFFCURVE",
"397 822 OFFCURVE",
"333 822 CURVE SMOOTH",
"269 822 OFFCURVE",
"226 848 OFFCURVE",
"219 907 CURVE",
"186 907 LINE",
"190 829 OFFCURVE",
"232 776 OFFCURVE",
"333 776 CURVE SMOOTH"
);
}
);
};
components = (
{
name = E;
},
{
name = breve;
transform = "{1, 0, 0, 1, 68, 230}";
}
);
layerId = "0B1DFD06-3317-40CA-B510-4969A0718C16";
width = 607;
}
);
note = Ebreve;
unicode = 0114;
},
{
glyphname = Ecaron;
lastChange = "2017-12-19 05:21:12 +0000";
layers = (
{
background = {
paths = (
{
closed = 1;
nodes = (
"554 0 LINE",
"571 179 LINE",
"544 179 LINE",
"538 124 OFFCURVE",
"520 40 OFFCURVE",
"456 40 CURVE SMOOTH",
"201 40 LINE",
"201 659 LINE",
"441 659 LINE SMOOTH",
"516 659 OFFCURVE",
"525 567 OFFCURVE",
"528 527 CURVE",
"555 527 LINE",
"555 700 LINE",
"16 700 LINE",
"16 673 LINE",
"44 673 LINE SMOOTH",
"83 673 OFFCURVE",
"103 662 OFFCURVE",
"103 637 CURVE SMOOTH",
"103 62 LINE SMOOTH",
"103 37 OFFCURVE",
"83 26 OFFCURVE",
"44 26 CURVE SMOOTH",
"16 26 LINE",
"16 0 LINE"
);
},
{
closed = 1;
nodes = (
"455 251 LINE",
"455 485 LINE",
"431 485 LINE",
"427 436 OFFCURVE",
"424 388 OFFCURVE",
"379 388 CURVE SMOOTH",
"162 388 LINE",
"162 348 LINE",
"379 348 LINE SMOOTH",
"424 348 OFFCURVE",
"427 300 OFFCURVE",
"431 251 CURVE"
);
},
{
closed = 1;
nodes = (
"357 782 LINE",
"481 911 LINE",
"462 932 LINE",
"354 847 LINE",
"346 840 OFFCURVE",
"337 836 OFFCURVE",
"331 836 CURVE SMOOTH",
"325 836 OFFCURVE",
"317 840 OFFCURVE",
"307 847 CURVE",
"199 932 LINE",
"180 911 LINE",
"304 782 LINE"
);
}
);
};
components = (
{
name = E;
},
{
name = caron;
transform = "{1, 0, 0, 1, 68, 230}";
}
);
layerId = "0B1DFD06-3317-40CA-B510-4969A0718C16";
width = 607;
}
);
note = Ecaron;
unicode = 011A;
},
{
glyphname = Ecircumflex;
lastChange = "2017-12-19 05:21:12 +0000";
layers = (
{
background = {
paths = (
{
closed = 1;
nodes = (
"554 0 LINE",
"571 179 LINE",
"544 179 LINE",
"538 124 OFFCURVE",
"520 40 OFFCURVE",
"456 40 CURVE SMOOTH",
"201 40 LINE",
"201 659 LINE",
"441 659 LINE SMOOTH",
"516 659 OFFCURVE",
"525 567 OFFCURVE",
"528 527 CURVE",
"555 527 LINE",
"555 700 LINE",
"16 700 LINE",
"16 673 LINE",
"44 673 LINE SMOOTH",
"83 673 OFFCURVE",
"103 662 OFFCURVE",
"103 637 CURVE SMOOTH",
"103 62 LINE SMOOTH",
"103 37 OFFCURVE",
"83 26 OFFCURVE",
"44 26 CURVE SMOOTH",
"16 26 LINE",
"16 0 LINE"
);
},
{
closed = 1;
nodes = (
"455 251 LINE",
"455 485 LINE",
"431 485 LINE",
"427 436 OFFCURVE",
"424 388 OFFCURVE",
"379 388 CURVE SMOOTH",
"162 388 LINE",
"162 348 LINE",
"379 348 LINE SMOOTH",
"424 348 OFFCURVE",
"427 300 OFFCURVE",
"431 251 CURVE"
);
},
{
closed = 1;
nodes = (
"304 868 LINE SMOOTH",
"312 874 OFFCURVE",
"322 879 OFFCURVE",
"328 879 CURVE SMOOTH",
"334 879 OFFCURVE",
"342 874 OFFCURVE",
"351 868 CURVE",
"459 782 LINE",
"478 803 LINE",
"354 932 LINE",
"301 932 LINE",
"177 803 LINE",
"196 782 LINE"
);
}
);
};
components = (
{
name = E;
},
{
name = circumflex;
transform = "{1, 0, 0, 1, 68, 230}";
}
);
layerId = "0B1DFD06-3317-40CA-B510-4969A0718C16";
width = 607;
}
);
note = Ecircumflex;
unicode = 00CA;
},
{
glyphname = Ecircumflexacute;
lastChange = "2017-12-19 05:21:12 +0000";
layers = (
{
background = {
paths = (
{
closed = 1;
nodes = (
"554 0 LINE",
"571 179 LINE",
"544 179 LINE",
"538 124 OFFCURVE",
"520 40 OFFCURVE",
"456 40 CURVE SMOOTH",
"201 40 LINE",
"201 659 LINE",
"441 659 LINE SMOOTH",
"516 659 OFFCURVE",
"525 567 OFFCURVE",
"528 527 CURVE",
"555 527 LINE",
"555 700 LINE",
"16 700 LINE",
"16 673 LINE",
"44 673 LINE SMOOTH",
"83 673 OFFCURVE",
"103 662 OFFCURVE",
"103 637 CURVE SMOOTH",
"103 62 LINE SMOOTH",
"103 37 OFFCURVE",
"83 26 OFFCURVE",
"44 26 CURVE SMOOTH",
"16 26 LINE",
"16 0 LINE"
);
},
{
closed = 1;
nodes = (
"455 251 LINE",
"455 485 LINE",
"431 485 LINE",
"427 436 OFFCURVE",
"424 388 OFFCURVE",
"379 388 CURVE SMOOTH",
"162 388 LINE",
"162 348 LINE",
"379 348 LINE SMOOTH",
"424 348 OFFCURVE",
"427 300 OFFCURVE",
"431 251 CURVE"
);
},
{
closed = 1;
nodes = (
"290 862 LINE SMOOTH",
"300 870 OFFCURVE",
"310 878 OFFCURVE",
"318 878 CURVE SMOOTH",
"324 878 OFFCURVE",
"332 873 OFFCURVE",
"341 867 CURVE",
"447 781 LINE",
"466 803 LINE",
"344 932 LINE",
"293 932 LINE",
"171 803 LINE",
"189 781 LINE"
);
},
{
closed = 1;
nodes = (
"555 960 LINE SMOOTH",
"578 972 OFFCURVE",
"591 988 OFFCURVE",
"591 1003 CURVE SMOOTH",
"591 1017 OFFCURVE",
"580 1034 OFFCURVE",
"557 1034 CURVE SMOOTH",
"538 1034 OFFCURVE",
"521 1018 OFFCURVE",
"511 1008 CURVE SMOOTH",
"415 915 LINE",
"433 893 LINE"
);
}
);
};
components = (
{
name = E;
},
{
name = circumflexacute;
transform = "{1, 0, 0, 1, 564, 230}";
}
);
layerId = "0B1DFD06-3317-40CA-B510-4969A0718C16";
width = 607;
}
);
note = Ecircumflexacute;
unicode = 1EBE;
},
{
glyphname = Ecircumflexdotbelow;
lastChange = "2017-12-19 05:21:12 +0000";
layers = (
{
background = {
paths = (
{
closed = 1;
nodes = (
"554 0 LINE",
"571 179 LINE",
"544 179 LINE",
"538 124 OFFCURVE",
"520 40 OFFCURVE",
"456 40 CURVE SMOOTH",
"201 40 LINE",
"201 659 LINE",
"441 659 LINE SMOOTH",
"516 659 OFFCURVE",
"525 567 OFFCURVE",
"528 527 CURVE",
"555 527 LINE",
"555 700 LINE",
"16 700 LINE",
"16 673 LINE",
"44 673 LINE SMOOTH",
"83 673 OFFCURVE",
"103 662 OFFCURVE",
"103 637 CURVE SMOOTH",
"103 62 LINE SMOOTH",
"103 37 OFFCURVE",
"83 26 OFFCURVE",
"44 26 CURVE SMOOTH",
"16 26 LINE",
"16 0 LINE"
);
},
{
closed = 1;
nodes = (
"350 -159 OFFCURVE",
"368 -140 OFFCURVE",
"368 -112 CURVE SMOOTH",
"368 -84 OFFCURVE",
"350 -64 OFFCURVE",
"322 -64 CURVE SMOOTH",
"294 -64 OFFCURVE",
"275 -84 OFFCURVE",
"275 -112 CURVE SMOOTH",
"275 -140 OFFCURVE",
"294 -159 OFFCURVE",
"322 -159 CURVE SMOOTH"
);
},
{
closed = 1;
nodes = (
"455 251 LINE",
"455 485 LINE",
"431 485 LINE",
"427 436 OFFCURVE",
"424 388 OFFCURVE",
"379 388 CURVE SMOOTH",
"162 388 LINE",
"162 348 LINE",
"379 348 LINE SMOOTH",
"424 348 OFFCURVE",
"427 300 OFFCURVE",
"431 251 CURVE"
);
},
{
closed = 1;
nodes = (
"294 868 LINE SMOOTH",
"302 874 OFFCURVE",
"312 879 OFFCURVE",
"318 879 CURVE SMOOTH",
"324 879 OFFCURVE",
"332 874 OFFCURVE",
"341 868 CURVE",
"449 782 LINE",
"468 803 LINE",
"344 932 LINE",
"291 932 LINE",
"167 803 LINE",
"186 782 LINE"
);
}
);
};
components = (
{
name = E;
},
{
name = dotbelowcomb;
transform = "{1, 0, 0, 1, 565, 0}";
},
{
name = circumflex;
transform = "{1, 0, 0, 1, 68, 230}";
}
);
layerId = "0B1DFD06-3317-40CA-B510-4969A0718C16";
width = 607;
}
);
note = Ecircumflexdotbelow;
unicode = 1EC6;
},
{
glyphname = Ecircumflexgrave;
lastChange = "2017-12-19 05:21:12 +0000";
layers = (
{
background = {
paths = (
{
closed = 1;
nodes = (
"554 0 LINE",
"571 179 LINE",
"544 179 LINE",
"538 124 OFFCURVE",
"520 40 OFFCURVE",
"456 40 CURVE SMOOTH",
"201 40 LINE",
"201 659 LINE",
"441 659 LINE SMOOTH",
"516 659 OFFCURVE",
"525 567 OFFCURVE",
"528 527 CURVE",
"555 527 LINE",
"555 700 LINE",
"16 700 LINE",
"16 673 LINE",
"44 673 LINE SMOOTH",
"83 673 OFFCURVE",
"103 662 OFFCURVE",
"103 637 CURVE SMOOTH",
"103 62 LINE SMOOTH",
"103 37 OFFCURVE",
"83 26 OFFCURVE",
"44 26 CURVE SMOOTH",
"16 26 LINE",
"16 0 LINE"
);
},
{
closed = 1;
nodes = (
"455 251 LINE",
"455 485 LINE",
"431 485 LINE",
"427 436 OFFCURVE",
"424 388 OFFCURVE",
"379 388 CURVE SMOOTH",
"162 388 LINE",
"162 348 LINE",
"379 348 LINE SMOOTH",
"424 348 OFFCURVE",
"427 300 OFFCURVE",
"431 251 CURVE"
);
},
{
closed = 1;
nodes = (
"227 915 LINE",
"132 1008 LINE SMOOTH",
"122 1018 OFFCURVE",
"105 1034 OFFCURVE",
"85 1034 CURVE SMOOTH",
"63 1034 OFFCURVE",
"52 1017 OFFCURVE",
"52 1003 CURVE SMOOTH",
"52 988 OFFCURVE",
"65 972 OFFCURVE",
"88 960 CURVE SMOOTH",
"210 893 LINE"
);
},
{
closed = 1;
nodes = (
"290 862 LINE SMOOTH",
"300 870 OFFCURVE",
"310 878 OFFCURVE",
"318 878 CURVE SMOOTH",
"324 878 OFFCURVE",
"332 873 OFFCURVE",
"341 867 CURVE",
"447 781 LINE",
"466 803 LINE",
"344 932 LINE",
"293 932 LINE",
"171 803 LINE",
"189 781 LINE"
);
}
);
};
components = (
{
name = E;
},
{
name = circumflexgrave;
transform = "{1, 0, 0, 1, 564, 230}";
}
);
layerId = "0B1DFD06-3317-40CA-B510-4969A0718C16";
width = 607;
}
);
note = Ecircumflexgrave;
unicode = 1EC0;
},
{
glyphname = Ecircumflexhookabove;
lastChange = "2017-12-19 05:21:12 +0000";
layers = (
{
background = {
paths = (
{
closed = 1;
nodes = (
"554 0 LINE",
"571 179 LINE",
"544 179 LINE",
"538 124 OFFCURVE",
"520 40 OFFCURVE",
"456 40 CURVE SMOOTH",
"201 40 LINE",
"201 659 LINE",
"441 659 LINE SMOOTH",
"516 659 OFFCURVE",
"525 567 OFFCURVE",
"528 527 CURVE",
"555 527 LINE",
"555 700 LINE",
"16 700 LINE",
"16 673 LINE",
"44 673 LINE SMOOTH",
"83 673 OFFCURVE",
"103 662 OFFCURVE",
"103 637 CURVE SMOOTH",
"103 62 LINE SMOOTH",
"103 37 OFFCURVE",
"83 26 OFFCURVE",
"44 26 CURVE SMOOTH",
"16 26 LINE",
"16 0 LINE"
);
},
{
closed = 1;
nodes = (
"455 251 LINE",
"455 485 LINE",
"431 485 LINE",
"427 436 OFFCURVE",
"424 388 OFFCURVE",
"379 388 CURVE SMOOTH",
"162 388 LINE",
"162 348 LINE",
"379 348 LINE SMOOTH",
"424 348 OFFCURVE",
"427 300 OFFCURVE",
"431 251 CURVE"
);
},
{
closed = 1;
nodes = (
"286 858 LINE",
"297 868 OFFCURVE",
"309 878 OFFCURVE",
"318 878 CURVE SMOOTH",
"324 878 OFFCURVE",
"332 873 OFFCURVE",
"341 867 CURVE",
"447 781 LINE",
"466 803 LINE",
"344 932 LINE",
"293 932 LINE",
"171 803 LINE",
"189 781 LINE"
);
},
{
closed = 1;
nodes = (
"493 898 LINE",
"474 905 OFFCURVE",
"464 912 OFFCURVE",
"464 926 CURVE SMOOTH",
"464 954 OFFCURVE",
"544 965 OFFCURVE",
"544 1010 CURVE SMOOTH",
"544 1047 OFFCURVE",
"502 1063 OFFCURVE",
"460 1063 CURVE SMOOTH",
"429 1063 OFFCURVE",
"384 1053 OFFCURVE",
"384 1022 CURVE SMOOTH",
"384 1010 OFFCURVE",
"395 1001 OFFCURVE",
"405 1001 CURVE SMOOTH",
"434 1001 OFFCURVE",
"421 1040 OFFCURVE",
"464 1040 CURVE SMOOTH",
"483 1040 OFFCURVE",
"494 1028 OFFCURVE",
"494 1013 CURVE SMOOTH",
"494 973 OFFCURVE",
"421 965 OFFCURVE",
"421 925 CURVE SMOOTH",
"421 901 OFFCURVE",
"437 880 OFFCURVE",
"484 880 CURVE"
);
}
);
};
components = (
{
name = E;
},
{
name = circumflexhookabove;
transform = "{1, 0, 0, 1, 564, 230}";
}
);
layerId = "0B1DFD06-3317-40CA-B510-4969A0718C16";
width = 607;
}
);
note = Ecircumflexhookabove;
unicode = 1EC2;
},
{
glyphname = Ecircumflextilde;
lastChange = "2017-12-19 05:21:12 +0000";
layers = (
{
background = {
paths = (
{
closed = 1;
nodes = (
"554 0 LINE",
"571 179 LINE",
"544 179 LINE",
"538 124 OFFCURVE",
"520 40 OFFCURVE",
"456 40 CURVE SMOOTH",
"201 40 LINE",
"201 659 LINE",
"441 659 LINE SMOOTH",
"516 659 OFFCURVE",
"525 567 OFFCURVE",
"528 527 CURVE",
"555 527 LINE",
"555 700 LINE",
"16 700 LINE",
"16 673 LINE",
"44 673 LINE SMOOTH",
"83 673 OFFCURVE",
"103 662 OFFCURVE",
"103 637 CURVE SMOOTH",
"103 62 LINE SMOOTH",
"103 37 OFFCURVE",
"83 26 OFFCURVE",
"44 26 CURVE SMOOTH",
"16 26 LINE",
"16 0 LINE"
);
},
{
closed = 1;
nodes = (
"455 251 LINE",
"455 485 LINE",
"431 485 LINE",
"427 436 OFFCURVE",
"424 388 OFFCURVE",
"379 388 CURVE SMOOTH",
"162 388 LINE",
"162 348 LINE",
"379 348 LINE SMOOTH",
"424 348 OFFCURVE",
"427 300 OFFCURVE",
"431 251 CURVE"
);
},
{
closed = 1;
nodes = (
"290 862 LINE SMOOTH",
"300 870 OFFCURVE",
"310 878 OFFCURVE",
"318 878 CURVE SMOOTH",
"324 878 OFFCURVE",
"332 873 OFFCURVE",
"341 867 CURVE",
"447 781 LINE",
"466 803 LINE",
"344 932 LINE",
"293 932 LINE",
"171 803 LINE",
"189 781 LINE"
);
},
{
closed = 1;
nodes = (
"193 997 OFFCURVE",
"211 1018 OFFCURVE",
"242 1018 CURVE SMOOTH",
"291 1018 OFFCURVE",
"338 964 OFFCURVE",
"387 964 CURVE SMOOTH",
"440 964 OFFCURVE",
"469 1012 OFFCURVE",
"481 1063 CURVE",
"460 1075 LINE",
"447 1035 OFFCURVE",
"431 1012 OFFCURVE",
"398 1012 CURVE SMOOTH",
"351 1012 OFFCURVE",
"302 1065 OFFCURVE",
"253 1065 CURVE SMOOTH",
"202 1065 OFFCURVE",
"170 1021 OFFCURVE",
"160 970 CURVE",
"180 958 LINE"
);
}
);
};
components = (
{
name = E;
},
{
name = circumflextilde;
transform = "{1, 0, 0, 1, 564, 230}";
}
);
layerId = "0B1DFD06-3317-40CA-B510-4969A0718C16";
width = 607;
}
);
note = Ecircumflextilde;
unicode = 1EC4;
},
{
glyphname = Edieresis;
lastChange = "2017-12-19 05:21:12 +0000";
layers = (
{
background = {
paths = (
{
closed = 1;
nodes = (
"554 0 LINE",
"571 179 LINE",
"544 179 LINE",
"538 124 OFFCURVE",
"520 40 OFFCURVE",
"456 40 CURVE SMOOTH",
"201 40 LINE",
"201 659 LINE",
"441 659 LINE SMOOTH",
"516 659 OFFCURVE",
"525 567 OFFCURVE",
"528 527 CURVE",
"555 527 LINE",
"555 700 LINE",
"16 700 LINE",
"16 673 LINE",
"44 673 LINE SMOOTH",
"83 673 OFFCURVE",
"103 662 OFFCURVE",
"103 637 CURVE SMOOTH",
"103 62 LINE SMOOTH",
"103 37 OFFCURVE",
"83 26 OFFCURVE",
"44 26 CURVE SMOOTH",
"16 26 LINE",
"16 0 LINE"
);
},
{
closed = 1;
nodes = (
"455 251 LINE",
"455 485 LINE",
"431 485 LINE",
"427 436 OFFCURVE",
"424 388 OFFCURVE",
"379 388 CURVE SMOOTH",
"162 388 LINE",
"162 348 LINE",
"379 348 LINE SMOOTH",
"424 348 OFFCURVE",
"427 300 OFFCURVE",
"431 251 CURVE"
);
},
{
closed = 1;
nodes = (
"254 781 OFFCURVE",
"272 800 OFFCURVE",
"272 827 CURVE SMOOTH",
"272 855 OFFCURVE",
"254 875 OFFCURVE",
"225 875 CURVE SMOOTH",
"197 875 OFFCURVE",
"179 855 OFFCURVE",
"179 827 CURVE SMOOTH",
"179 800 OFFCURVE",
"197 781 OFFCURVE",
"225 781 CURVE SMOOTH"
);
},
{
closed = 1;
nodes = (
"470 781 OFFCURVE",
"488 800 OFFCURVE",
"488 827 CURVE SMOOTH",
"488 855 OFFCURVE",
"470 875 OFFCURVE",
"441 875 CURVE SMOOTH",
"412 875 OFFCURVE",
"394 855 OFFCURVE",
"394 827 CURVE SMOOTH",
"394 800 OFFCURVE",
"412 781 OFFCURVE",
"441 781 CURVE SMOOTH"
);
}
);
};
components = (
{
name = E;
},
{
name = dieresis;
transform = "{1, 0, 0, 1, 68, 230}";
}
);
layerId = "0B1DFD06-3317-40CA-B510-4969A0718C16";
width = 607;
}
);
note = Edieresis;
unicode = 00CB;
},
{
glyphname = Edotaccent;
lastChange = "2017-12-19 05:21:12 +0000";
layers = (
{
background = {
paths = (
{
closed = 1;
nodes = (
"554 0 LINE",
"571 179 LINE",
"544 179 LINE",
"538 124 OFFCURVE",
"520 40 OFFCURVE",
"456 40 CURVE SMOOTH",
"201 40 LINE",
"201 659 LINE",
"441 659 LINE SMOOTH",
"516 659 OFFCURVE",
"525 567 OFFCURVE",
"528 527 CURVE",
"555 527 LINE",
"555 700 LINE",
"16 700 LINE",
"16 673 LINE",
"44 673 LINE SMOOTH",
"83 673 OFFCURVE",
"103 662 OFFCURVE",
"103 637 CURVE SMOOTH",
"103 62 LINE SMOOTH",
"103 37 OFFCURVE",
"83 26 OFFCURVE",
"44 26 CURVE SMOOTH",
"16 26 LINE",
"16 0 LINE"
);
},
{
closed = 1;
nodes = (
"455 251 LINE",
"455 485 LINE",
"431 485 LINE",
"427 436 OFFCURVE",
"424 388 OFFCURVE",
"379 388 CURVE SMOOTH",
"162 388 LINE",
"162 348 LINE",
"379 348 LINE SMOOTH",
"424 348 OFFCURVE",
"427 300 OFFCURVE",
"431 251 CURVE"
);
},
{
closed = 1;
nodes = (
"362 765 OFFCURVE",
"380 784 OFFCURVE",
"380 811 CURVE SMOOTH",
"380 839 OFFCURVE",
"362 858 OFFCURVE",
"334 858 CURVE SMOOTH",
"305 858 OFFCURVE",
"287 839 OFFCURVE",
"287 811 CURVE SMOOTH",
"287 784 OFFCURVE",
"305 765 OFFCURVE",
"334 765 CURVE SMOOTH"
);
}
);
};
components = (
{
name = E;
},
{
name = dotaccent;
transform = "{1, 0, 0, 1, 68, 230}";
}
);
layerId = "0B1DFD06-3317-40CA-B510-4969A0718C16";
width = 607;
}
);
note = Edotaccent;
unicode = 0116;
},
{
glyphname = Edotbelow;
lastChange = "2017-12-19 05:21:12 +0000";
layers = (
{
background = {
paths = (
{
closed = 1;
nodes = (
"554 0 LINE",
"571 179 LINE",
"544 179 LINE",
"538 124 OFFCURVE",
"520 40 OFFCURVE",
"456 40 CURVE SMOOTH",
"201 40 LINE",
"201 659 LINE",
"441 659 LINE SMOOTH",
"516 659 OFFCURVE",
"525 567 OFFCURVE",
"528 527 CURVE",
"555 527 LINE",
"555 700 LINE",
"16 700 LINE",
"16 673 LINE",
"44 673 LINE SMOOTH",
"83 673 OFFCURVE",
"103 662 OFFCURVE",
"103 637 CURVE SMOOTH",
"103 62 LINE SMOOTH",
"103 37 OFFCURVE",
"83 26 OFFCURVE",
"44 26 CURVE SMOOTH",
"16 26 LINE",
"16 0 LINE"
);
},
{
closed = 1;
nodes = (
"343 -159 OFFCURVE",
"361 -140 OFFCURVE",
"361 -112 CURVE SMOOTH",
"361 -84 OFFCURVE",
"343 -64 OFFCURVE",
"315 -64 CURVE SMOOTH",
"287 -64 OFFCURVE",
"268 -84 OFFCURVE",
"268 -112 CURVE SMOOTH",
"268 -140 OFFCURVE",
"287 -159 OFFCURVE",
"315 -159 CURVE SMOOTH"
);
},
{
closed = 1;
nodes = (
"455 251 LINE",
"455 485 LINE",
"431 485 LINE",
"427 436 OFFCURVE",
"424 388 OFFCURVE",
"379 388 CURVE SMOOTH",
"162 388 LINE",
"162 348 LINE",
"379 348 LINE SMOOTH",
"424 348 OFFCURVE",
"427 300 OFFCURVE",
"431 251 CURVE"
);
}
);
};
components = (
{
name = E;
},
{
name = dotbelowcomb;
transform = "{1, 0, 0, 1, 565, 0}";
}
);
layerId = "0B1DFD06-3317-40CA-B510-4969A0718C16";
width = 607;
}
);
note = Edotbelow;
unicode = 1EB8;
},
{
glyphname = Egrave;
lastChange = "2017-12-19 05:21:12 +0000";
layers = (
{
background = {
paths = (
{
closed = 1;
nodes = (
"554 0 LINE",
"571 179 LINE",
"544 179 LINE",
"538 124 OFFCURVE",
"520 40 OFFCURVE",
"456 40 CURVE SMOOTH",
"201 40 LINE",
"201 659 LINE",
"441 659 LINE SMOOTH",
"516 659 OFFCURVE",
"525 567 OFFCURVE",
"528 527 CURVE",
"555 527 LINE",
"555 700 LINE",
"16 700 LINE",
"16 673 LINE",
"44 673 LINE SMOOTH",
"83 673 OFFCURVE",
"103 662 OFFCURVE",
"103 637 CURVE SMOOTH",
"103 62 LINE SMOOTH",
"103 37 OFFCURVE",
"83 26 OFFCURVE",
"44 26 CURVE SMOOTH",
"16 26 LINE",
"16 0 LINE"
);
},
{
closed = 1;
nodes = (
"455 251 LINE",
"455 485 LINE",
"431 485 LINE",
"427 436 OFFCURVE",
"424 388 OFFCURVE",
"379 388 CURVE SMOOTH",
"162 388 LINE",
"162 348 LINE",
"379 348 LINE SMOOTH",
"424 348 OFFCURVE",
"427 300 OFFCURVE",
"431 251 CURVE"
);
},
{
closed = 1;
nodes = (
"425 807 LINE",
"310 913 LINE",
"301 922 OFFCURVE",
"285 937 OFFCURVE",
"265 937 CURVE SMOOTH",
"245 937 OFFCURVE",
"233 924 OFFCURVE",
"233 908 CURVE SMOOTH",
"233 890 OFFCURVE",
"245 876 OFFCURVE",
"264 865 CURVE SMOOTH",
"407 782 LINE"
);
}
);
};
components = (
{
name = E;
},
{
name = grave;
transform = "{1, 0, 0, 1, 68, 230}";
}
);
layerId = "0B1DFD06-3317-40CA-B510-4969A0718C16";
width = 607;
}
);
note = Egrave;
unicode = 00C8;
},
{
glyphname = Ehookabove;
lastChange = "2017-12-19 05:21:12 +0000";
layers = (
{
background = {
paths = (
{
closed = 1;
nodes = (
"554 0 LINE",
"571 179 LINE",
"544 179 LINE",
"538 124 OFFCURVE",
"520 40 OFFCURVE",
"456 40 CURVE SMOOTH",
"201 40 LINE",
"201 659 LINE",
"441 659 LINE SMOOTH",
"516 659 OFFCURVE",
"525 567 OFFCURVE",
"528 527 CURVE",
"555 527 LINE",
"555 700 LINE",
"16 700 LINE",
"16 673 LINE",
"44 673 LINE SMOOTH",
"83 673 OFFCURVE",
"103 662 OFFCURVE",
"103 637 CURVE SMOOTH",
"103 62 LINE SMOOTH",
"103 37 OFFCURVE",
"83 26 OFFCURVE",
"44 26 CURVE SMOOTH",
"16 26 LINE",
"16 0 LINE"
);
},
{
closed = 1;
nodes = (
"455 251 LINE",
"455 485 LINE",
"431 485 LINE",
"427 436 OFFCURVE",
"424 388 OFFCURVE",
"379 388 CURVE SMOOTH",
"162 388 LINE",
"162 348 LINE",
"379 348 LINE SMOOTH",
"424 348 OFFCURVE",
"427 300 OFFCURVE",
"431 251 CURVE"
);
},
{
closed = 1;
nodes = (
"367 798 LINE",
"348 805 OFFCURVE",
"336 811 OFFCURVE",
"336 828 CURVE SMOOTH",
"336 861 OFFCURVE",
"425 876 OFFCURVE",
"425 927 CURVE SMOOTH",
"425 969 OFFCURVE",
"389 991 OFFCURVE",
"336 991 CURVE SMOOTH",
"289 991 OFFCURVE",
"248 974 OFFCURVE",
"248 940 CURVE SMOOTH",
"248 923 OFFCURVE",
"256 915 OFFCURVE",
"271 915 CURVE SMOOTH",
"294 915 OFFCURVE",
"296 934 OFFCURVE",
"299 942 CURVE SMOOTH",
"304 956 OFFCURVE",
"321 962 OFFCURVE",
"337 962 CURVE SMOOTH",
"358 962 OFFCURVE",
"371 947 OFFCURVE",
"371 930 CURVE SMOOTH",
"371 885 OFFCURVE",
"289 874 OFFCURVE",
"289 828 CURVE SMOOTH",
"289 801 OFFCURVE",
"307 778 OFFCURVE",
"358 778 CURVE"
);
}
);
};
components = (
{
name = E;
},
{
name = hookabovecomb;
transform = "{1, 0, 0, 1, 565, 230}";
}
);
layerId = "0B1DFD06-3317-40CA-B510-4969A0718C16";
width = 607;
}
);
note = Ehookabove;
unicode = 1EBA;
},
{
glyphname = Emacron;
lastChange = "2017-12-19 05:21:12 +0000";
layers = (
{
background = {
paths = (
{
closed = 1;
nodes = (
"554 0 LINE",
"571 179 LINE",
"544 179 LINE",
"538 124 OFFCURVE",
"520 40 OFFCURVE",
"456 40 CURVE SMOOTH",
"201 40 LINE",
"201 659 LINE",
"441 659 LINE SMOOTH",
"516 659 OFFCURVE",
"525 567 OFFCURVE",
"528 527 CURVE",
"555 527 LINE",
"555 700 LINE",
"16 700 LINE",
"16 673 LINE",
"44 673 LINE SMOOTH",
"83 673 OFFCURVE",
"103 662 OFFCURVE",
"103 637 CURVE SMOOTH",
"103 62 LINE SMOOTH",
"103 37 OFFCURVE",
"83 26 OFFCURVE",
"44 26 CURVE SMOOTH",
"16 26 LINE",
"16 0 LINE"
);
},
{
closed = 1;
nodes = (
"455 251 LINE",
"455 485 LINE",
"431 485 LINE",
"427 436 OFFCURVE",
"424 388 OFFCURVE",
"379 388 CURVE SMOOTH",
"162 388 LINE",
"162 348 LINE",
"379 348 LINE SMOOTH",
"424 348 OFFCURVE",
"427 300 OFFCURVE",
"431 251 CURVE"
);
},
{
closed = 1;
nodes = (
"495 782 LINE",
"495 824 LINE",
"162 824 LINE",
"162 782 LINE"
);
}
);
};
components = (
{
name = E;
},
{
name = macron;
transform = "{1, 0, 0, 1, 68, 230}";
}
);
layerId = "0B1DFD06-3317-40CA-B510-4969A0718C16";
width = 607;
}
);
note = Emacron;
unicode = 0112;
},
{
glyphname = Eogonek;
lastChange = "2017-12-19 05:21:12 +0000";
layers = (
{
background = {
paths = (
{
closed = 1;
nodes = (
"554 0 LINE",
"571 179 LINE",
"544 179 LINE",
"538 124 OFFCURVE",
"520 40 OFFCURVE",
"456 40 CURVE SMOOTH",
"201 40 LINE",
"201 659 LINE",
"441 659 LINE SMOOTH",
"516 659 OFFCURVE",
"525 567 OFFCURVE",
"528 527 CURVE",
"555 527 LINE",
"555 700 LINE",
"16 700 LINE",
"16 673 LINE",
"44 673 LINE SMOOTH",
"83 673 OFFCURVE",
"103 662 OFFCURVE",
"103 637 CURVE SMOOTH",
"103 62 LINE SMOOTH",
"103 37 OFFCURVE",
"83 26 OFFCURVE",
"44 26 CURVE SMOOTH",
"16 26 LINE",
"16 0 LINE"
);
},
{
closed = 1;
nodes = (
"496 -196 OFFCURVE",
"524 -189 OFFCURVE",
"549 -172 CURVE",
"543 -152 LINE",
"527 -158 OFFCURVE",
"510 -162 OFFCURVE",
"497 -162 CURVE SMOOTH",
"464 -162 OFFCURVE",
"437 -146 OFFCURVE",
"437 -106 CURVE SMOOTH",
"437 -66 OFFCURVE",
"464 -26 OFFCURVE",
"510 4 CURVE",
"469 4 LINE",
"416 -22 OFFCURVE",
"376 -64 OFFCURVE",
"376 -114 CURVE SMOOTH",
"376 -147 OFFCURVE",
"395 -196 OFFCURVE",
"470 -196 CURVE SMOOTH"
);
},
{
closed = 1;
nodes = (
"455 251 LINE",
"455 485 LINE",
"431 485 LINE",
"427 436 OFFCURVE",
"424 388 OFFCURVE",
"379 388 CURVE SMOOTH",
"162 388 LINE",
"162 348 LINE",
"379 348 LINE SMOOTH",
"424 348 OFFCURVE",
"427 300 OFFCURVE",
"431 251 CURVE"
);
}
);
};
components = (
{
name = E;
},
{
name = ogonek;
transform = "{1, 0, 0, 1, 256, 0}";
}
);
layerId = "0B1DFD06-3317-40CA-B510-4969A0718C16";
width = 607;
}
);
note = Eogonek;
unicode = 0118;
},
{
glyphname = Etilde;
lastChange = "2017-12-19 05:21:12 +0000";
layers = (
{
background = {
paths = (
{
closed = 1;
nodes = (
"554 0 LINE",
"571 179 LINE",
"544 179 LINE",
"538 124 OFFCURVE",
"520 40 OFFCURVE",
"456 40 CURVE SMOOTH",
"201 40 LINE",
"201 659 LINE",
"441 659 LINE SMOOTH",
"516 659 OFFCURVE",
"525 567 OFFCURVE",
"528 527 CURVE",
"555 527 LINE",
"555 700 LINE",
"16 700 LINE",
"16 673 LINE",
"44 673 LINE SMOOTH",
"83 673 OFFCURVE",
"103 662 OFFCURVE",
"103 637 CURVE SMOOTH",
"103 62 LINE SMOOTH",
"103 37 OFFCURVE",
"83 26 OFFCURVE",
"44 26 CURVE SMOOTH",
"16 26 LINE",
"16 0 LINE"
);
},
{
closed = 1;
nodes = (
"455 251 LINE",
"455 485 LINE",
"431 485 LINE",
"427 436 OFFCURVE",
"424 388 OFFCURVE",
"379 388 CURVE SMOOTH",
"162 388 LINE",
"162 348 LINE",
"379 348 LINE SMOOTH",
"424 348 OFFCURVE",
"427 300 OFFCURVE",
"431 251 CURVE"
);
},
{
closed = 1;
nodes = (
"190 817 OFFCURVE",
"208 838 OFFCURVE",
"241 838 CURVE SMOOTH",
"292 838 OFFCURVE",
"341 784 OFFCURVE",
"392 784 CURVE SMOOTH",
"450 784 OFFCURVE",
"480 832 OFFCURVE",
"492 884 CURVE",
"471 895 LINE",
"455 855 OFFCURVE",
"439 833 OFFCURVE",
"405 833 CURVE SMOOTH",
"356 833 OFFCURVE",
"304 886 OFFCURVE",
"253 886 CURVE SMOOTH",
"199 886 OFFCURVE",
"166 842 OFFCURVE",
"154 790 CURVE",
"176 779 LINE"
);
}
);
};
components = (
{
name = E;
},
{
name = tilde;
transform = "{1, 0, 0, 1, 68, 230}";
}
);
layerId = "0B1DFD06-3317-40CA-B510-4969A0718C16";
width = 607;
}
);
note = Etilde;
unicode = 1EBC;
},
{
glyphname = Hbar;
lastChange = "2017-12-19 05:21:12 +0000";
layers = (
{
components = (
{
name = H;
}
);
layerId = "0B1DFD06-3317-40CA-B510-4969A0718C16";
paths = (
{
closed = 1;
nodes = (
"719 504 LINE",
"719 544 LINE",
"43 544 LINE",
"43 504 LINE"
);
}
);
width = 773;
}
);
note = Hbar;
unicode = 0126;
},
{
color = 0;
glyphname = IJ;
lastChange = "2017-12-19 05:22:42 +0000";
layers = (
{
layerId = "0B1DFD06-3317-40CA-B510-4969A0718C16";
paths = (
{
closed = 1;
nodes = (
"472 -114 OFFCURVE",
"561 -45 OFFCURVE",
"561 89 CURVE SMOOTH",
"561 637 LINE SMOOTH",
"561 662 OFFCURVE",
"581 673 OFFCURVE",
"619 673 CURVE SMOOTH",
"649 673 LINE",
"649 700 LINE",
"376 700 LINE",
"376 673 LINE",
"405 673 LINE SMOOTH",
"444 673 OFFCURVE",
"463 662 OFFCURVE",
"463 637 CURVE SMOOTH",
"463 90 LINE SMOOTH",
"463 -8 OFFCURVE",
"424 -75 OFFCURVE",
"339 -93 CURVE",
"343 -114 LINE"
);
},
{
closed = 1;
nodes = (
"298 0 LINE",
"298 26 LINE",
"270 26 LINE SMOOTH",
"231 26 OFFCURVE",
"211 37 OFFCURVE",
"211 62 CURVE SMOOTH",
"211 637 LINE SMOOTH",
"211 662 OFFCURVE",
"231 673 OFFCURVE",
"270 673 CURVE SMOOTH",
"298 673 LINE",
"298 700 LINE",
"26 700 LINE",
"26 673 LINE",
"55 673 LINE SMOOTH",
"93 673 OFFCURVE",
"113 662 OFFCURVE",
"113 637 CURVE SMOOTH",
"113 62 LINE SMOOTH",
"113 37 OFFCURVE",
"93 26 OFFCURVE",
"55 26 CURVE SMOOTH",
"26 26 LINE",
"26 0 LINE"
);
}
);
width = 675;
}
);
note = IJ;
rightKerningGroup = J;
unicode = 0132;
},
{
glyphname = Lslash;
lastChange = "2017-12-19 09:08:54 +0000";
layers = (
{
layerId = "0B1DFD06-3317-40CA-B510-4969A0718C16";
paths = (
{
closed = 1;
nodes = (
"89 0 LINE SMOOTH",
"156 0 OFFCURVE",
"228 -1 OFFCURVE",
"255 -1 CURVE",
"281 -2 OFFCURVE",
"298 9 OFFCURVE",
"310 20 CURVE SMOOTH",
"316 26 OFFCURVE",
"321 34 OFFCURVE",
"324 42 CURVE",
"26 42 LINE",
"135 293 LINE",
"158 305 OFFCURVE",
"180 314 OFFCURVE",
"201 323 CURVE",
"236 339 OFFCURVE",
"276 359 OFFCURVE",
"295 369 CURVE SMOOTH",
"313 379 OFFCURVE",
"319 394 OFFCURVE",
"323 406 CURVE",
"324 412 OFFCURVE",
"326 419 OFFCURVE",
"324 426 CURVE",
"268 397 OFFCURVE",
"208 364 OFFCURVE",
"155 338 CURVE",
"272 614 LINE",
"261 610 OFFCURVE",
"250 604 OFFCURVE",
"240 597 CURVE SMOOTH",
"221 583 OFFCURVE",
"202 565 OFFCURVE",
"191 540 CURVE SMOOTH",
"176 504 OFFCURVE",
"152 446 OFFCURVE",
"131 397 CURVE SMOOTH",
"119 368 OFFCURVE",
"106 339 OFFCURVE",
"94 308 CURVE",
"61 292 LINE SMOOTH",
"42 283 OFFCURVE",
"20 272 OFFCURVE",
"4 262 CURVE",
"-11 251 OFFCURVE",
"-20 237 OFFCURVE",
"-25 226 CURVE",
"-29 220 OFFCURVE",
"-30 212 OFFCURVE",
"-31 205 CURVE",
"0 223 OFFCURVE",
"36 245 OFFCURVE",
"72 263 CURVE",
"-39 0 LINE"
);
}
);
width = 441;
}
);
note = Lslash;
unicode = 0141;
},
